<svg width="384" height="718" viewBox="0 0 384 718" fill="none" xmlns="http://www.w3.org/2000/svg">
<path d="M372.719 606.862C395.835 648.257 356.538 712.649 289.501 717.249C222.464 721.848 169.297 662.055 166.986 639.058C164.674 616.061 2.86153 464.279 0.549919 321.695C-1.76169 179.112 76.833 43.4283 106.884 25.0304C136.935 6.63261 240.957 -11.7652 319.552 11.2321C382.428 29.6299 390.634 67.0005 379.076 112.995C359.794 189.725 383.815 349.752 372.719 360.791C358.849 374.589 309.15 338.943 311.461 391.837C307.223 405.252 306.145 437.372 335.733 458.529C365.322 479.687 348.062 507.973 335.733 519.472C315.699 514.106 265.46 504.984 224.776 511.423C184.092 517.862 133.082 449.714 112.663 414.834C97.6375 365.774 89.778 266.962 178.544 264.202C267.31 261.443 285.841 274.551 290.079 275.701C288.153 289.116 283.491 307.897 231.711 321.695M224.776 349.292C230.555 349.292 321.864 343.543 328.798 307.897C335.733 272.251 392.368 103.221 328.798 73.3247C265.229 43.4283 175.076 46.8779 145.025 62.976C114.975 79.0741 25.9776 221.657 35.2241 321.695C44.4705 421.734 171.609 562.017 198.192 595.363" stroke="black"/>
<g filter="url(#filter0_d_116_1450)">
<path d="M167.094 155.719C193.749 109.339 289.938 95.4252 298.051 96.5847C318.911 94.2275 330.5 141.805 330.5 148.762C330.5 155.719 322.388 198.62 279.508 207.896C236.628 217.172 140.439 202.098 167.094 155.719Z" stroke="black" shape-rendering="crispEdges"/>
</g>
<defs>
<filter id="filter0_d_116_1450" x="158" y="95.9999" width="177" height="123" filterUnits="userSpaceOnUse" color-interpolation-filters="sRGB">
<feFlood flood-opacity="0" result="BackgroundImageFix"/>
<feColorMatrix in="SourceAlpha" type="matrix" values="0 0 0 0 0 0 0 0 0 0 0 0 0 0 0 0 0 0 127 0" result="hardAlpha"/>
<feOffset dy="4"/>
<feGaussianBlur stdDeviation="2"/>
<feComposite in2="hardAlpha" operator="out"/>
<feColorMatrix type="matrix" values="0 0 0 0 0 0 0 0 0 0 0 0 0 0 0 0 0 0 0.25 0"/>
<feBlend mode="normal" in2="BackgroundImageFix" result="effect1_dropShadow_116_1450"/>
<feBlend mode="normal" in="SourceGraphic" in2="effect1_dropShadow_116_1450" result="shape"/>
</filter>
</defs>
</svg>
