<?xml version="1.0" encoding="UTF-8"?>
<svg id="Layer_1" data-name="Layer 1" xmlns="http://www.w3.org/2000/svg" viewBox="0 0 1027.45 691.93">
  <defs>
    <style>
      .cls-1 {
        fill: #92bdff;
      }

      .cls-2 {
        fill: #ffcece;
      }

      .cls-3 {
        fill: #b1f2ff;
      }

      .cls-4 {
        fill: none;
        stroke: #000;
        stroke-linecap: round;
      }

      .cls-5 {
        fill: #b7ffb1;
      }

      .cls-6 {
        fill: #fff1b1;
      }
    </style>
  </defs>
  <path class="cls-4" d="M281.66,608.62c-2.29,1.68-7.06,6.13-7.93,10.21-.44,2.07,1.66,4.28,3.47,5.55,9.86,6.93,30.38,3.41,41.17,7.25,8.78,3.13,17.07,7.52,28.02,10.68,12.74,3.67,27.37,11.94,38.11,21.6,7,6.29,18.36,7.25,28.66,8.63,11.92,1.6,44.83,1.54,66.39.37,30.36-1.66,76.28-.36,86.38.87,13.38,1.63,22.44,4.14,33.19,9.81,8.93,4.71,18.6,8.32,50.52,7.81,18.44-.29,25.81-11.38,32.03-18.72,6.76-7.98,18.3-21.17,26.21-29.36,8.19-8.48,20.37-8.92,28.85-11.64,8.38-2.69,19.3-6.93,29.98-11.13,13.4-5.27,34.78-2.3,49.44-.39,14.08,1.84,32.96-1.54,39.21-7.94,7.44-7.62,16-26.9,26.18-38.06,3.26-3.57,8.73-5.43,14.69-6.79,11.49-2.62,20.52,3.52,38.04,6.52,38.28,2.35,51.58,4.61,65.34,6.61,5.13.31,12.92.31,18.67-4.36"/>
  <path class="cls-4" d="M546.32,575c-.92-5.74-5-19.09-11.11-25.82-7.04-7.76-19.1-7.5-31.94-8.49-19.32-1.48-52.1-14.05-79.66-24.01-21.96-7.94-53.67-13.82-77.85-19.02-8.67-1.86-25.88-5.29-51.23-10.6-40.75-8.53-71.7-12.48-82.06-14.06-14.12-2.16-23.69-4.98-31.38-9.5-8.84-5.19-19.03-14.22-27.85-20.86-7.35-5.53-18.33-11.31-28.87-17.23-14.07-7.9-34.02-17.07-42.79-23.95-17.38-13.64-39.92-41.29-51.44-55.2-6.24-7.53-19.53-26.67-22.8-40.49-1.48-6.25,12.68-3.31,18.01-2.7,11.41,1.3,24.1,11.04,34.29,14.14,10,3.04,22.69,3.08,40.08,6.29,24.84,4.59,41.86,20.33,51.29,28.63,12.33,10.85,22,20.75,29.96,25.29,10.26,5.85,21.65,13.38,31.34,16.24,12.5,3.68,24.01,4.88,35.88,9.42,10.2,3.9,21.39,9.58,29.05,13.42,8.93,4.49,21.4,8.61,38.42,8.33,29.09-.47,51.3-1.55,68.88,2.37,25.74,5.74,39.09,10.33,54.44,10.65,6.52.14,10.91-3.29,13.63-6.68,2.79-3.48,1.73-10.53.59-16.89-1.71-9.55-17.1-9.39-30.84-17.24-9.97-5.7-25.53-12.98-51.63-20.96-13.26-4.05-25.69-2.97-34-3.88-11.34-1.24-23.79-6.03-35.25-10.64-10.02-4.04-24.45-14.23-37.79-24.86-19.86-15.81-37.38-36.01-66.69-52.99-19.81-11.48-58.59-29.68-79.79-40.66-30.94-16.02-43.41-23.46-54.06-31.58-12.73-9.7-23.39-18.97-31.5-25.34-7.17-5.63-7.62-22.97-9.31-35.19-1.21-8.77-4.91-18.68-5.65-27.18-.42-4.8,9.52-6.37,16.3-8.03,9.19-2.25,22.03,8.4,39.12,15.32,10.76,4.36,24.9,10.01,38.52,22.39,11.68,10.62,25.98,17.76,34.92,24.14,12.26,8.75,33.82,16.4,52.15,22.08,20.57,6.37,32.61,5.93,41.71,10.78,11.2,5.97,24.93,18.75,34.83,32.01,10.53,14.1,24.18,37.96,32.9,44,9.69,6.7,20.1,6,45.82,6.77,23.13.7,46.86,16.59,83.07,17.83,14.82.51,22.54,2.48,26.31.75,9.31-4.27,9.03-23.42,6.86-34.48-1.65-8.43-15.11-9.11-24.35-12.94-8.85-3.67-18.26-10.47-24.83-17.98-6.48-7.41-20.74-17.44-34.47-24.43-13.17-6.7-37.71-20.19-54.21-27.28-19.81-8.51-41.28-8.73-53.15-11.97-9.89-2.7-20.34-21.72-29.79-31.72-11.47-12.15-36.89-27.8-51.68-32.37-11.54-3.57-20.44-8.53-29.57-16.04-8.35-6.86-12.9-14.54-18.44-22.11-2.79-3.82-7.52-7.71-11.59-12.69-3.17-3.88-2.25-13.13-1.44-22.22.73-8.13,16.71-5.63,26.18-7.29,15.76-2.77,25.98,3.06,36.31,8.77,17.08,9.43,26.2,10.92,35.38,16.82,7.54,4.85,14.13,10.7,23.85,13.26,12.35,3.25,19.56,13.99,26.38,20.53,8.82,8.46,20.55,11.47,33.32,13.31,13.12,1.89,21.69,2.3,31.38,7.05,11.34,5.57,18.65,16.41,29.85,27.27,17.73,17.2,25.6,27.44,41.87,38.18,9.28,6.13,20.98,5.4,36.51,6.21,5.29.27,14.92-.98,26.62-2.1,4.21-.4,4.37-3.37,4.37-5.57,0-4.32-.62-16.07-1.61-30.37-.36-5.17-11.39-3.79-24.78-6.87-9.35-2.15-17.67-8.68-26.9-17.08-17.99-16.37-24.02-26.88-34.79-33.25-8.83-5.22-39.51-14.58-63.81-25.34-12.79-5.66-25.5-17.05-35.77-24.53-15.8-11.51-25.36-16.57-32.37-23.98-1.8-1.9-2.71-4.55-2.46-6.45,1.03-7.77,14.28-7.94,23.07-9.68,15.6-3.1,43.48,3.41,54.14,9.03,9.87,5.21,23.29,9.59,34.72,13.05,12.91,3.91,24.56,8.75,40.01,18.16,8.78,5.35,16.26,11.24,27.01,16.08,10.14,4.57,25.48,9.21,36,14.38,8.39,4.13,18.11,7.69,27.42,11.25,10.67,4.08,18.73,14.38,29.48,22.74,16.47,12.81,30.47,21.5,39.57,29.46,11.09,9.7,26.89,16.16,60.18,17.96,19.18,1.04,39.57,8.53,76.25,24.16,48.29,20.58,56.77,32.78,66.89,37.91,9.23,4.67,22.34,14.87,30.12,23.43,7.07,7.79,11.78,16.35,21.6,23.63,13.2,9.78,23.34,11.88,32.49,15.03,13.73,4.72,23.52,10.26,37.93,10.65,20.88.57,35.28-4.89,47.07-9.43,14.19-5.47,24.78-5.95,32.51-2.8,9.98,1.32,32.85,1.02,45.24,1,.35-.78-1.12-2.8-3.56-5.33"/>
  <path class="cls-4" d="M555.97,552.69c-2.44,1.52-12.01,13.37-20.3,24.92-5.75,8.01-15.42,12.6-29.4,17.46-5.93,2.06-35.74,1.78-77.52,1.41-21.95-.2-28.52-7.3-36.89-13.35-9.96-7.2-19.58-8.77-32.71-9.84-14.81-1.21-23.75,2.45-39.33,7.21-11.72,4.85-21.28,9.02-26.04,11.39-2.17,1.16-3.84,2.22-5.57,3.32"/>
  <ellipse class="cls-6" cx="31.1" cy="321.97" rx="23.79" ry="34.5" transform="translate(-245.53 154.32) rotate(-53.27)"/>
  <ellipse class="cls-1" cx="295.59" cy="21.4" rx="19.77" ry="31.57" transform="translate(177.11 293.05) rotate(-70.57)"/>
  <ellipse class="cls-5" cx="39.29" cy="143.77" rx="26.08" ry="34.5" transform="translate(-93.42 75.94) rotate(-47.64)"/>
  <ellipse class="cls-3" cx="162.74" cy="63.02" rx="25.5" ry="34.5" transform="translate(33.21 179.96) rotate(-63.24)"/>
  <path class="cls-2" d="M305.99,631.76c18.97,1.74,26.37-2.26,27.39-13.32,1.01-11.07-13.55-21.45-32.52-23.19-18.97-1.74-35.18,5.82-36.19,16.89-1.01,11.07,22.35,17.88,41.33,19.62Z"/>
</svg>