<?xml version="1.0" encoding="UTF-8"?>
<svg id="Layer_1" xmlns="http://www.w3.org/2000/svg" version="1.1" viewBox="0 0 1039 700">
  <!-- Generator: Adobe Illustrator 29.6.1, SVG Export Plug-In . SVG Version: 2.1.1 Build 9)  -->
  <defs>
    <style>
      .st0 {
        fill: #92bdff;
      }

      .st1 {
        fill: #ffcece;
      }

      .st2 {
        fill: #b1f2ff;
      }

      .st3 {
        fill: none;
        stroke: #000;
        stroke-linecap: round;
      }

      .st4 {
        fill: #b7ffb1;
      }

      .st5 {
        fill: #fff1b1;
      }

      .st6 {
        fill: #191917;
      }
    </style>
  </defs>
  <path class="st3" d="M292.44,616.36c-2.29,1.68-7.06,6.13-7.93,10.21-.44,2.07,1.66,4.28,3.47,5.55,9.86,6.93,30.38,3.41,41.17,7.25,8.78,3.13,17.07,7.52,28.02,10.68,12.74,3.67,27.37,11.94,38.11,21.6,7,6.29,18.36,7.25,28.66,8.63,11.92,1.6,44.83,1.54,66.39.37,30.36-1.66,76.28-.36,86.38.87,13.38,1.63,22.44,4.14,33.19,9.81,8.93,4.71,18.6,8.32,50.52,7.81,18.44-.29,25.81-11.38,32.03-18.72,6.76-7.98,18.3-21.17,26.21-29.36,8.19-8.48,20.37-8.92,28.85-11.64,8.38-2.69,19.3-6.93,29.98-11.13,13.4-5.27,34.78-2.3,49.44-.39,14.08,1.84,32.96-1.54,39.21-7.94,7.44-7.62,16-26.9,26.18-38.06,3.26-3.57,8.73-5.43,14.69-6.79,11.49-2.62,20.52,3.52,38.04,6.52,38.28,2.35,51.58,4.61,65.34,6.61,5.13.31,12.92.31,18.67-4.36"/>
  <path class="st3" d="M557.1,582.74c-.92-5.74-5-19.09-11.11-25.82-7.04-7.76-19.1-7.5-31.94-8.49-19.32-1.48-52.1-14.05-79.66-24.01-21.96-7.94-53.67-13.82-77.85-19.02-8.67-1.86-25.88-5.29-51.23-10.6-40.75-8.53-71.7-12.48-82.06-14.06-14.12-2.16-23.69-4.98-31.38-9.5-8.84-5.19-19.03-14.22-27.85-20.86-7.35-5.53-18.33-11.31-28.87-17.23-14.07-7.9-34.02-17.07-42.79-23.95-17.38-13.64-39.92-41.29-51.44-55.2-6.24-7.53-19.53-26.67-22.8-40.49-1.48-6.25,12.68-3.31,18.01-2.7,11.41,1.3,24.1,11.04,34.29,14.14,10,3.04,22.69,3.08,40.08,6.29,24.84,4.59,41.86,20.33,51.29,28.63,12.33,10.85,22,20.75,29.96,25.29,10.26,5.85,21.65,13.38,31.34,16.24,12.5,3.68,24.01,4.88,35.88,9.42,10.2,3.9,21.39,9.58,29.05,13.42,8.93,4.49,21.4,8.61,38.42,8.33,29.09-.47,51.3-1.55,68.88,2.37,25.74,5.74,39.09,10.33,54.44,10.65,6.52.14,10.91-3.29,13.63-6.68,2.79-3.48,1.73-10.53.59-16.89-1.71-9.55-17.1-9.39-30.84-17.24-9.97-5.7-25.53-12.98-51.63-20.96-13.26-4.05-25.69-2.97-34-3.88-11.34-1.24-23.79-6.03-35.25-10.64-10.02-4.04-24.45-14.23-37.79-24.86-19.86-15.81-37.38-36.01-66.69-52.99-19.81-11.48-58.59-29.68-79.79-40.66-30.94-16.02-43.41-23.46-54.06-31.58-12.73-9.7-23.39-18.97-31.5-25.34-7.17-5.63-7.62-22.97-9.31-35.19-1.21-8.77-4.91-18.68-5.65-27.18-.42-4.8,9.52-6.37,16.3-8.03,9.19-2.25,22.03,8.4,39.12,15.32,10.76,4.36,24.9,10.01,38.52,22.39,11.68,10.62,25.98,17.76,34.92,24.14,12.26,8.75,33.82,16.4,52.15,22.08,20.57,6.37,32.61,5.93,41.71,10.78,11.2,5.97,24.93,18.75,34.83,32.01,10.53,14.1,24.18,37.96,32.9,44,9.69,6.7,20.1,6,45.82,6.77,23.13.7,46.86,16.59,83.07,17.83,14.82.51,22.54,2.48,26.31.75,9.31-4.27,9.03-23.42,6.86-34.48-1.65-8.43-15.11-9.11-24.35-12.94-8.85-3.67-18.26-10.47-24.83-17.98-6.48-7.41-20.74-17.44-34.47-24.43-13.17-6.7-37.71-20.19-54.21-27.28-19.81-8.51-41.28-8.73-53.15-11.97-9.89-2.7-20.34-21.72-29.79-31.72-11.47-12.15-36.89-27.8-51.68-32.37-11.54-3.57-20.44-8.53-29.57-16.04-8.35-6.86-12.9-14.54-18.44-22.11-2.79-3.82-7.52-7.71-11.59-12.69-3.17-3.88-2.25-13.13-1.44-22.22.73-8.13,16.71-5.63,26.18-7.29,15.76-2.77,25.98,3.06,36.31,8.77,17.08,9.43,26.2,10.92,35.38,16.82,7.54,4.85,14.13,10.7,23.85,13.26,12.35,3.25,19.56,13.99,26.38,20.53,8.82,8.46,20.55,11.47,33.32,13.31,13.12,1.89,21.69,2.3,31.38,7.05,11.34,5.57,18.65,16.41,29.85,27.27,17.73,17.2,25.6,27.44,41.87,38.18,9.28,6.13,20.98,5.4,36.51,6.21,5.29.27,14.92-.98,26.62-2.1,4.21-.4,4.37-3.37,4.37-5.57,0-4.32-.62-16.07-1.61-30.37-.36-5.17-11.39-3.79-24.78-6.87-9.35-2.15-17.67-8.68-26.9-17.08-17.99-16.37-24.02-26.88-34.79-33.25-8.83-5.22-39.51-14.58-63.81-25.34-12.79-5.66-25.5-17.05-35.77-24.53-15.8-11.51-25.36-16.57-32.37-23.98-1.8-1.9-2.71-4.55-2.46-6.45,1.03-7.77,14.28-7.94,23.07-9.68,15.6-3.1,43.48,3.41,54.14,9.03,9.87,5.21,23.29,9.59,34.72,13.05,12.91,3.91,24.56,8.75,40.01,18.16,8.78,5.35,16.26,11.24,27.01,16.08,10.14,4.57,25.48,9.21,36,14.38,8.39,4.13,18.11,7.69,27.42,11.25,10.67,4.08,18.73,14.38,29.48,22.74,16.47,12.81,30.47,21.5,39.57,29.46,11.09,9.7,26.89,16.16,60.18,17.96,19.18,1.04,39.57,8.53,76.25,24.16,48.29,20.58,56.77,32.78,66.89,37.91,9.23,4.67,22.34,14.87,30.12,23.43,7.07,7.79,11.78,16.35,21.6,23.63,13.2,9.78,23.34,11.88,32.49,15.03,13.73,4.72,23.52,10.26,37.93,10.65,20.88.57,35.28-4.89,47.07-9.43,14.19-5.47,24.78-5.95,32.51-2.8,9.98,1.32,32.85,1.02,45.24,1,.35-.78-1.12-2.8-3.56-5.33"/>
  <path class="st3" d="M566.75,560.43c-2.44,1.52-12.01,13.37-20.3,24.92-5.75,8.01-15.42,12.6-29.4,17.46-5.93,2.06-35.74,1.78-77.52,1.41-21.95-.2-28.52-7.3-36.89-13.35-9.96-7.2-19.58-8.77-32.71-9.84-14.81-1.21-23.75,2.45-39.33,7.21-11.72,4.85-21.28,9.02-26.04,11.39-2.17,1.16-3.84,2.22-5.57,3.32"/>
  <ellipse class="st5" cx="41.88" cy="329.71" rx="23.79" ry="34.5" transform="translate(-247.4 166.07) rotate(-53.27)"/>
  <ellipse class="st0" cx="306.37" cy="29.14" rx="19.77" ry="31.57" transform="translate(177 308.38) rotate(-70.57)"/>
  <g id="word4">
    <path class="st6" d="M448.37,642.1l-3.46-3.33v-7.87l3.46-3.14v14.34ZM428.88,627.76l3.46,3.33v7.87l-3.46,3.14v-14.34ZM439.35,650.29l-.16-1.44,2.78.29,6.43,5.95.45,2.75-2.78-.22-6.43-5.95-.29-1.38ZM448.43,643.22v10.43l-3.46-3.1v-4.06l3.46-3.26ZM428.95,653.65v-10.43l3.46,3.1v4.06l-3.46,3.26ZM438.26,650.29l-.29,1.38-6.43,5.95-2.78.22.45-2.75,6.43-5.95,2.78-.29-.16,1.44ZM456.3,643.54l3.46,3.33v7.84l-3.46,3.14v-14.3ZM472.59,657.84l-3.46-3.3v-7.87l3.46-3.14v14.3ZM460.01,644.69c-.75-.6-1.5-1.18-2.27-1.76l2.27-1.7h8.74l2.24,1.7-2.24,1.76h-8.74ZM457.23,626.74h14.3l-3.17,3.46h-7.84l-3.3-3.46ZM456.2,642.42v-14.3l3.46,3.1v7.94l-3.46,3.26ZM472.49,628.11v14.3l-3.46-3.1v-7.9l3.46-3.3ZM485.38,647.63v7.07l-3.46,3.14v-14.3l3.46,4.1ZM492.52,646.8l4.93,5.18-.35,4.61c-3.05-3.2-4.61-4.83-4.67-4.9-.04-.06-.11-.13-.19-.19-.08-.06-.15-.13-.19-.19l-4.83-5.06,5.31.54ZM481.93,643.54l3.46,3.33v7.84l-3.46,3.14v-14.3ZM485.61,644.69c-.75-.62-1.49-1.21-2.24-1.76l2.24-1.7h8.77l2.24,1.7-2.24,1.76h-8.77ZM482.86,626.74h14.27l-3.1,3.46h-7.9l-3.26-3.46ZM481.83,642.42v-14.3l3.46,3.1v7.94l-3.46,3.26ZM498.15,628.11v14.3l-3.46-3.1v-7.9l3.46-3.3ZM487.21,646.26h4.8c.7.75,1.71,1.81,3.01,3.2,1.32,1.36,2.13,2.21,2.43,2.53l-.35,4.61c-3.05-3.2-4.61-4.83-4.67-4.9-.04-.06-.11-.13-.19-.19-.08-.06-.15-.13-.19-.19l-4.83-5.06ZM506.02,643.54l3.46,3.33v7.84l-3.46,3.14v-14.3ZM525.51,657.84l-3.46-3.3v-7.87l3.46-3.14v14.3ZM515.04,635.34l.16,1.41-2.78-.26-6.43-5.98-.45-2.75,2.78.26,6.43,5.92.29,1.41ZM505.95,642.42v-10.46l3.46,3.14v4.06l-3.46,3.26ZM525.44,631.95v10.46l-3.46-3.1v-4.06l3.46-3.3ZM516.13,635.34l.29-1.41,6.43-5.92,2.78-.26-.45,2.75-6.43,5.98-2.78.26.16-1.41Z"/>
  </g>
  <g id="word1">
    <path class="st6" d="M274.89,113.78c.54.41.86,1.04.95,1.88,0,.17,0,.34,0,.51.01.15,0,.31-.06.47-.08.37-.31.82-.71,1.34-.4.52-.67.99-.8,1.41-.12.4-.24.79-.34,1.16-.18.66-.78,1.33-1.77,1.99-.85.65-1.54.91-2.07.78l-.64-.17c-.62-.16-1.11-.38-1.46-.66-.31-.29-.49-.56-.52-.81-.06-.77.23-1.42.86-1.96.13-.11.27-.33.43-.65.15-.32.11-.61-.13-.89-.13-.14-.19-.28-.19-.42.02-.12.04-.23.04-.31.03-.09.03-.16,0-.2,0-.05-.11-.07-.34-.06-.23.01-.37.03-.4.03-.02-.01-.07-.08-.17-.19-.07-.1-.18-.16-.31-.16-.14,0-.31.04-.51.13-.75.38-1.47,1.32-2.16,2.83-.19.46-.37.9-.52,1.3-.42.98-.74,1.62-.95,1.9-.19.29-.46.57-.8.82-.3.25-.6.5-.88.77-.76.65-1.18,1.35-1.26,2.11-.11.94-.16,1.5-.14,1.68.06.29.23.51.49.66.28.13.56.13.84,0,.29-.14.58-.31.86-.48.3-.2.59-.37.88-.51.29-.14.54-.18.74-.1.22.09.47.25.73.48.28.21.47.35.57.42.12.08.21.24.28.48.08.22-.03.56-.32,1.01-.26.44-.48.81-.64,1.1-.15.27-.37.46-.67.57-.29.09-.52.21-.69.35-.14.13-.27.27-.4.41-.29.4-.57.65-.83.76-.25.12-.47.21-.68.27-.18.05-.5-.08-.97-.38-.45-.3-1-.35-1.66-.17-.65.19-1.13.14-1.42-.14-.31-.26-.41-.61-.32-1.05.07-.4-.12-.77-.58-1.1-.12-.11-.23-.22-.32-.34-.08-.14-.19-.26-.33-.39-.13-.14-.24-.31-.33-.51-.25-.47-.35-1.03-.29-1.67.04-.4.04-.74.01-1.04,0-.29,0-.55.01-.79,0-.56.15-1,.44-1.31.74-.86,1.01-1.56.83-2.1-.12-.28-.16-.46-.11-.54.05-.08.12-.27.21-.58.11-.43.39-.84.81-1.23.45-.38.75-.73.9-1.05.17-.34.33-.69.49-1.07.45-.94.81-1.51,1.09-1.72.28-.21.55-.59.83-1.14.3-.54.55-.96.75-1.27.22-.33.47-.78.76-1.35.31-.56.68-1.12,1.12-1.7,1.14-1.44,2.35-2.14,3.62-2.12,1.88.09,2.99.27,3.34.55.12.08.24.19.37.33.16.13.34.23.52.3.18.06.36.1.53.09s.35-.01.53-.03c.75-.12,1.21.11,1.36.68.08.64.18,1.1.28,1.36.17.47.57.95,1.21,1.43ZM280.89,118.41c.34-.05.67-.14.96-.25.31-.13.66-.21,1.04-.24,1.06-.12,1.85.17,2.38.85.64.87,1.28,1.57,1.93,2.11.65.54,1.05,1.05,1.18,1.53.15.49.24.97.27,1.44.08,1.12-.11,2.16-.58,3.11-.2.35-.29.62-.29.82-.03.6-.33,1.23-.9,1.89-.56.67-.92,1.16-1.09,1.47-.14.3-.23.54-.26.71-.01.19-.03.37-.07.55-.09.47-.25.9-.5,1.27-.31.47-.77.84-1.4,1.1-.25.09-.53.4-.82.93s-.6,1.06-.92,1.59c-.82,1.29-1.41,2.03-1.77,2.24-.35.19-.58.29-.7.3-.1.02-.19.03-.27.03-.38-.06-.92.18-1.61.71-.65.52-1.31.88-1.96,1.07-.64.17-1.26.25-1.85.26-.56,0-1-.01-1.33-.03-.32.01-.57.06-.76.13s-.38.14-.56.22c-.46.15-.89.09-1.28-.17-.67-.44-1.05-.92-1.16-1.44-.02-.27,0-.62.06-1.05.05-.72-.05-1.41-.33-2.06-.3-.73-.27-1.51.1-2.33.11-.29.26-.56.44-.8.21-.23.41-.56.61-.99.22-.42.37-.82.46-1.21.09-.39.21-.73.37-1.02.44-.89.46-1.51.05-1.86-.31-.26-.18-.89.4-1.88.3-.5.62-.95.97-1.34.36-.41.68-.74.99-.99.53-.46,1.01-1.09,1.44-1.87.44-.8.89-1.48,1.33-2.03.82-1.03,1.64-1.77,2.46-2.21.37-.18.82-.3,1.34-.38.55-.06,1.08-.12,1.59-.18ZM277.22,128.03c-.12.31-.17.6-.15.87.05.26,0,.59-.18.98-.15.4-.38.82-.68,1.23-.29.4-.56.79-.82,1.18-.24.37-.45.73-.62,1.07-.15.32-.27.63-.36.94-.18.75-.08,1.25.31,1.51.61.4,1.8-.5,3.58-2.69.5-.59,1.08-1.39,1.74-2.39.67-1.02,1.09-1.99,1.25-2.92.18-.95.04-1.57-.41-1.87-.43-.28-1.14-.06-2.12.67-.88.66-1.39,1.13-1.53,1.43ZM290.98,147.72c0,.2-.07.4-.23.61-.13.2-.28.39-.46.58-.16.2-.31.45-.45.75-.13.28-.27.55-.41.82-.11.26-.24.5-.39.71-.14.22-.33.36-.57.42-.21.06-.47.05-.79-.01-.32-.07-.65-.19-.99-.35-.76-.42-1.32-.94-1.67-1.56-.32-.58-.74-.96-1.25-1.16-.5-.19-.9-.31-1.22-.38-.29-.08-.62-.18-1.01-.33-.36-.13-.7-.3-1-.53-.31-.21-.47-.55-.46-1.02.02-.49.16-.97.44-1.44.28-.46.65-.88,1.11-1.24.47-.37.87-.86,1.22-1.47.36-.63.66-1.17.89-1.6.24-.46.49-.83.73-1.12.59-.68.84-1.26.76-1.73-.05-.4.04-.76.26-1.09.23-.35.43-.63.59-.83.16-.2.35-.34.57-.42.22-.08.37-.16.46-.25.12-.09.24-.29.39-.59.58-1.22,1.08-2.12,1.52-2.7.46-.57.79-1.09.99-1.58.24-.49.47-.86.68-1.11.23-.27.37-.53.42-.77.05-.25.11-.4.18-.47.1-.07.19-.2.25-.38.08-.2.16-.41.25-.63.27-.67.49-1.09.67-1.28.2-.18.46-.36.78-.54.35-.19.65-.24.91-.16s.41.12.48.1c.06-.01.2,0,.39.05.49.15.8.34.93.57.13.23.27.4.41.52.16.1.31.21.47.31.19.1.38.18.56.24l.39.17c.49.15.79.38.9.68.05.23.07.4.08.52,0,.12-.06.24-.2.37-.14.13-.21.27-.19.42.01.15-.05.32-.2.5-.13.16-.23.29-.3.39-.03.09-.07.19-.12.3-.09.22-.26.44-.52.67-.26.22-.43.38-.51.46-.07.07-.13.14-.18.22-.17.25-.37.47-.6.66-.2.18-.36.34-.48.48-.09.14-.2.3-.33.5l-.42.65c-.15.24-.37.52-.64.84-.25.34-.56.74-.92,1.21-.33.46-.66.92-1.01,1.4-.93,1.24-1.57,2-1.92,2.27-.43-.03-.75.35-.96,1.14l-.2.75c-.19.72-.47,1.36-.85,1.93-.37.57-.78,1.08-1.23,1.55.36.69.65,1.12.88,1.29.52.45,1.08.71,1.68.77.62.07,1.02.19,1.19.36.19.18.27.38.25.58ZM293.46,155.54c-1.18.09-2.05-.04-2.6-.4-.26-.17-.48-.43-.67-.78-.17-.34-.24-.65-.19-.93.06-.27.18-.53.35-.78.18-.27.37-.57.58-.88.37-.52.6-1.05.71-1.59.11-.55.2-.94.27-1.17.17-.48.54-1.09,1.09-1.85.42-.59.64-.97.66-1.13.03-.18.09-.32.16-.44.08-.12.39-.5.93-1.16,1.32-1.54,1.79-2.47,1.41-2.78-.19-.18-.27-.3-.23-.36.06-.05.09-.21.1-.48.02-.29.05-.51.09-.65.06-.13.17-.32.34-.58.17-.26.35-.47.55-.65.2-.18.41-.35.63-.51,1.53-1.13,2.55-2.25,3.06-3.37.52-1.26.95-2.09,1.31-2.5.39-.42.71-.68.98-.79.29-.09.58-.15.88-.18.31-.05.64-.03.98.05.72.19,1.19.57,1.43,1.15.26.59.55,1.05.87,1.37.32.32.64.6.96.84.82.62,1.28,1.08,1.37,1.37.09.29.2.54.31.75.14.21.26.39.36.53.26.45.38.79.34,1.02-.04.23-.04.46,0,.71.05.23.09.48.13.76.06.68-.03,1.31-.27,1.88-.16.37-.3.7-.43.98-.13.28-.24.56-.34.83-.33.88-.57,1.69-.72,2.43-.32,1.5-.8,2.5-1.46,2.99l-.14.08c-.1.49-.36.93-.77,1.3-.38.37-.67.63-.85.79-.15.15-.35.32-.58.5-.23.18-.52.43-.86.74-.33.29-.63.54-.91.75-.27.19-.53.35-.79.49-.52.28-1.6.6-3.25.98-.52.11-.95.27-1.29.49-.32.24-.66.36-1.01.39-.7.38-1.2.57-1.51.57-.65.05-1.31-.21-1.96-.79ZM301.57,142.31l-1.01,1.73c-.27.5-.59.92-.96,1.26-.36.33-.65.74-.89,1.22-.22.5-.45.9-.69,1.18-.25.29-.39.56-.44.8-.05.25-.17.47-.35.66-.15.18-.3.36-.45.55-.37.48-.46.82-.25,1.02.14.12.34.15.58.08.25-.09.51-.22.78-.41.45-.3.95-.74,1.5-1.33.22-.25.51-.48.87-.69.66-.41,1.08-.74,1.24-.99.18-.27.3-.43.36-.48.07-.07.14-.13.21-.2.09-.05.19-.12.29-.19.1-.07.26-.22.46-.45.22-.25.4-.61.54-1.08.17-.48.19-.94.04-1.4-.13-.45-.19-.8-.19-1.05,0-.25,0-.48-.01-.68-.02-.4-.15-.6-.4-.6-.38.03-.79.38-1.23,1.04Z"/>
  </g>
  <g id="word3">
    <path class="st6" d="M129.29,374.39c.17.04.36.09.57.15.22.04.45.09.68.14.42.12.72.19.9.21.19,0,.39.04.59.12.23.07.41.14.54.2.16.06.38.16.64.29-.02.09-.04.19-.05.3.02.1,0,.2-.05.3-.02.56.04.92.2,1.08.16.15.35.21.56.18.21-.04.41-.11.59-.24.2-.11.32-.16.36-.14l2.34,1.2,1.62,3.02c.1.17.2.38.29.62.09.24.19.52.29.83.18.62.35.96.49,1.01l-.87,1.28s0,.05.06.1c.05.05.07.14.08.26.04.11.03.27-.02.46-.03.2-.15.45-.35.75-.4.64-.7,1.22-.9,1.77-.21.54-.39.97-.56,1.3,0,.02-.26.02-.76,0-.48-.05-.82.13-1.04.55-.08-.07-.35-.19-.78-.37-.41-.18-.87-.29-1.38-.31l-1.47-.14-1.74-.89c-.36-.18-.7-.3-1.01-.34-.31-.06-.57-.09-.79-.08-.22,0-.4.04-.54.08-.13.03-.36-.04-.68-.21-.07.23-.1.39-.11.49-.14.14-.34.32-.59.52-.22.2-.36.35-.4.44-.06.11-.14.28-.25.49-.09.22-.21.49-.35.83-.16.35-.38.6-.67.74-.28.12-.45.25-.52.38-.07.28-.16.58-.28.9-.09.31-.18.63-.27.94l-.85.61s-.09-.01-.13-.03c-.02-.01-.05-.02-.1-.02-.49-.08-.84-.18-1.07-.3-.04-.02-.11-.06-.23-.12-.09-.07-.19-.14-.31-.23-.12-.09-.24-.16-.36-.22-.1-.08-.17-.13-.21-.15-.04-.02-.15-.01-.33.01-.16.04-.34.05-.53.05l-.54-.64c.12-.32.27-.67.47-1.05.21-.37.37-.7.47-.98.1-.05.25-.16.46-.34.22-.2.42-.52.6-.95.19-.46.38-.8.57-1.04s.33-.43.41-.58c.03-.06.08-.22.15-.5.1-.29.2-.5.29-.64.05-.05.14-.1.26-.15.12-.06.22-.16.3-.31.29-.62.53-1.11.72-1.47s.34-.75.46-1.17c.02-.09.07-.16.15-.21.11-.07.2-.18.28-.33.08-.15.32-.47.71-.97.42-.5.84-1.28,1.24-2.35.41-1.04.73-1.84.95-2.42.22-.58.38-.92.45-1.03.14-.19.24-.35.28-.47.04-.12.12-.3.24-.53l.85-.68ZM132.5,387.29c.05-.1.36-.24.93-.42.58-.16.91-.3.98-.43l.96-2.78.22-1-1.05-3.99-1.08-.56-.51-.41h-.29c-.1.09-.45.74-1.06,1.93-.62,1.26-.99,1.98-1.1,2.14-.49.01-.82.38-1,1.11-.15.71-.41,1.2-.79,1.47-.09.03-.16.1-.22.21-.14.27-.24.47-.31.6-.04.12-.14.3-.31.53,0,.02-.03.08-.06.18-.01.11-.06.27-.13.47l1.27.26c-.1.19.32.29,1.26.29.49-.02.86-.02,1.12,0,.26.01.4.03.44.05l.71.36ZM136.09,400.17c.07-.09.12-.17.16-.24.07-.08.13-.17.2-.26.52-.74.86-1.25,1-1.54.03-.06.06-.16.09-.31.05-.14.08-.25.09-.31l3.51-6.22c-.03-.18.04-.36.2-.54.17-.2.33-.3.48-.3.21-.23.47-.48.78-.75.33-.26.58-.62.77-1.08.09-.22.19-.38.32-.48.14-.12.23-.19.29-.21l.35-.11c.23-.07.38-.16.46-.27.09-.12.13-.26.13-.4,0-.14-.03-.27-.1-.37-.04-.11-.08-.21-.14-.29-.03-.09-.04-.14-.03-.16.1-.1.16-.18.2-.26.04-.08.03-.19-.04-.34l.41-.65c.16-.08.37-.06.62.06.27.12.49.22.64.29.06.03.15.08.29.15.14.05.3.12.47.2l.53.23c.11.03.19.06.24.09.08.04.14.07.2.1l.39.02c.17,0,.3,0,.37.05.06.03.15.11.27.25.15.13.29.29.42.5l-1.56,2.69-1.52,2.27c-.04.08-.17.21-.39.41-.21.18-.4.32-.58.42-.06.02-.11.08-.17.2-.05.1-.11.21-.18.34-.04.12-.09.24-.15.36-.04.12-.08.21-.13.26l-1.26,1.98s-.06.07-.11.08c-.03,0-.09.06-.19.15-.07.09-.17.21-.3.38-.14.17-.3.42-.49.75-.41.7-.7,1.19-.89,1.45-.18.27-.29.42-.3.45-.1.19-.11.35-.03.49.09.14.1.29.02.44-.12.04-.17.19-.16.46.03.28.19.53.48.75.29.22.66.39,1.11.5.46.09.93.24,1.43.44.17.09.27.16.28.22.04.07.06.14.07.22.04.07.1.16.18.27.11.11.34.26.67.45.08.04.25.05.51.05.29,0,.47-.13.56-.4.15.08.36.15.61.21.28.07.55.15.81.24.27.09.49.2.65.34.18.12.26.27.22.47l-.1.49s-.07.07-.1.13c-.02.04-.05.08-.1.13-.07.08-.16.2-.29.35-.12.13-.25.29-.39.48-.42-.17-.64-.27-.67-.31-.03-.04-.06-.07-.1-.09-.06-.03-.17-.04-.34-.03-.14,0-.26,0-.36,0-.12-.04-.33-.11-.61-.21-.27-.09-.6-.21-1-.37-.23-.07-.42-.13-.59-.19-.13-.07-.25-.12-.36-.15-.09-.02-.19-.06-.3-.12-.02,0-.09-.03-.21-.07-.11-.06-.25-.13-.4-.2l-.85-.44c-.36-.23-.62-.4-.78-.51-.14-.1-.26-.16-.37-.19-.08-.04-.17-.05-.27-.03-.08,0-.25.02-.52.02-.09-.02-.23-.08-.44-.19l-1.22-.63c-.14-.1-.26-.17-.36-.22-.07-.06-.14-.12-.23-.19l-1.29-.23c-.25-.17-.4-.4-.45-.66-.05-.27-.08-.53-.06-.79ZM171.88,397.76l.53.09.84.11,1.36,1.35-.08.71c-.68.68-1.34,1.37-1.95,2.06-.62.69-1.1,1.53-1.44,2.53-.08.06-.19.17-.35.33-.14.17-.27.36-.39.55-.1.19-.18.39-.24.6-.03.2.02.37.14.5l-2.02,2.96-2.27,2.68-2.71,2.28c-.18.12-.51.13-.99.03-.46-.09-1.05-.27-1.77-.55-.69-.28-1.49-.64-2.39-1.08-.88-.43-1.84-.92-2.88-1.47l-.66-1.17-.94-.48c-.23-.12-.52-.73-.88-1.85-.09-.29-.17-.53-.24-.73-.06-.22-.11-.4-.15-.55-.02-.11-.05-.24-.11-.42.05-.1.12-.27.21-.54.12-.28.23-.64.34-1.08.14-.41.18-.72.12-.94-.04-.24-.05-.41-.02-.52.02-.09.09-.22.2-.4.15-.19.27-.38.36-.57.13-.2.21-.38.25-.56.06-.16.02-.28-.11-.34l1.03-1.59c.23-.22.49-.55.77-1.01.31-.46.59-.96.83-1.48.23-.5.42-.86.55-1.08.14-.22.32-.45.57-.68l.62-.65c.25-.02.44-.09.57-.21.16-.13.27-.28.33-.44.09-.17.12-.33.1-.49,0-.17-.05-.3-.12-.39-.13-.11-.15-.26-.07-.43.12-.18.19-.26.23-.24.15-.19.23-.35.25-.48,0-.05.17-.39.5-1.04l.76.06c.23.12.49.19.79.22.29.03.58.13.86.29.15.08.34.2.57.36.23.16.45.34.67.52.25.17.46.33.65.48.21.15.36.27.47.35l.2.53c-.16.18-.29.33-.38.45-.09.12-.15.23-.2.33-.04.08-.07.18-.09.31l-.7,1.65s-.05.05-.14.14c-.07.04-.14.09-.23.17-.08.06-.16.13-.26.23-.21.18-.4.34-.58.49-.14.14-.27.29-.38.45-.07.09-.18.28-.34.58-.13.29-.28.69-.47,1.2-.1.24-.2.46-.31.67-.08.2-.16.38-.24.53l-.25.48c-.3.02-.52.2-.68.55-.16.35-.3.76-.44,1.21-.02.09-.1.19-.23.31-.11.11-.24.26-.4.44-.16.18-.33.39-.51.64s-.33.55-.47.91c-.14.36-.27.69-.4.98-.12.27-.22.52-.31.74-.04.12-.09.24-.15.36-.06.11-.11.22-.16.31l.99,1.08,3.25,2.49,1.49-.03c.18.12.41.09.69-.08.3-.16.55-.34.75-.55l2.91-3.72.52-2.14,3.8-6.57,1.01-.78ZM171.13,416.29l3.49,1.18,3.57.68,1.35-.82.32-1.39-.27-1.29c-.14-.24-.3-.47-.46-.7-.14-.24-.31-.45-.51-.62-.17-.18-.37-.32-.61-.42-.21-.11-.45-.15-.73-.12l-.98.15-1.79-2.32.27-2.63,2.62-3.29,2.2-1.07c-.01.16.08.27.27.32.19.05.4.06.63.04.23-.03.44-.09.63-.18.2-.11.31-.25.32-.41.37.07.79.16,1.26.28.48.1.92.12,1.33.07l4.07,1.11.63.25.21.86-1.08.99-1.2-.25-1.44-.56h-2.62s-1.61.74-1.61.74c-.45.13-.76.36-.94.71-.15.33-.24.73-.28,1.19-.01.54,0,.91.02,1.09.06.17.14.35.27.53l1.39,1.43c.11.25.22.46.32.63.13.16.3.31.5.43.2.13.48.3.85.51.39.22.88.51,1.47.86,0,.41.06.8.16,1.16.11.35.17.76.19,1.25l-.09,1.57-2.31,2.41-1.06.39-2.43,1.31-.71-.36c-.25-.13-.56-.27-.93-.44-.34-.18-.75-.38-1.22-.63-.47-.24-.92-.41-1.33-.5-.41-.09-.79-.15-1.13-.18-.33-.05-.62-.09-.87-.12-.25-.03-.45-.1-.61-.21l-.87-.84-1.85-.59.03-1.53.54-.62,1.06-.03ZM196.09,421.96l.52-1.85.39-.12,1.48.76c.13.07.29.14.46.23.19.1.4.22.64.36l2.69,1.13c.26.14.52.25.75.35.24.1.48.15.71.15.07-.04.15-.06.24-.05.1-.02.27-.13.49-.32l.62-.94c.11.11.22-.09.31-.6.03-.25.07-.43.11-.56.07-.13.17-.17.3-.1.12-.15.3-.35.52-.6.23-.26.47-.55.72-.85.28-.31.55-.63.81-.95.27-.34.52-.66.74-.95l2.16.21c.22.09.46.18.73.27.27.09.54.18.83.28.27.09.49.17.67.24.21.06.4.11.57.15l.32.85-.74,1.45c-.39.11-.76.26-1.09.45-.33.17-.59.39-.78.68l-.38.53c-.2.3-.44.61-.7.94-.24.33-.44.54-.61.62l-.2.18-.11.56c-.03.11-.02.15.04.13.03,0,.06,0,.08.04-.12.1-.27.22-.43.35-.16.13-.35.29-.56.47-.21.13-.35.25-.4.37-.05.1,0,.16.16.19-.02.04-.19.31-.5.83-.29.52-.76,1.3-1.41,2.33-.31.51-.55.89-.73,1.14-.15.24-.26.41-.33.51-.05.1-.09.15-.12.16-.01.02-.03.06-.06.11-.28.22-.52.43-.72.64-.18.22-.3.37-.35.47-.05.05-.07.12-.07.21.02.1.03.2.03.3.02.15.04.27.07.36l-.37,1-1.09.38-4-1.26h-.03s-.4-1.05-.4-1.05c.05-.05.11-.12.19-.23s.16-.23.26-.37c.17-.25.29-.42.33-.51.07-.08.15-.24.23-.46.04-.12.22-.41.55-.87.34-.47.74-1.1,1.21-1.86.9-1.48,1.28-2.26,1.12-2.34-.1-.05-.02-.24.22-.57-.11-.06-.25-.12-.41-.18-.15-.08-.25-.12-.3-.12-.47-.02-.89-.09-1.27-.18-.35-.11-.62-.21-.81-.31-.13-.07-.35-.24-.64-.51-.28-.29-.73-.58-1.35-.87l-1.11-.5-.21-.29ZM189.92,428.04l-1.18-.57-1.17-.6-.27-.1-1.12-1.26c.12-.18.24-.38.38-.6.14-.22.29-.47.46-.77.33-.55.58-.99.74-1.31.19-.33.32-.55.38-.67l.45-.88c.18-.34.2-.55.06-.61l1.02-1.49c.54-.49,1.07-1.18,1.59-2.06.3-.49.64-1.02,1.02-1.57.41-.56.76-.98,1.07-1.25l.86-1.39c.12.09.22-.1.29-.57.11-.49.29-.68.54-.55.15-.21.29-.39.39-.55.14-.17.24-.33.32-.48.1-.24.32-.6.67-1.1l.46.02c.2.22.51.48.94.77.44.3.85.58,1.22.84.23.17.43.3.61.42.19.1.35.19.47.28l.12.74-.61.98c-.6.89-.84,1.36-.73,1.42-.47.31-.87.65-1.2,1-.31.37-.6.7-.87.99-.22.25-.54.78-.96,1.59-.11.21-.16.38-.15.5.02.11.07.2.14.29.1.1.19.16.3.19-.17.06-.36.16-.56.32-.19.14-.41.33-.65.57-.23.22-.46.46-.69.72-.2.26-.4.52-.58.78-.17.25-.3.48-.36.71-.08.2-.17.47-.27.8s-.21.7-.34,1.08c-.13.39-.28.79-.44,1.21-.17.42-.34.81-.53,1.17-.32.05-.52.31-.61.77v.07s-1.22.13-1.22.13Z"/>
  </g>
  <g id="word2">
    <path class="st6" d="M123.15,219.72c-.96-.53-1.71-1.15-2.24-1.84-.51-.7-.86-1.41-1.05-2.14-.17-.73-.22-1.4-.16-2.03.07-.62.21-1.11.42-1.49.18-.33.38-.52.59-.57.23-.06.47-.02.72.12.25.14.4.32.45.54.06.23.06.51,0,.84-.1.6-.1,1.19,0,1.77.1.58.34,1.13.71,1.63.38.51.91.96,1.61,1.35.89.49,1.73.67,2.52.54.81-.14,1.42-.58,1.82-1.31.35-.62.46-1.22.34-1.77-.11-.56-.38-1.12-.78-1.66-.39-.55-.85-1.1-1.38-1.66-.52-.56-1.03-1.15-1.52-1.78-.49-.62-.88-1.3-1.18-2.03-.29-.72-.41-1.52-.36-2.39.06-.87.38-1.83.96-2.89.68-1.22,1.49-2.12,2.45-2.68.96-.57,2.02-.81,3.17-.73,1.16.07,2.36.45,3.61,1.14,1.11.62,1.97,1.27,2.59,1.96.62.69,1.04,1.38,1.26,2.05.24.67.34,1.28.3,1.83-.04.55-.15.99-.33,1.32-.22.4-.49.64-.81.7-.31.06-.61.01-.89-.14-.29-.16-.48-.4-.57-.72-.09-.33-.17-.69-.24-1.09-.07-.39-.21-.78-.45-1.18-.23-.41-.63-.77-1.21-1.09-.68-.38-1.32-.48-1.93-.32-.6.17-1.07.57-1.42,1.21-.31.56-.47,1.11-.48,1.63,0,.54.08,1.07.26,1.61.19.53.42,1.07.68,1.6.28.53.54,1.08.79,1.64.26.57.45,1.16.58,1.79.15.62.17,1.26.08,1.93-.08.68-.33,1.39-.75,2.15-.43.77-.94,1.41-1.53,1.9-.58.5-1.22.84-1.93,1.04-.71.19-1.46.23-2.25.11-.79-.13-1.61-.43-2.46-.9ZM126.62,209.42c.69.38,1.2.28,1.52-.29.17-.31.22-.58.16-.82-.06-.25-.22-.45-.5-.61-.35-.19-.64-.25-.87-.17-.23.08-.42.27-.59.57-.14.26-.19.52-.13.77.06.25.2.44.42.56ZM126.33,206.3c.36.2.69.25.97.16.3-.1.53-.3.69-.59.2-.36.26-.68.18-.95-.08-.28-.31-.52-.68-.72-.35-.19-.65-.25-.91-.17-.25.07-.47.3-.69.68-.19.34-.23.65-.15.93.1.29.29.51.58.67ZM128.12,203.34c.35.2.66.26.91.2.26-.08.48-.27.65-.57.18-.33.24-.6.16-.82-.07-.23-.3-.46-.69-.67-.22-.12-.46-.16-.71-.1-.25.05-.46.23-.64.56-.15.28-.21.55-.15.81.06.27.22.47.47.61ZM136.13,208.22c-.22-.12-.37-.28-.43-.48-.06-.2-.02-.43.12-.68.13-.24.31-.38.53-.42.22-.03.46.01.69.14.22.12.34.28.37.49.04.21,0,.42-.11.63-.12.22-.29.37-.49.42-.2.06-.43.02-.67-.11ZM127.59,219.51l1.55-.49c.52,1.12.87,1.97,1.07,2.57.2.59.27,1.01.22,1.26-.04.25-.17.42-.39.51-.27.12-.52.1-.75-.07-.21-.17-.45-.54-.73-1.13-.26-.59-.58-1.47-.97-2.64ZM124.8,219.46l2.03.17c-.1,1.55-.21,2.72-.33,3.51-.12.8-.28,1.32-.47,1.58-.18.26-.43.38-.74.34-.33-.04-.56-.22-.69-.54-.12-.31-.16-.86-.12-1.66.05-.79.16-1.93.33-3.4ZM122.11,218.38l1.59.95c-.63,1.37-1.14,2.39-1.52,3.07-.37.69-.68,1.11-.95,1.28-.27.18-.57.19-.91.03-.28-.14-.43-.38-.45-.71-.03-.32.13-.84.47-1.57.35-.71.93-1.73,1.77-3.06ZM120.27,216.67c.08-.03.15-.06.23-.09.09-.03.16-.05.22-.06.25-.07.45-.06.61.05.16.1.28.24.34.41.11.18.14.38.09.6-.03.21-.14.36-.33.44-.05.02-.11.05-.18.09-.06.03-.12.05-.18.09-1.03.45-1.81.74-2.33.85-.53.12-.9.13-1.12.04-.21-.09-.34-.22-.41-.39-.06-.16-.04-.35.04-.54.09-.19.36-.41.8-.65.45-.24,1.18-.51,2.2-.81ZM121.21,213.78l-.31,1.55c-.98-.06-1.75-.12-2.29-.19-.53-.07-.9-.19-1.11-.34-.2-.15-.29-.37-.26-.66.04-.34.19-.57.45-.68.27-.12.69-.14,1.25-.08.57.07,1.33.2,2.27.4ZM136.24,227c-.12-.07-.23-.15-.31-.26-.09-.11-.15-.24-.21-.39-.03-.12-.05-.24-.04-.39,0-.14.04-.32.1-.55.08-.23.2-.52.37-.9.17-.37.4-.85.68-1.43.12-.24.23-.47.34-.69.11-.22.22-.43.32-.65.09-.18.18-.36.26-.53.1-.18.19-.35.27-.53.12-.25.24-.49.36-.72.12-.22.24-.45.34-.67.05-.08.09-.17.12-.26.05-.08.09-.17.14-.25.05-.09.09-.18.12-.26.05-.09.1-.18.13-.27.05-.09.1-.18.13-.27.05-.09.1-.18.13-.27.24-.48.48-.97.72-1.47.26-.51.52-1.04.79-1.59.29-.59.4-1.11.34-1.57-.05-.46-.21-.88-.46-1.26-.25-.39-.53-.77-.85-1.15-.31-.37-.58-.75-.81-1.14-.23-.4-.36-.83-.39-1.31-.01-.48.15-1.03.48-1.63.28-.51.6-.89.93-1.13.35-.25.73-.36,1.17-.32.44.04.96.22,1.54.54-.63.93-.97,1.62-1.02,2.05-.04.43.08.72.36.87.31.17.63.14.96-.09.34-.24.79-.86,1.37-1.88.25.14.51.28.78.43.27.15.53.29.78.43-.49.82-.84,1.46-1.06,1.92-.21.46-.29.81-.26,1.04.03.24.15.41.38.54.2.11.41.12.64.04.24-.09.52-.33.84-.72.32-.4.71-1.01,1.17-1.84,1.25.69,2.25,1.26,3,1.71.76.44,1.31.81,1.66,1.1.37.29.57.55.61.78.06.23.01.48-.14.75-.16.29-.4.44-.73.46-.31.01-.68-.05-1.1-.19-.41-.14-.85-.3-1.31-.47-.45-.18-.91-.31-1.37-.41-.44-.1-.86-.1-1.26,0-.39.1-.72.37-.99.8-1.55,2.4-2.84,4.42-3.87,6.07-1.03,1.64-1.87,2.98-2.53,4.01-.64,1.03-1.15,1.83-1.52,2.39-.37.56-.67.96-.88,1.19-.21.23-.39.36-.55.41-.09.03-.21.04-.35.03-.12-.02-.24-.06-.34-.11ZM147.24,217.03c-.4-.22-.69-.56-.85-1-.16-.44-.1-.91.18-1.42.29-.52.66-.87,1.12-1.03.46-.16.98-.08,1.58.25.47.26.76.62.88,1.09.12.46.07.9-.16,1.32-.34.62-.73.98-1.18,1.1-.43.12-.96.02-1.56-.32ZM138.5,224.11l1.03-2.06c1.14.57,2,1.02,2.59,1.36.59.34.96.64,1.12.89.16.26.16.54-.01.85-.21.37-.47.58-.78.61-.3.03-.75-.09-1.37-.37-.6-.28-1.46-.71-2.58-1.28ZM141.59,215.88l-1.21,2.11c-1.2-.68-2.12-1.21-2.75-1.61-.63-.4-1.04-.75-1.21-1.05-.16-.31-.13-.65.07-1.02.21-.38.5-.56.87-.54.38.02.91.21,1.58.58.68.36,1.56.88,2.64,1.54ZM154.62,228.72c-.06-.04-.13-.07-.2-.11-.06-.03-.12-.07-.2-.11-.25-.14-.4-.32-.46-.53-.04-.21-.02-.39.06-.54.09-.16.23-.26.41-.32.2-.06.42-.02.65.11.08.05.17.1.27.15.09.05.18.1.27.15.22.12.36.27.4.44.05.16.02.32-.06.48-.09.17-.25.29-.46.37s-.44.05-.68-.09ZM156.21,223.67c-.06-.03-.11-.06-.17-.09-.06-.03-.11-.06-.17-.09-.32-.18-.48-.38-.48-.62,0-.24.07-.48.19-.71.1-.19.25-.32.45-.41.19-.09.39-.07.6.04.08.05.17.1.27.15.09.05.18.1.27.15.22.12.36.3.42.54.06.23.01.48-.14.75-.14.25-.29.42-.46.5-.15.07-.41.01-.77-.19ZM153.7,217.75c.45.25.72.55.81.92.1.36,0,.79-.28,1.31-.22.39-.49.63-.82.72-.33.09-.7.02-1.11-.21-.48-.26-.76-.6-.87-1.01-.09-.41,0-.86.26-1.34.22-.39.5-.61.86-.66.37-.04.75.05,1.15.27ZM143.97,230.06c.18-.33.39-.52.63-.58.26-.07.59-.06.99.02.26.04.51.11.77.19.27.08.56.15.87.21.5.09.89.1,1.17.03.28-.07.56-.27.81-.57.07-.07.12-.15.17-.21.06-.06.12-.14.17-.21.94.79,1.64,1.22,2.09,1.28.46.06.78-.1.99-.46.16-.27.11-.56-.14-.88-.24-.32-.82-.78-1.73-1.4.21-.25.42-.49.62-.73.21-.23.41-.48.6-.75.6.38,1.1.66,1.48.82.39.15.69.21.91.17.23-.03.4-.16.52-.39.16-.29.12-.6-.11-.92-.22-.33-.72-.77-1.51-1.31.74-.91,1.46-1.83,2.18-2.76.73-.94,1.44-1.88,2.14-2.82.29-.39.4-.67.34-.85-.06-.18-.26-.35-.62-.51-.5-.26-.92-.46-1.26-.6-.33-.13-.73-.31-1.19-.53-.52-.27-.91-.56-1.17-.86-.25-.31-.24-.68,0-1.13.21-.38.53-.59.94-.61.43-.02,1,.13,1.72.44,1.06.46,2.31,1,3.74,1.63,1.43.62,2.78,1.23,4.03,1.83.63.29,1.05.57,1.26.84.22.27.22.6,0,.99-.18.34-.45.54-.81.6-.35.06-.76.06-1.24,0-.38-.05-.77-.12-1.18-.21-.4-.09-.89-.17-1.45-.25-.4-.06-.7-.04-.9.07-.18.11-.33.31-.46.6-.95,2.11-1.86,4.24-2.74,6.38-.88,2.15-1.74,4.3-2.58,6.47-.12.33-.16.62-.12.85.06.23.21.46.44.68.21.19.4.35.57.48.17.13.35.29.55.47.24.21.43.43.57.68.16.25.14.53-.04.86-.16.29-.36.47-.59.53-.23.06-.48.04-.77-.06-.29-.1-.6-.24-.93-.43-.12-.07-.32-.18-.59-.32-.26-.15-.55-.33-.9-.53-.1-.06-.21-.12-.31-.19-.11-.07-.22-.14-.34-.21-.11-.06-.23-.13-.35-.19-.12-.07-.25-.14-.39-.22-.12-.08-.25-.16-.38-.23-.12-.08-.26-.16-.4-.24-.22-.13-.44-.26-.68-.39-.22-.12-.44-.25-.66-.39-.14-.09-.3-.18-.45-.27-.14-.09-.29-.18-.44-.26-.13-.09-.28-.17-.43-.25-.1-.06-.21-.12-.32-.18-.1-.07-.2-.13-.3-.18-.1-.07-.19-.12-.29-.18-.32-.2-.6-.38-.86-.53-.25-.15-.44-.27-.59-.36-.49-.31-.85-.61-1.09-.91-.23-.31-.24-.65-.04-1.03ZM163.73,243.66c-1.43-.79-2.49-1.83-3.18-3.11-.69-1.29-.94-2.8-.77-4.52.18-1.72.85-3.62,2.01-5.73,1.23-2.22,2.69-3.92,4.38-5.11,1.7-1.19,3.46-1.87,5.28-2.01,1.83-.16,3.56.21,5.18,1.11.76.42,1.39.91,1.89,1.47.51.55.81,1.17.91,1.86.11.68-.06,1.43-.5,2.23-.45.82-1.02,1.43-1.69,1.83-.67.4-1.32.42-1.96.07-.14-.08-.27-.15-.39-.22-.11-.07-.22-.16-.33-.26.88-.99,1.5-1.75,1.86-2.28.37-.53.55-.92.54-1.18,0-.25-.09-.45-.28-.59-.19-.14-.42-.18-.69-.11-.26.07-.62.35-1.07.84-.44.47-1.03,1.24-1.75,2.31-.19-.14-.44-.31-.74-.52-.29-.2-.55-.35-.77-.46.54-.89.91-1.56,1.11-2.04.21-.47.29-.81.24-1.02-.05-.21-.2-.38-.44-.5-.21-.1-.43-.12-.66-.03-.22.07-.49.32-.79.73-.29.41-.65,1.07-1.08,1.96-.57-.16-1.21-.14-1.92.06-.69.19-1.39.58-2.09,1.17-.69.58-1.31,1.38-1.88,2.4-.81,1.46-1.29,2.83-1.43,4.11-.14,1.27-.01,2.38.39,3.32.41.93,1.03,1.63,1.88,2.1.09.05.18.1.27.15.1.04.19.08.28.12.1.03.2.07.29.1.1.03.2.06.3.09.15.04.3.08.45.1.16.03.33.06.48.09.1,0,.19.01.28.03.1,0,.19,0,.27,0,.07,0,.14,0,.21-.01.08,0,.15-.01.21-.01.07,0,.14,0,.2,0,.06-.03.12-.04.18-.03.06,0,.12-.01.18-.03.07-.02.16-.04.25-.06.52-.15.94-.24,1.25-.28.32-.03.61.03.87.17.24.13.38.33.43.58.05.26,0,.52-.13.77-.26.47-.66.82-1.2,1.07-.54.24-1.16.38-1.87.41-.71.02-1.45-.06-2.24-.25-.78-.19-1.53-.48-2.26-.88ZM172.34,224.18c0,.05.01.12.01.21.01.09.01.18.01.28-.01.2-.16.36-.44.47-.28.1-.58.16-.9.18-.31.01-.54-.02-.69-.11-.05-.03-.09-.05-.14-.08-.04-.04-.07-.08-.09-.14-.01-.04-.03-.11-.06-.2-.02-.1-.03-.17-.04-.22-.03-.33.05-.6.24-.8.19-.2.45-.31.75-.33.31-.04.6.02.86.16.13.07.23.16.31.26.09.1.15.21.17.32ZM159.79,233.37c.64.05,1.43.13,2.35.24.93.11,1.86.24,2.81.4.38.05.68.18.87.37.2.19.29.43.27.7,0,.32-.11.57-.35.76-.22.18-.55.28-.98.28-.95-.02-1.91-.04-2.86-.08-.94-.04-1.79-.09-2.53-.16-.61-.04-1.06-.18-1.37-.41-.29-.23-.4-.56-.35-.98.05-.41.25-.71.58-.92.34-.2.86-.27,1.54-.21ZM168.37,236.72c-.39-.22-.64-.52-.74-.9-.1-.39-.02-.83.26-1.34.23-.42.56-.69.98-.81.43-.13.91-.04,1.45.25.42.23.68.54.77.92.11.38.05.77-.19,1.2-.31.56-.67.89-1.07,1-.39.11-.88,0-1.47-.32ZM168.82,243.05c.02.1.03.2.02.32.01.11,0,.22,0,.31-.03.35-.22.56-.58.61-.35.06-.66.02-.93-.13-.13-.07-.23-.17-.31-.3-.07-.12-.11-.25-.12-.38,0-.06,0-.12,0-.19.01-.07.02-.12.02-.17l1.91-.08ZM166.02,244.02c-.2.54-.42,1.08-.64,1.62-.23.54-.47,1.09-.73,1.65-.2.41-.45.66-.73.75-.29.1-.63.04-1.03-.19-.31-.17-.49-.4-.55-.69-.05-.28.02-.65.21-1.11.21-.47.43-.96.67-1.48.24-.52.49-1.05.78-1.6.15-.28.38-.44.66-.47.29-.04.55.01.78.14.24.13.43.32.55.56.12.24.13.51.02.82ZM172.23,248.44c1.35-3.01,2.76-6.09,4.24-9.25,1.48-3.17,2.96-6.21,4.43-9.14.33-.66.71-1.12,1.13-1.38.44-.27.97-.23,1.59.11.62.34.92.76.91,1.26,0,.5-.15,1.04-.46,1.63-.44.86-.93,1.75-1.49,2.69-.55.93-1.08,1.89-1.59,2.88-.2.4-.22.69-.07.88.16.19.46.23.9.13,2.18-.5,4.38-1.04,6.6-1.62s4.25-1.07,6.09-1.49c.36-.08.68-.12.97-.12.29-.01.52.03.7.13.13.07.24.18.32.31.09.13.14.28.15.43.01.15-.02.3-.1.44-.11.2-.29.38-.54.54-.24.17-.52.32-.85.44-1.17.48-2.5.98-4.01,1.5-1.5.52-3.04,1.1-4.63,1.72-.29.11-.51.27-.67.49-.15.22-.2.5-.17.84.31,2.24.55,4.1.74,5.58.2,1.47.34,2.66.43,3.55.11.89.17,1.57.19,2.04.02.47,0,.82-.04,1.04-.03.21-.09.39-.16.53-.19.34-.45.55-.79.64-.33.1-.66.05-.99-.13-.19-.1-.38-.27-.58-.5-.21-.22-.48-.62-.83-1.17-.34-.55-.82-1.37-1.43-2.44-.61-1.07-1.41-2.49-2.42-4.28-.26-.47-.49-.82-.68-1.05-.18-.23-.39-.42-.63-.55-.34-.19-.65-.21-.94-.08-.29.12-.55.39-.81.8-.41.68-.82,1.38-1.2,2.08-.38.71-.69,1.25-.93,1.64-.35.57-.69.95-1.01,1.14-.33.2-.68.19-1.07-.02-.35-.19-.53-.48-.57-.86-.03-.38.06-.83.29-1.34ZM188.81,246.16c-.5-.28-.82-.63-.94-1.05-.12-.42-.03-.9.27-1.44.23-.42.55-.7.94-.85.41-.15.86-.09,1.33.17.5.28.84.63,1.01,1.05.17.41.15.83-.09,1.25-.32.57-.71.92-1.18,1.05-.47.12-.92.06-1.35-.18ZM191.49,234.27c.4.88.78,1.79,1.12,2.74.36.94.69,1.88,1.01,2.83.2.56.27,1.02.22,1.39-.04.37-.27.63-.69.79-.44.18-.81.14-1.1-.13-.29-.27-.54-.67-.76-1.21-.39-.97-.77-1.93-1.15-2.88-.36-.96-.69-1.94-.99-2.94-.15-.48-.17-.88-.09-1.2.1-.31.33-.52.68-.63.35-.12.67-.06.96.18.3.24.56.59.78,1.07ZM189.25,237.63l-2.14.57c-.1-.22-.08-.45.04-.69.12-.25.39-.42.8-.52.39-.14.69-.12.9.06.21.18.34.37.4.59ZM174.55,246.29c.11.05.2.1.28.15.09.05.19.1.28.15.24.13.39.3.43.51.05.2-.01.45-.18.76-.19.34-.38.54-.59.63-.2.08-.43.06-.67-.08-.08-.05-.16-.09-.24-.13-.07-.04-.15-.09-.24-.13-.26-.15-.44-.34-.54-.57-.1-.25-.05-.54.14-.89.18-.33.38-.51.61-.54.24-.04.48,0,.71.14ZM182,232.09c-.22-.12-.37-.27-.43-.46-.06-.18-.04-.35.05-.52.12-.22.26-.35.42-.39.16-.05.39,0,.67.15.14.08.23.19.26.35.05.16.02.33-.09.52-.11.2-.24.33-.4.4-.16.06-.32.04-.49-.05ZM182.62,247.83c.25.14.53.16.83.06.32-.11.57-.33.76-.68.15-.28.2-.57.13-.86-.07-.29-.23-.51-.5-.66-.45-.25-.82-.33-1.11-.25-.29.08-.53.3-.73.66-.18.32-.22.63-.15.93.09.31.34.57.76.81ZM181.01,243.68c.36.2.74.23,1.12.09.39-.14.68-.36.85-.68.26-.48.32-.93.18-1.35-.14-.43-.43-.77-.88-1.02-.34-.19-.7-.22-1.09-.11-.39.1-.69.36-.91.76-.23.42-.3.84-.22,1.25.09.4.41.76.95,1.06ZM197.62,239.59c.02-.39.06-.69.1-.91.05-.23.12-.42.2-.57.12-.21.27-.37.46-.46.19-.1.38-.15.59-.13.21,0,.39.05.56.14.24.14.42.36.54.68.12.31.19.7.19,1.17.04.95.03,1.93-.01,2.94-.05,1.01-.05,2.03-.03,3.06,0,.38.06.72.15,1.02.09.29.26.51.5.64.22.12.5.17.84.13.34-.04.73-.14,1.15-.3,1.26-.46,2.51-.93,3.75-1.42,1.24-.5,2.46-.97,3.67-1.41.5-.19.93-.28,1.31-.26.4.01.73.09,1,.24.28.15.49.36.62.62.15.25.22.53.22.83,0,.3-.07.59-.24.89-.15.27-.36.53-.62.79-.26.26-.54.5-.87.71-.47.3-.95.6-1.43.91-.48.29-1.03.62-1.65.97-.6-.96-1.09-1.58-1.47-1.87-.36-.29-.72-.31-1.07-.08-.21.14-.34.33-.39.57-.03.24.04.55.2.95.18.39.5.9.95,1.53-.23.14-.48.28-.73.42-.24.14-.46.27-.68.41-.16.09-.32.19-.47.29-.14.09-.28.19-.43.28-.17.1-.33.21-.5.31-.16.09-.32.19-.48.28-.19.12-.37.23-.55.34-.17.1-.34.21-.51.32-.37.23-.74.47-1.1.71-.35.24-.68.51-.99.79-.3.28-.56.6-.76.95-.34.59-.65,1.19-.92,1.8-.27.6-.57,1.19-.92,1.8-.37.64-.75,1.06-1.16,1.26-.4.19-.85.15-1.34-.12-.5-.28-.77-.65-.81-1.11-.03-.46.12-1.03.44-1.73.24-.49.49-.95.77-1.39.27-.43.53-.89.77-1.39.24-.49.41-.96.52-1.41.12-.44.19-.85.2-1.22.07-2.05.13-4.2.18-6.47.05-2.27.13-4.43.25-6.5ZM200.05,252.07c.49.27.93.35,1.32.23.4-.12.74-.44,1.02-.95.16-.3.19-.63.08-1-.1-.36-.35-.65-.73-.86-.49-.27-.93-.36-1.34-.26s-.73.36-.98.81c-.21.37-.25.75-.12,1.14.13.39.38.68.75.89ZM196.8,258.23s0,0,0-.01c0,0-.01.01-.02,0,0,0,0,0,.01,0ZM208.46,246.54s-.03-.07-.07-.11c-.02-.05-.05-.09-.07-.11-.08-.12-.09-.25-.01-.41.09-.16.26-.32.51-.49.26-.17.47-.27.62-.3.16-.02.28.03.37.15.04.06.08.11.12.15.04.04.07.1.12.16.06.08.04.21-.08.38-.1.16-.23.29-.38.39-.16.13-.36.23-.61.3-.24.06-.41.02-.52-.12ZM203.07,248.93s-.04-.1-.07-.15c-.01-.04-.03-.09-.04-.13-.05-.21-.02-.38.09-.5.12-.13.26-.22.41-.28.16-.06.32-.07.48-.05.17.02.29.08.36.18.04.06.08.12.11.17.03.05.06.11.08.15.07.15.06.27,0,.38-.07.11-.23.23-.48.37-.27.14-.47.19-.6.16-.12-.03-.23-.13-.34-.32ZM199.35,245.81s-.08,0-.13,0c-.05,0-.09,0-.13,0-.09,0-.16-.05-.22-.16-.05-.1-.09-.27-.11-.5-.04-.26-.04-.46,0-.59.03-.13.11-.2.22-.21.03,0,.06-.01.1-.02.05,0,.09-.01.1-.02.12,0,.21.05.27.17.07.11.11.26.12.45.01.31,0,.53-.04.66-.02.13-.09.2-.19.21ZM200.91,243.79c-.63-.06-1.26-.12-1.88-.2-.62-.09-1.24-.17-1.85-.26-.79-.11-1.36-.25-1.71-.41-.33-.17-.47-.46-.43-.88.06-.43.28-.71.66-.82.39-.13.97-.16,1.76-.11.64.03,1.28.07,1.92.13.64.05,1.27.11,1.89.19.79.09,1.42.23,1.87.43.46.2.67.51.63.95-.02.48-.29.78-.8.91-.5.13-1.18.15-2.05.07Z"/>
  </g>
  <g id="word0">
    <path class="st6" d="M366.72,44.73c.14-.3.3-.54.45-.74.16-.2.35-.33.56-.41.22-.08.47-.1.76-.05.29.05.64.17,1.05.37l5.68,2.76c.93.45,1.76.99,2.51,1.63.75.64,1.34,1.36,1.76,2.18.42.81.64,1.71.66,2.7.02.97-.25,2.03-.8,3.16-.77,1.58-1.65,2.74-2.63,3.47-.98.74-2.02,1.1-3.12,1.07.53.51.84,1.06.94,1.66.1.59,0,1.18-.29,1.8-.38.79-.88,1.33-1.47,1.63-.59.3-1.23.44-1.94.43-.7-.03-1.43-.17-2.2-.44-.75-.27-1.48-.58-2.2-.93l-5.81-2.82c-.41-.2-.72-.4-.94-.6-.22-.2-.36-.41-.44-.62-.07-.21-.08-.44-.03-.69.06-.25.16-.52.3-.81l7.17-14.73ZM377.47,55.66c.3-.61.5-1.2.61-1.78.12-.58.13-1.14.04-1.67-.09-.53-.29-1.02-.61-1.49-.32-.47-.76-.9-1.32-1.29l-4.61,9.47c.65.21,1.27.28,1.85.21.59-.08,1.13-.28,1.62-.58.49-.31.95-.7,1.36-1.2s.76-1.05,1.07-1.67ZM369.05,64.08c.9.4,1.62.53,2.17.39.55-.13.93-.42,1.15-.87.1-.21.16-.45.17-.7.02-.25-.04-.51-.16-.77-.11-.26-.3-.53-.57-.8-.26-.26-.61-.52-1.05-.76l-1.71,3.51ZM375.19,48.71c-.12-.08-.26-.16-.41-.25-.16-.09-.34-.18-.55-.29l-7.29,14.99c.21.1.41.2.6.29.19.08.33.14.41.17l7.25-14.91ZM392.79,69.68c-.47.97-.98,1.77-1.52,2.41-.54.63-1.1,1.13-1.69,1.49-.59.37-1.19.61-1.8.73-.61.12-1.24.15-1.87.1-.63-.05-1.25-.18-1.89-.4-.63-.2-1.24-.45-1.85-.74-.58-.28-1.14-.6-1.68-.96-.54-.34-1.02-.74-1.44-1.17-.42-.43-.77-.92-1.05-1.47-.28-.55-.45-1.16-.52-1.84-.07-.68-.01-1.44.16-2.27.18-.83.52-1.74,1.01-2.75l4.82-9.92c.15-.3.3-.54.46-.74.16-.2.34-.33.56-.4.22-.08.47-.1.77-.05.29.05.64.17,1.05.37l5.68,2.76c.49.24.83.49,1.02.76.19.27.29.54.28.81,0,.27-.05.52-.16.77-.11.24-.21.46-.31.67l-6.94,14.27c.84.22,1.56.13,2.17-.25.61-.39,1.18-1.12,1.71-2.21l5.97-12.28c.07-.14.17-.27.29-.36.13-.09.3-.09.52.02l1.33.64c.08.04.15.08.22.12.07.05.13.1.17.18.04.06.06.14.05.25,0,.09-.04.21-.11.36l-5.4,11.1ZM391.85,57.08c.09-.19.15-.34.18-.46.03-.12.02-.23-.04-.32-.05-.1-.13-.18-.26-.25-.12-.08-.28-.17-.48-.27l-7.52,15.46.99.48,7.12-14.64ZM406.8,74.67l-5.67,4.06c-.24.18-.49.3-.75.38-.25.07-.54.02-.85-.13-.29-.14-.49-.34-.61-.6-.11-.25-.17-.52-.19-.8l-.52-6.96c-.51,1.17-.97,2.25-1.4,3.24-.18.42-.37.85-.56,1.27-.18.42-.36.82-.51,1.18-.16.36-.3.69-.43.97-.12.28-.2.49-.25.62-.05.13-.11.24-.18.34-.06.1-.13.17-.22.22-.08.04-.18.06-.3.06-.11-.01-.25-.06-.41-.13l-1.4-.68c-.15-.07-.27-.19-.36-.35-.08-.16-.05-.39.09-.68l7.88-16.2c.08-.16.18-.31.3-.45.13-.14.28-.24.45-.32.18-.08.39-.11.61-.1.23,0,.48.08.75.21l4.1,1.99c.33.16.59.36.77.59.18.23.3.51.34.86l.78,7.1,4.43-3.28c.26-.2.51-.37.74-.52.24-.16.47-.27.72-.34.26-.07.53-.09.83-.05.31.03.67.15,1.07.35l3.39,1.65c.32.16.58.33.77.53.2.2.33.41.4.62.08.22.11.44.08.67-.03.23-.1.46-.21.69l-7.25,14.9c-.13.26-.27.49-.42.69-.15.19-.33.33-.54.43-.2.09-.45.12-.73.08-.28-.03-.61-.14-1-.33l-5.88-2.86c-.35-.17-.62-.35-.81-.54-.19-.19-.32-.39-.39-.6-.07-.21-.07-.44-.03-.69.06-.25.16-.52.3-.81l3.06-6.29ZM406.2,63.5c-.02-.22-.08-.38-.2-.47-.1-.09-.22-.17-.36-.24l-.64-.31,1.04,9.51,1-.73-.85-7.77ZM419.27,70.42c.09-.19.15-.34.18-.46.03-.12.02-.23-.04-.32-.05-.1-.13-.18-.26-.25-.12-.08-.28-.17-.48-.27l-7.85,16.15c.2.1.37.18.5.23.14.04.25.06.35.05.11-.02.2-.08.27-.17.08-.1.17-.24.26-.44l7.06-14.52ZM422.75,71.99c.14-.3.3-.54.45-.74.16-.2.35-.33.56-.41.22-.08.47-.1.77-.05.29.05.64.17,1.05.37l5.68,2.76c.59.29,1.15.61,1.69.96.54.35,1.04.74,1.48,1.16.45.43.84.89,1.15,1.38.33.49.56,1.03.69,1.59.14.56.18,1.16.1,1.8-.07.63-.27,1.3-.61,2-.51,1.04-1.08,1.86-1.72,2.44-.63.58-1.3.98-2.01,1.21-.71.23-1.45.31-2.21.25-.76-.06-1.51-.21-2.27-.44l-2.32,4.78c-.09.2-.22.4-.37.62-.15.22-.34.4-.58.55-.24.14-.53.21-.88.22-.35,0-.77-.11-1.26-.35l-5.45-2.65c-.41-.2-.72-.4-.94-.6-.22-.2-.36-.41-.44-.62s-.08-.44-.03-.69c.06-.25.16-.52.3-.81l7.17-14.73ZM433.87,82.14c.25-.51.41-1.01.48-1.5.08-.5.05-.98-.07-1.44-.12-.46-.35-.9-.69-1.33-.34-.43-.8-.83-1.37-1.2l-3.85,7.91c.66.2,1.27.29,1.83.26.56-.03,1.07-.16,1.53-.39.46-.23.87-.54,1.22-.93.36-.4.67-.86.92-1.38ZM431.21,75.99c-.17-.09-.34-.18-.53-.27-.17-.1-.32-.17-.45-.24l-7.56,15.55c.2.1.37.18.5.23.14.04.25.06.36.05.11-.02.2-.08.27-.17.08-.1.17-.24.26-.44l7.15-14.71ZM438.09,87.89l.23-8.69c0-.14.02-.27.05-.37.03-.1.07-.2.11-.29.15-.3.35-.47.6-.53.26-.06.49-.04.7.06l6.95,3.38c.21.1.38.22.5.36.13.13.23.25.29.38.07.13.1.25.11.37.02.11.02.21.02.29l-.75,7.24,4.89-4.88c.12-.12.23-.23.34-.34.11-.1.22-.19.33-.25.11-.06.23-.09.35-.1.12-.01.26.02.41.09l1.17.57c.12.06.21.13.27.23.06.09.06.2,0,.32-.08.16-.23.35-.46.56l-6.47,5.95-3.98,8.18c-.14.3-.3.54-.47.73-.17.19-.36.33-.58.41-.21.08-.45.1-.72.06-.27-.04-.58-.14-.93-.31l-6.01-2.92c-.33-.16-.58-.33-.76-.51-.18-.18-.29-.37-.35-.58-.05-.2-.04-.43.01-.67.06-.25.16-.52.3-.81l3.85-7.91ZM441.33,100.11c.2.1.37.18.5.23.14.05.25.06.35.05.11-.02.2-.08.27-.17.08-.1.17-.24.26-.44l2.55-5.25,1.16-11.42c.02-.17,0-.31-.07-.41-.06-.1-.16-.19-.3-.26l-.61-.3-1.23,12-2.9,5.96Z"/>
  </g>
  <ellipse class="st4" cx="50.07" cy="151.52" rx="26.08" ry="34.5" transform="translate(-95.63 86.42) rotate(-47.64)"/>
  <ellipse class="st2" cx="173.52" cy="70.76" rx="25.5" ry="34.5" transform="translate(32.22 193.85) rotate(-63.24)"/>
  <path class="st1" d="M316.77,639.51c18.97,1.74,26.37-2.26,27.39-13.32,1.01-11.07-13.55-21.45-32.52-23.19-18.97-1.74-35.18,5.82-36.19,16.89-1.01,11.07,22.35,17.88,41.33,19.62Z"/>
</svg>