<svg width="976" height="834" viewBox="0 0 976 834" fill="none" xmlns="http://www.w3.org/2000/svg">
<path d="M23.762 414.335C27.9216 411.229 46.2189 396.971 56.847 383.65C68.946 368.485 78.0274 351.964 85.8007 331.447C95.8009 305.051 102.841 291.179 127.398 259.275C143.623 238.195 154.12 224.99 184.227 187.878C205.388 161.794 217.145 152.778 229.346 144.972C241.634 137.11 259.84 138.721 289.862 135.614C351.996 129.184 363.694 140.578 385.631 146.039C427.139 156.372 447.425 142.845 469.883 140.11C490.99 137.54 528.393 128.662 552.677 123.108C565.934 120.076 621.044 118.866 661.284 124.161C679.05 126.499 695.06 145.802 740.992 197.368C764.978 224.295 789.487 254.633 815.035 286.496C829.426 304.445 837.961 316.217 847.984 329.195C866.796 353.553 890.882 367.602 904.315 377.73C917.554 387.713 933.532 393.344 955.33 402.692C961.528 405.35 967.687 409.121 971.364 412.532C975.042 415.942 975.908 419.19 974.829 419.842C973.75 420.495 970.7 418.452 967.61 416.35C964.519 414.247 961.48 412.145 954.48 409.131" stroke="black" stroke-linecap="round"/>
<path d="M45.0188 419.777C42.2496 421.749 29.7019 432.005 17.1365 439.546C11.1944 443.112 4.9921 446.776 1.42934 452.902C-0.224998 455.746 0.505991 459.031 2.24709 462.01C14.8264 483.529 49.2267 495.653 55.7294 507.565C65.5536 525.563 77.9159 555.502 90.7944 572.714C100.138 585.201 118.297 605.319 141.346 631.636C156.579 649.029 199.611 692.877 229.131 726.463C240.529 739.43 256.862 745.347 275.44 750.737C304.989 759.31 325.688 761.745 352.871 762.366C385.447 763.11 415.93 763.958 442.884 761.307C460.921 759.533 480.088 750.436 516.676 741.541C545.093 734.632 567.377 744.146 612.036 745.208C637.71 745.819 651.871 743.086 669.029 740.76C700.184 736.536 714.302 730.569 728.299 722.406C742.821 713.937 759.317 703.049 770.77 691.675C785.609 676.94 809.97 644.783 829.203 629.963C844.336 618.302 856.127 610.573 871.789 594.476C883.445 582.498 888.24 566.756 893.919 553.188C900.167 538.263 909.694 513.85 919.558 495.073C926.217 479.264 933.49 466.718 939.934 452.647C942.196 445.755 942.413 439.367 947.229 428.114" stroke="black" stroke-linecap="round"/>
<path d="M67.0336 451.837C71.3819 450.224 96.6334 441.82 124.178 430.09C143.999 421.65 167.849 413.984 189.118 404.72C210.013 395.618 217.814 374.716 223.861 361.516C230.963 346.014 246.354 325.002 256.69 311.48C272.513 290.779 295.213 274.583 305.923 268.954C318.027 262.591 331.41 256.048 396.08 256.319C435.125 256.482 457.099 265.13 476.482 265.014C492.738 264.916 514.396 254.739 562.841 250.344C581.083 248.689 595.964 245.996 611.402 250.875C632.295 257.478 646.947 262.539 663.492 275.76C692.012 298.55 707.754 308.957 748.175 346.371C766.921 363.722 773.847 376.083 800.726 399.065C814.278 410.653 828.669 409.819 850.31 413.428C870.954 415.298 893.815 417.47 907.634 420.757C910.937 421.42 913.968 421.853 913.743 422.299" stroke="black" stroke-linecap="round"/>
<path d="M84.0594 455.412C90.2072 456.121 109.488 458.114 130.415 460.495C154.901 463.281 169.773 465.338 203.006 481.272C221.478 490.128 235.203 502.53 250.536 522.725C262.819 538.902 273.024 546.856 289.269 554.17C317.747 566.991 334.474 564.262 418.798 565.039C454.527 565.369 493.905 561.81 533.121 559.77C590.422 556.791 642.668 556.548 669.932 553.114C688.852 550.731 707.659 537.988 720.269 528.002C736.121 515.447 742.419 504.084 755.698 497.126C767.988 490.686 784.646 483.724 798.959 476.796C810.958 470.988 830.943 457.66 847.025 445.414C857.381 437.528 861.886 425.077 873.911 419.71C877.846 419.03 882.8 419.03 886.894 421.098C890.988 423.166 894.071 427.302 897.249 431.564" stroke="black" stroke-linecap="round"/>
<path d="M357.095 423.249C362.686 423.806 398.391 424.375 434.327 423.641C454.15 423.236 465.943 416.333 477.983 407.426C481.26 405.001 484.092 401.448 486.628 401.473C492.303 401.528 495.069 410.891 500.297 414.608C516.562 426.172 541.959 420.365 555.214 421.779C575.408 423.933 601.306 422.324 619.464 421.533C625.368 421.276 632.719 421.203 637.37 419.878C644.489 417.85 646.845 407.907 650.775 398.08C655.882 385.314 678.094 412.865 690.129 420.978C702.554 429.354 719.902 427.118 733.96 426.01C748.625 424.855 754.603 416.246 758.087 412.116C765.21 403.675 778.564 421.748 789.794 427.367C796.44 430.692 806.738 429.132 816.419 428.141C820.497 427.15 822.879 425.167 824.106 422.494C825.333 419.821 825.333 416.517 827.935 410.443" stroke="black" stroke-linecap="round"/>
<path d="M355.613 420.636C347.942 416.772 330.418 406.064 323.981 402.371C313.778 396.519 307.037 415.711 298.079 422.778C287.233 431.335 270.73 425.779 258.926 422.234C246.573 418.524 237.551 422.159 232.772 424.878C228.042 427.57 228.186 435.478 225.53 440.827C218.826 454.326 185.971 449.985 169.844 446.781C161.431 442.692 153.802 438.654 147.591 435.217C144.244 433.321 140.499 431.119 134.639 427.514" stroke="black" stroke-linecap="round"/>
<path d="M389.653 498.378C390.086 498.378 392.915 495.735 398.401 490.79C412.449 478.127 462.46 484.433 488.118 490.496C492.803 491.603 497.984 494.291 502.096 494.477C515.424 495.083 561.375 483.751 591.253 487.038C603.319 488.366 612.935 498.311 624.206 502.607C635.135 506.773 646.979 492.124 660.147 490.123C666.167 489.208 670.878 484.54 676.879 484.299C688.711 483.826 699.289 492.351 715.246 501.206C720.265 503.991 726.137 507.193 730.015 507.324C745.03 507.833 756.831 487.432 769.444 482.416C774.938 480.231 778.964 475.611 785.729 475.819C789.029 476.247 792.061 477.33 795.773 478.891C799.485 480.453 803.785 482.462 808.216 485.176" stroke="black" stroke-linecap="round"/>
<path d="M396.022 500.38C393.424 501.225 387.267 507.113 384.501 511.593C378.845 520.751 362.398 511.446 350.26 506.781C338.083 502.1 328.914 497.249 323.247 496.546C318.393 495.943 314.897 502.872 304.627 503.529C273.576 505.512 266.075 492.425 261.306 489.742C255.876 489.684 250.503 492.295 245.753 496.504C243.426 498.764 241.268 501.276 239.045 504.521" stroke="black" stroke-linecap="round"/>
<path d="M484.737 380.068C485.23 375.922 486.231 357.494 482.356 342.232C478.838 328.373 474.003 315.877 473.049 301.348C468.755 288.749 460.772 279.866 449.782 274.139C446.787 273.098 443.748 272.377 433.411 270.096" stroke="black" stroke-linecap="round"/>
<path d="M484.002 294.091C484.002 293.65 485.518 290.605 489.224 285.233C491.414 282.68 494.232 280.477 496.985 278.571C499.738 276.666 502.34 275.124 506.99 273.535" stroke="black" stroke-linecap="round"/>
<path d="M334.526 285.708C333.644 285.708 330.152 285.708 324.666 287.116C312.697 290.187 314.638 306.232 313.206 311.041C308.911 311.504 302.877 309.055 296.553 306.278C293.312 305.043 290.008 304.162 279.93 303.254" stroke="black" stroke-linecap="round"/>
<path d="M621.826 271.081C630.94 272.873 651.518 280.408 661.511 291.25C665.338 296.389 668.639 301.441 672.018 304.273C673.881 304.506 676.046 302.296 686.819 298.684" stroke="black" stroke-linecap="round"/>
<path d="M761.042 365.825C761.475 366.699 763.714 369.833 767.312 375.53C768.893 378.542 769.98 381.801 770.973 384.889C771.965 387.978 772.831 390.796 773.724 394.356" stroke="black" stroke-linecap="round"/>
<path d="M299.229 348.494C299.663 348.494 300.096 348.494 303.081 351.363C306.067 354.232 311.592 359.97 321.878 372.444" stroke="black" stroke-linecap="round"/>
<path d="M218.965 395.94C218.965 396.157 218.965 396.373 219.615 398.116C220.264 399.859 221.563 403.122 222.882 406.324C224.201 409.526 225.5 412.569 228.807 418.984" stroke="black" stroke-linecap="round"/>
<path d="M378.736 563.099C379.169 562.218 379.609 556.037 381.333 549.122C382.841 547.934 385.633 551.458 388.378 554.144C391.124 556.829 393.737 558.569 398.398 561.017" stroke="black" stroke-linecap="round"/>
<path d="M508.856 556.899C508.856 556.459 509.073 548.523 509.647 539.403C510.005 537.993 510.498 543.115 511.293 547.163C512.088 551.211 513.171 554.029 516.255 559.558" stroke="black" stroke-linecap="round"/>
<path d="M644.282 557.816C644.282 556.714 644.282 555.613 644.499 553.614C644.715 551.615 645.148 548.751 647.552 539.127" stroke="black" stroke-linecap="round"/>
<path d="M305.248 547.793C305.681 548.659 306.114 549.525 307.205 551.386C308.296 553.247 310.032 556.077 312.13 558.352C314.229 560.628 316.637 562.263 322.964 561.583" stroke="black" stroke-linecap="round"/>
<path d="M385.184 32.7079C385.184 40.4189 386.484 59.9361 397.219 74.0965C407.144 87.1889 422.173 88.1566 446.297 89.1619C473.543 90.2974 492.41 85.7412 495.796 79.8609C502.323 68.525 503.571 55.0715 502.362 43.1508C496.692 29.6881 492.24 17.8875 489.687 11.4499C488.455 8.31617 487.354 5.45278 485.552 0.500244" stroke="black" stroke-linecap="round"/>
<path d="M399.642 833.328C408.126 830.827 431.601 820.627 447.997 811.234C469.938 806.642 494.033 809.397 558.894 814.61C574.861 816.298 585.467 818.591 600.355 820.952" stroke="black" stroke-linecap="round"/>
</svg>
