<svg width="97" height="62" viewBox="0 0 97 62" fill="none" xmlns="http://www.w3.org/2000/svg">
<path d="M8.26945 1.78268C8.41399 1.48557 8.56541 1.23905 8.72371 1.04311C8.88201 0.847179 9.06842 0.712157 9.28293 0.638048C9.50158 0.55545 9.75682 0.537894 10.0487 0.585382C10.3405 0.632869 10.6901 0.755722 11.0976 0.953943L16.7767 3.71664C17.702 4.16676 18.5397 4.71072 19.2897 5.34853C20.0397 5.98633 20.626 6.71246 21.0486 7.52693C21.4712 8.34139 21.69 9.24041 21.7049 10.224C21.724 11.199 21.4589 12.2511 20.9097 13.3801C20.1416 14.9591 19.2633 16.117 18.275 16.8539C17.2951 17.595 16.2561 17.9504 15.1581 17.9202C15.6872 18.4295 16.0014 18.9812 16.1007 19.5755C16.2042 20.1612 16.1073 20.7597 15.8099 21.3709C15.4259 22.1603 14.9357 22.704 14.3394 23.0018C13.7517 23.3037 13.1051 23.4459 12.3999 23.4282C11.6987 23.4021 10.9667 23.2559 10.2039 22.9898C9.45364 22.7193 8.72198 22.4106 8.00891 22.0638L2.20248 19.2391C1.79501 19.0409 1.48252 18.8416 1.26502 18.6414C1.04752 18.4411 0.901713 18.2337 0.827604 18.0191C0.753495 17.8046 0.744658 17.5746 0.801094 17.3291C0.85753 17.0837 0.958015 16.8124 1.10255 16.5152L8.26945 1.78268ZM19.0152 12.7104C19.3125 12.0992 19.5171 11.5059 19.6291 10.9305C19.7452 10.3466 19.7581 9.7913 19.6679 9.26453C19.5778 8.73776 19.3739 8.23967 19.0564 7.77027C18.7388 7.30086 18.2972 6.8708 17.7314 6.48009L13.1228 15.9537C13.7753 16.1662 14.3925 16.2355 14.9743 16.1616C15.5602 16.0792 16.1007 15.8854 16.5955 15.5803C17.0904 15.2752 17.542 14.8755 17.9504 14.3813C18.3588 13.8871 18.7137 13.3301 19.0152 12.7104ZM10.6017 21.1362C11.501 21.5318 12.2244 21.6632 12.7718 21.5306C13.3193 21.398 13.7024 21.1067 13.9213 20.6568C14.0245 20.4446 14.0811 20.2096 14.0909 19.952C14.1093 19.6985 14.0558 19.4415 13.9305 19.1811C13.8179 18.9164 13.6271 18.6503 13.3582 18.3831C13.0978 18.1199 12.7488 17.8662 12.3113 17.6218L10.6017 21.1362ZM16.742 5.76257C16.6229 5.68365 16.4848 5.60071 16.3276 5.51376C16.1705 5.42681 15.9858 5.33171 15.7736 5.22848L8.48277 20.2157C8.69499 20.3189 8.89448 20.416 9.08124 20.5068C9.27212 20.5892 9.40783 20.6447 9.48836 20.6734L16.742 5.76257ZM34.3353 26.7296C33.8645 27.6973 33.3582 28.5008 32.8163 29.14C32.2785 29.7707 31.7161 30.2687 31.129 30.6339C30.5418 30.9992 29.9407 31.2422 29.3257 31.3629C28.7106 31.4836 28.086 31.5157 27.4521 31.4593C26.8267 31.407 26.1983 31.2745 25.5669 31.0618C24.9399 30.8617 24.325 30.6151 23.7223 30.3219C23.145 30.0411 22.5864 29.7221 22.0463 29.3649C21.5106 29.0203 21.0292 28.6287 20.6023 28.19C20.1838 27.7555 19.8343 27.2653 19.554 26.7195C19.2736 26.1737 19.1001 25.5592 19.0336 24.8759C18.967 24.1927 19.02 23.4364 19.1926 22.607C19.3736 21.7817 19.7098 20.864 20.2012 19.8538L25.0266 9.93449C25.1712 9.63738 25.3226 9.39085 25.4809 9.19492C25.6392 8.99898 25.8256 8.86396 26.0401 8.78985C26.2587 8.70726 26.514 8.6897 26.8058 8.73719C27.0977 8.78468 27.4473 8.90753 27.8548 9.10575L33.5339 11.8684C34.0262 12.108 34.3646 12.3618 34.5491 12.63C34.7421 12.9023 34.8358 13.1736 34.8303 13.4439C34.8374 13.7098 34.7853 13.9679 34.6741 14.2182C34.5669 14.4601 34.4638 14.6828 34.3647 14.8866L27.4208 29.1607C28.2591 29.3796 28.9823 29.2957 29.5903 28.9091C30.1982 28.5225 30.7665 27.7859 31.2951 26.6993L37.2665 14.4243C37.3367 14.28 37.4325 14.1587 37.5538 14.0602C37.6837 13.9659 37.859 13.9725 38.0797 14.0798L39.404 14.7241C39.4804 14.7612 39.5547 14.8026 39.627 14.8483C39.6993 14.8939 39.7548 14.9524 39.7935 15.0238C39.8365 15.0867 39.8542 15.1688 39.8469 15.2702C39.8437 15.3631 39.807 15.4817 39.7368 15.626L34.3353 26.7296ZM33.3938 14.1308C33.4847 13.9441 33.5442 13.7893 33.5724 13.6666C33.6007 13.5438 33.589 13.4384 33.5373 13.3503C33.4898 13.2537 33.4045 13.1702 33.2813 13.0998C33.1622 13.0209 33.0008 12.9319 32.7971 12.8327L25.2771 28.2911L26.2703 28.7743L33.3938 14.1308ZM48.3475 31.7194L42.673 35.7773C42.43 35.9531 42.1802 36.0782 41.9234 36.1528C41.6708 36.2189 41.3875 36.1755 41.0734 36.0227C40.7848 35.8823 40.5821 35.684 40.4653 35.4277C40.357 35.1756 40.2929 34.9082 40.2729 34.6255L39.7538 27.6649C39.2473 28.8357 38.7798 29.9152 38.3515 30.9036C38.1661 31.3279 37.9808 31.7521 37.7954 32.1763C37.61 32.6005 37.4391 32.995 37.2826 33.3598C37.1262 33.7246 36.984 34.0491 36.8562 34.3334C36.7411 34.6133 36.6568 34.819 36.6033 34.9504C36.5499 35.0819 36.4899 35.1944 36.4233 35.2881C36.3653 35.3858 36.2922 35.4605 36.2041 35.5121C36.1201 35.5552 36.0211 35.5753 35.9071 35.5723C35.7972 35.5609 35.6616 35.5159 35.5003 35.4374L34.0997 34.756C33.9469 34.6817 33.8253 34.5648 33.7349 34.4054C33.6571 34.2416 33.6884 34.0153 33.8288 33.7267L41.7081 17.5298C41.7865 17.3685 41.8862 17.2176 42.0071 17.0769C42.1365 16.9404 42.2874 16.8353 42.4597 16.7617C42.6446 16.6837 42.849 16.6519 43.0729 16.6663C43.301 16.6723 43.5508 16.7414 43.8225 16.8735L47.9226 18.8681C48.2537 19.0291 48.5092 19.2269 48.689 19.4614C48.873 19.6874 48.9859 19.9732 49.0277 20.319L49.808 27.4224L54.2371 24.1444C54.5009 23.9473 54.7481 23.7736 54.9787 23.6234C55.2134 23.4646 55.4528 23.3501 55.6969 23.2799C55.9536 23.2053 56.23 23.1875 56.5259 23.2265C56.8345 23.2612 57.1925 23.3776 57.6 23.5758L60.9871 25.2235C61.3097 25.3805 61.5649 25.5571 61.7528 25.7535C61.9492 25.954 62.0845 26.1615 62.1586 26.376C62.2412 26.5947 62.2689 26.8182 62.2419 27.0464C62.2148 27.2747 62.1455 27.5035 62.034 27.7327L54.7866 42.6308C54.6586 42.8939 54.5197 43.1255 54.3699 43.3256C54.2242 43.5172 54.0442 43.6606 53.8299 43.7558C53.6282 43.8466 53.3837 43.8746 53.0962 43.8398C52.8172 43.809 52.4825 43.6987 52.092 43.5087L46.2091 40.6469C45.8611 40.4776 45.591 40.299 45.399 40.1111C45.207 39.9232 45.0781 39.724 45.0125 39.5137C44.9469 39.3033 44.9381 39.0733 44.986 38.8236C45.0425 38.5782 45.1429 38.3069 45.2875 38.0097L48.3475 31.7194ZM47.7509 20.5482C47.7316 20.3289 47.6666 20.1713 47.5558 20.0754C47.4535 19.9836 47.3344 19.9047 47.1986 19.8386L46.5619 19.5289L47.6027 29.0424L48.6018 28.3159L47.7509 20.5482ZM60.8216 27.4735C60.9125 27.2868 60.972 27.132 61.0002 27.0093C61.0284 26.8865 61.0167 26.7811 60.9651 26.693C60.9176 26.5964 60.8323 26.5129 60.7091 26.4425C60.59 26.3636 60.4286 26.2746 60.2248 26.1754L52.3704 42.3214C52.5741 42.4205 52.7417 42.4968 52.8732 42.5503C53.0088 42.5952 53.1271 42.6108 53.2283 42.597C53.3336 42.5748 53.4238 42.5189 53.4988 42.4294C53.578 42.3315 53.665 42.1849 53.76 41.9896L60.8216 27.4735ZM64.2964 29.038C64.441 28.7409 64.5924 28.4943 64.7507 28.2984C64.909 28.1025 65.0954 27.9674 65.3099 27.8933C65.5286 27.8107 65.7838 27.7932 66.0756 27.8407C66.3675 27.8881 66.7171 28.011 67.1246 28.2092L72.8037 30.9719C73.3894 31.2569 73.9523 31.5779 74.4924 31.9351C75.0366 32.2839 75.5306 32.6711 75.9743 33.097C76.4265 33.5269 76.8115 33.9871 77.1293 34.4776C77.4556 34.9723 77.6851 35.5039 77.818 36.0724C77.9634 36.6366 77.9974 37.2357 77.9198 37.8698C77.8549 38.4996 77.6511 39.1668 77.3083 39.8714C76.8004 40.9155 76.2266 41.7282 75.587 42.3093C74.96 42.8861 74.2909 43.2903 73.5799 43.5218C72.8689 43.7533 72.131 43.8352 71.3661 43.7675C70.6096 43.704 69.8523 43.556 69.094 43.3236L66.7711 48.0987C66.6762 48.2939 66.5539 48.5021 66.4043 48.7233C66.2547 48.9445 66.0604 49.1281 65.8213 49.2743C65.5864 49.4119 65.2938 49.4848 64.9434 49.4928C64.5931 49.5008 64.1717 49.3851 63.6794 49.1456L58.2295 46.4944C57.822 46.2962 57.5095 46.0969 57.292 45.8966C57.0745 45.6963 56.9287 45.4889 56.8546 45.2744C56.7805 45.0599 56.7717 44.8299 56.8281 44.5844C56.8845 44.3389 56.985 44.0676 57.1295 43.7705L64.2964 29.038ZM75.42 39.189C75.6678 38.6797 75.827 38.1797 75.8977 37.6892C75.9724 37.1902 75.9482 36.7113 75.825 36.2524C75.7018 35.7936 75.4711 35.3506 75.1329 34.9237C74.7947 34.4967 74.3386 34.0964 73.7646 33.7226L69.9179 41.6301C70.5745 41.834 71.1834 41.9203 71.7446 41.8889C72.3058 41.8574 72.8152 41.7273 73.2729 41.4986C73.7306 41.2698 74.1389 40.9593 74.4977 40.567C74.8607 40.1661 75.1681 39.7068 75.42 39.189ZM72.7566 33.0433C72.5909 32.9522 72.4147 32.8613 72.228 32.7704C72.0538 32.6752 71.9031 32.5966 71.7758 32.5347L64.2124 48.0822C64.4162 48.1813 64.5838 48.2576 64.7152 48.311C64.8508 48.356 64.9692 48.3716 65.0704 48.3578C65.1757 48.3356 65.2659 48.2797 65.3409 48.1902C65.42 48.0923 65.5071 47.9456 65.6021 47.7504L72.7566 33.0433ZM79.6434 44.944L79.8718 36.2527C79.8787 36.1091 79.8964 35.9864 79.9248 35.8848C79.9532 35.7832 79.9902 35.6857 80.0356 35.5923C80.1801 35.2952 80.3809 35.1199 80.6379 35.0664C80.8989 35.0045 81.1314 35.023 81.3351 35.1222L88.2875 38.5043C88.4998 38.6075 88.6678 38.726 88.7917 38.8598C88.9197 38.985 89.0161 39.1107 89.0808 39.2366C89.1455 39.3626 89.1806 39.4846 89.1861 39.6028C89.2042 39.7166 89.2095 39.8136 89.2019 39.8939L88.4511 47.1344L93.3441 42.2554C93.4652 42.1358 93.578 42.0227 93.6824 41.916C93.7953 41.8135 93.9041 41.73 94.009 41.6655C94.1223 41.6052 94.238 41.5722 94.3562 41.5667C94.4785 41.5527 94.616 41.5829 94.7688 41.6572L95.9403 42.2271C96.0592 42.2849 96.1486 42.3599 96.2087 42.4522C96.2689 42.5444 96.27 42.6499 96.2122 42.7688C96.1337 42.9301 95.9796 43.1175 95.7497 43.3311L89.2788 49.2849L85.302 57.4598C85.1575 57.7569 85.0018 58.0013 84.835 58.1931C84.6683 58.3849 84.4755 58.5221 84.2569 58.6047C84.0509 58.683 83.8104 58.7025 83.5356 58.6633C83.2692 58.6282 82.9577 58.5239 82.6012 58.3504L76.591 55.4267C76.26 55.2656 76.0069 55.0953 75.8319 54.9157C75.6568 54.736 75.5407 54.5431 75.4836 54.3368C75.4349 54.1347 75.4388 53.9109 75.4953 53.6654C75.5517 53.4199 75.6522 53.1486 75.7967 52.8515L79.6434 44.944ZM82.8796 57.1631C83.0833 57.2623 83.2509 57.3385 83.3824 57.392C83.518 57.437 83.6364 57.4526 83.7376 57.4388C83.8429 57.4165 83.933 57.3607 84.0081 57.2712C84.0872 57.1732 84.1743 57.0266 84.2693 56.8314L86.8213 51.5852L87.9826 40.1668C88.0019 39.9978 87.9793 39.8608 87.9148 39.7559C87.8589 39.6552 87.7587 39.5698 87.6144 39.4996L87.0032 39.2022L85.7786 51.2039L82.8796 57.1631Z" fill="black"/>
</svg>
