<svg width="103" height="192" viewBox="0 0 103 192" fill="none" xmlns="http://www.w3.org/2000/svg">
<path d="M99.6288 162.027C105.785 173.055 95.3194 190.208 77.4663 191.433C59.6132 192.658 45.4539 176.73 44.8383 170.604C44.2226 164.478 1.12892 124.045 0.513294 86.0625C-0.10233 48.0801 20.8289 11.9356 28.832 7.03461C36.8351 2.13365 64.5382 -2.7673 85.4694 3.35889C102.214 8.25985 104.4 18.2149 101.322 30.4673C96.1868 50.9072 102.584 93.5365 99.6288 96.4771C95.9351 100.153 82.6991 90.6572 83.3148 104.747C82.1861 108.321 81.8988 116.877 89.7788 122.513C97.6588 128.149 93.0622 135.685 89.7788 138.748C84.4434 137.318 71.0638 134.888 60.2289 136.604C49.3939 138.319 35.8091 120.165 30.3711 110.874C26.3695 97.8044 24.2764 71.4822 47.9164 70.747C71.5563 70.0119 76.4916 73.5038 77.6202 73.8101C77.1072 77.3838 75.8657 82.3868 62.0757 86.0625M60.2289 93.414C61.7679 93.414 86.0851 91.8824 87.932 82.3868C89.7788 72.8912 104.862 27.8637 87.932 19.8996C71.0023 11.9356 46.9929 12.8545 38.9898 17.1428C30.9867 21.4312 7.28517 59.4136 9.74767 86.0625C12.2102 112.711 46.0695 150.081 53.1492 158.964" stroke="black"/>
<path d="M44.7305 42.0839C51.8702 29.8787 77.6352 26.2172 79.8082 26.5223C85.3957 25.902 88.5 38.4223 88.5 40.2531C88.5 42.0839 86.327 53.3737 74.8414 55.8147C63.3558 58.2558 37.5908 54.2891 44.7305 42.0839Z" stroke="black"/>
</svg>
