<svg width="380" height="240" viewBox="0 0 380 240" fill="none" xmlns="http://www.w3.org/2000/svg">
<path d="M69.2971 142.95C37.8774 149.907 48.0236 197.819 45.0359 211.393C43.8468 216.795 40.9154 221.657 35.4189 225.325C33.6781 234.316 28.5836 237.897 16.4545 231.558C24.7713 230.506 30.9448 228.311 35.4189 225.325C40.2638 200.302 19.1286 133.377 51.3671 121.813C95.1888 106.095 74.3798 108.716 117.954 165.614C161.529 222.512 137.918 67.7188 184.292 58.2775C230.666 48.8363 224.863 119.306 254.364 106.439C283.865 93.5714 221.509 55.3887 262.761 28.5963C304.014 1.80393 310.205 55.6127 356.779 61.7432C368.85 63.332 373.642 60.0455 373.901 54.1487C373.599 51.3541 372.96 48.3841 371.929 45.2479C366.731 32.4551 352.352 15.1834 341.248 3.71198C358.808 19.559 368.088 33.5587 371.929 45.2479C373.282 48.579 374.013 51.6064 373.901 54.1487C375.918 72.7693 362.992 83.6087 351.365 84.0207C331.488 84.725 302.433 45.1941 279.569 59.4721C256.706 73.75 274.017 103.963 256.001 119.43C237.984 134.897 212.746 111.681 188.83 94.2985C164.913 76.9156 155.504 114.094 157.736 131.809C159.967 149.524 147.925 198.431 120.855 188.644C93.7855 178.857 100.717 135.992 69.2971 142.95Z" fill="#1DA056"/>
<path d="M45.0359 211.393C48.0236 197.819 37.8774 149.907 69.2971 142.95C100.717 135.992 93.7855 178.857 120.855 188.644C147.925 198.431 159.967 149.524 157.736 131.809C155.504 114.094 164.913 76.9156 188.83 94.2985C212.746 111.681 237.984 134.897 256.001 119.43C274.017 103.963 256.705 73.75 279.569 59.4721C302.433 45.1941 331.488 84.725 351.365 84.0207C371.241 83.3164 394.912 52.1403 341.248 3.71198C361.95 25.0992 394.038 66.6475 356.779 61.7432C310.205 55.6127 304.014 1.80393 262.761 28.5963C221.509 55.3887 283.865 93.5714 254.364 106.439C224.863 119.306 230.666 48.8363 184.292 58.2775C137.918 67.7188 161.529 222.512 117.954 165.614C74.3798 108.716 95.1888 106.095 51.3671 121.813C7.54544 137.532 62.3415 255.54 16.4545 231.558C34.9885 229.213 42.8789 221.193 45.0359 211.393Z" stroke="#1DA056" stroke-width="10"/>
</svg>
