<svg width="410" height="267" viewBox="0 0 410 267" fill="none" xmlns="http://www.w3.org/2000/svg">
<mask id="path-1-inside-1_97_47" fill="white">
<path d="M297.255 219.689C303.729 212.56 308.527 203.103 311.266 192.07C314.005 181.038 314.609 168.736 313.031 156.145C311.453 143.553 307.736 131.022 302.176 119.548C296.617 108.075 289.368 97.9774 281.009 90.0608L271.839 111.162C277.396 116.424 282.214 123.135 285.909 130.762C289.605 138.388 292.075 146.718 293.124 155.087C294.173 163.456 293.772 171.633 291.951 178.966C290.13 186.299 286.941 192.586 282.638 197.324L297.255 219.689Z"/>
</mask>
<path d="M297.255 219.689C303.729 212.56 308.527 203.103 311.266 192.07C314.005 181.038 314.609 168.736 313.031 156.145C311.453 143.553 307.736 131.022 302.176 119.548C296.617 108.075 289.368 97.9774 281.009 90.0608L271.839 111.162C277.396 116.424 282.214 123.135 285.909 130.762C289.605 138.388 292.075 146.718 293.124 155.087C294.173 163.456 293.772 171.633 291.951 178.966C290.13 186.299 286.941 192.586 282.638 197.324L297.255 219.689Z" stroke="#3A56C5" stroke-width="30" mask="url(#path-1-inside-1_97_47)"/>
<mask id="path-2-inside-2_97_47" fill="white">
<path d="M355.692 227.803C362.549 219.712 367.626 208.575 370.52 195.28C373.413 181.986 374.043 166.901 372.359 151.228C370.675 135.556 366.723 119.73 360.819 105.012C354.915 90.2938 347.221 77.0907 338.353 66.4554L328.651 91.4665C334.546 98.5357 339.66 107.312 343.584 117.095C347.509 126.878 350.135 137.397 351.255 147.814C352.374 158.231 351.956 168.258 350.032 177.095C348.109 185.932 344.734 193.335 340.177 198.713L355.692 227.803Z"/>
</mask>
<path d="M355.692 227.803C362.549 219.712 367.626 208.575 370.52 195.28C373.413 181.986 374.043 166.901 372.359 151.228C370.675 135.556 366.723 119.73 360.819 105.012C354.915 90.2938 347.221 77.0907 338.353 66.4554L328.651 91.4665C334.546 98.5357 339.66 107.312 343.584 117.095C347.509 126.878 350.135 137.397 351.255 147.814C352.374 158.231 351.956 168.258 350.032 177.095C348.109 185.932 344.734 193.335 340.177 198.713L355.692 227.803Z" stroke="#3A56C5" stroke-width="30" mask="url(#path-2-inside-2_97_47)"/>
<mask id="path-3-inside-3_97_47" fill="white">
<path d="M63.3881 216.747C67.1015 213.682 70.0474 209.792 71.991 205.387C73.9346 200.982 74.8222 196.184 74.5829 191.375C74.3436 186.566 72.9841 181.879 70.6129 177.689C68.2416 173.499 64.924 169.92 60.9248 167.239L55.1539 175.847C57.8122 177.629 60.0173 180.008 61.5935 182.793C63.1696 185.578 64.0733 188.693 64.2323 191.89C64.3913 195.086 63.8014 198.275 62.5095 201.203C61.2176 204.131 59.2595 206.717 56.7913 208.754L63.3881 216.747Z"/>
</mask>
<path d="M63.3881 216.747C67.1015 213.682 70.0474 209.792 71.991 205.387C73.9346 200.982 74.8222 196.184 74.5829 191.375C74.3436 186.566 72.9841 181.879 70.6129 177.689C68.2416 173.499 64.924 169.92 60.9248 167.239L55.1539 175.847C57.8122 177.629 60.0173 180.008 61.5935 182.793C63.1696 185.578 64.0733 188.693 64.2323 191.89C64.3913 195.086 63.8014 198.275 62.5095 201.203C61.2176 204.131 59.2595 206.717 56.7913 208.754L63.3881 216.747Z" stroke="#3A56C5" stroke-width="30" mask="url(#path-3-inside-3_97_47)"/>
<mask id="path-4-inside-4_97_47" fill="white">
<path d="M90.8951 218.389C95.5782 214.524 99.2935 209.618 101.745 204.062C104.196 198.507 105.315 192.455 105.014 186.391C104.712 180.326 102.997 174.415 100.007 169.131C97.016 163.846 92.8321 159.333 87.7884 155.951L80.5103 166.808C83.8628 169.055 86.6438 172.055 88.6317 175.568C90.6195 179.08 91.7591 183.009 91.9597 187.04C92.1603 191.071 91.4162 195.094 89.7869 198.786C88.1576 202.479 85.6881 205.74 82.5753 208.309L90.8951 218.389Z"/>
</mask>
<path d="M90.8951 218.389C95.5782 214.524 99.2935 209.618 101.745 204.062C104.196 198.507 105.315 192.455 105.014 186.391C104.712 180.326 102.997 174.415 100.007 169.131C97.016 163.846 92.8321 159.333 87.7884 155.951L80.5103 166.808C83.8628 169.055 86.6438 172.055 88.6317 175.568C90.6195 179.08 91.7591 183.009 91.9597 187.04C92.1603 191.071 91.4162 195.094 89.7869 198.786C88.1576 202.479 85.6881 205.74 82.5753 208.309L90.8951 218.389Z" stroke="#3A56C5" stroke-width="30" mask="url(#path-4-inside-4_97_47)"/>
<mask id="path-5-inside-5_97_47" fill="white">
<path d="M124.27 220.142C129.184 215.58 132.987 209.673 135.376 202.892C137.764 196.112 138.671 188.645 138.026 181.088C137.38 173.531 135.199 166.092 131.656 159.365C128.114 152.637 123.308 146.807 117.622 142.34L110.236 155.46C114.016 158.429 117.21 162.304 119.565 166.776C121.92 171.248 123.37 176.192 123.799 181.215C124.228 186.239 123.625 191.201 122.037 195.708C120.45 200.215 117.922 204.142 114.655 207.174L124.27 220.142Z"/>
</mask>
<path d="M124.27 220.142C129.184 215.58 132.987 209.673 135.376 202.892C137.764 196.112 138.671 188.645 138.026 181.088C137.38 173.531 135.199 166.092 131.656 159.365C128.114 152.637 123.308 146.807 117.622 142.34L110.236 155.46C114.016 158.429 117.21 162.304 119.565 166.776C121.92 171.248 123.37 176.192 123.799 181.215C124.228 186.239 123.625 191.201 122.037 195.708C120.45 200.215 117.922 204.142 114.655 207.174L124.27 220.142Z" stroke="#3A56C5" stroke-width="30" mask="url(#path-5-inside-5_97_47)"/>
<mask id="path-6-inside-6_97_47" fill="white">
<path d="M161.203 218.54C166.445 213.366 170.442 206.604 172.877 198.794C175.312 190.984 176.117 182.342 175.228 173.556C174.339 164.77 171.781 156.083 167.756 148.189C163.732 140.295 158.354 133.411 152.05 128.087L144.328 143.131C148.518 146.67 152.093 151.246 154.768 156.493C157.442 161.74 159.143 167.514 159.734 173.354C160.325 179.194 159.79 184.938 158.171 190.13C156.553 195.321 153.896 199.815 150.412 203.254L161.203 218.54Z"/>
</mask>
<path d="M161.203 218.54C166.445 213.366 170.442 206.604 172.877 198.794C175.312 190.984 176.117 182.342 175.228 173.556C174.339 164.77 171.781 156.083 167.756 148.189C163.732 140.295 158.354 133.411 152.05 128.087L144.328 143.131C148.518 146.67 152.093 151.246 154.768 156.493C157.442 161.74 159.143 167.514 159.734 173.354C160.325 179.194 159.79 184.938 158.171 190.13C156.553 195.321 153.896 199.815 150.412 203.254L161.203 218.54Z" stroke="#3A56C5" stroke-width="30" mask="url(#path-6-inside-6_97_47)"/>
<mask id="path-7-inside-7_97_47" fill="white">
<path d="M200.857 219.414C206.138 213.736 210.077 206.227 212.361 197.484C214.645 188.742 215.21 179.008 214.011 169.059C212.813 159.111 209.884 149.222 205.458 140.182C201.032 131.142 195.232 123.201 188.519 116.992L180.972 133.737C185.434 137.865 189.289 143.143 192.231 149.152C195.173 155.161 197.12 161.733 197.916 168.346C198.713 174.959 198.337 181.429 196.819 187.24C195.301 193.051 192.683 198.042 189.173 201.816L200.857 219.414Z"/>
</mask>
<path d="M200.857 219.414C206.138 213.736 210.077 206.227 212.361 197.484C214.645 188.742 215.21 179.008 214.011 169.059C212.813 159.111 209.884 149.222 205.458 140.182C201.032 131.142 195.232 123.201 188.519 116.992L180.972 133.737C185.434 137.865 189.289 143.143 192.231 149.152C195.173 155.161 197.12 161.733 197.916 168.346C198.713 174.959 198.337 181.429 196.819 187.24C195.301 193.051 192.683 198.042 189.173 201.816L200.857 219.414Z" stroke="#3A56C5" stroke-width="30" mask="url(#path-7-inside-7_97_47)"/>
<mask id="path-8-inside-8_97_47" fill="white">
<path d="M247.754 219.441C253.56 213.013 257.856 204.479 260.299 194.519C262.742 184.559 263.266 173.448 261.828 162.074C260.39 150.699 257.03 139.374 252.016 129.003C247.002 118.631 240.472 109.5 232.948 102.336L224.743 121.379C229.744 126.141 234.084 132.211 237.417 139.104C240.75 145.998 242.983 153.526 243.939 161.086C244.895 168.647 244.547 176.032 242.923 182.652C241.299 189.272 238.443 194.945 234.584 199.218L247.754 219.441Z"/>
</mask>
<path d="M247.754 219.441C253.56 213.013 257.856 204.479 260.299 194.519C262.742 184.559 263.266 173.448 261.828 162.074C260.39 150.699 257.03 139.374 252.016 129.003C247.002 118.631 240.472 109.5 232.948 102.336L224.743 121.379C229.744 126.141 234.084 132.211 237.417 139.104C240.75 145.998 242.983 153.526 243.939 161.086C244.895 168.647 244.547 176.032 242.923 182.652C241.299 189.272 238.443 194.945 234.584 199.218L247.754 219.441Z" stroke="#3A56C5" stroke-width="30" mask="url(#path-8-inside-8_97_47)"/>
</svg>
