<svg width="207" height="140" viewBox="0 0 207 140" fill="none" xmlns="http://www.w3.org/2000/svg">
<path d="M55.9393 122.704C55.4774 123.043 54.5137 123.941 54.3365 124.766C54.2468 125.183 54.6717 125.629 55.0367 125.886C57.0287 127.287 61.1734 126.575 63.354 127.351C65.1284 127.982 66.8029 128.871 69.0149 129.509C71.5888 130.251 74.5443 131.921 76.7142 133.873C78.1277 135.144 80.422 135.337 82.5046 135.616C84.9133 135.939 91.5609 135.928 95.916 135.69C102.048 135.356 111.325 135.617 113.365 135.865C116.068 136.195 117.898 136.702 120.07 137.848C121.875 138.799 123.828 139.527 130.276 139.425C134.002 139.365 135.49 137.126 136.748 135.642C138.114 134.03 140.443 131.366 142.041 129.711C143.695 127.997 146.156 127.908 147.868 127.359C149.562 126.815 151.768 125.959 153.925 125.109C156.632 124.044 160.951 124.645 163.912 125.031C166.756 125.402 170.571 124.72 171.834 123.427C173.336 121.887 175.065 117.993 177.122 115.738C177.78 115.017 178.885 114.641 180.09 114.366C182.41 113.837 184.234 115.077 187.774 115.684C195.507 116.159 198.195 116.615 200.974 117.019C202.011 117.082 203.584 117.082 204.746 116.138" stroke="black" stroke-linecap="round"/>
<path d="M109.405 115.912C109.219 114.753 108.395 112.056 107.161 110.696C105.739 109.128 103.302 109.18 100.71 108.982C96.8077 108.683 90.184 106.144 84.6179 104.132C80.1809 102.529 73.7766 101.34 68.8903 100.29C67.1397 99.9138 63.6633 99.2212 58.5406 98.1486C50.3091 96.425 44.057 95.6286 41.9629 95.3088C39.1098 94.8731 37.177 94.3024 35.6229 93.3902C33.8382 92.3427 31.7781 90.5179 29.9972 89.1771C28.5126 88.0593 26.294 86.8925 24.1644 85.6968C21.3217 84.1007 17.2915 82.2486 15.52 80.8576C12.0095 78.1012 7.45495 72.5157 5.12754 69.7058C3.8674 68.1845 1.18156 64.319 0.521692 61.5259C0.223348 60.263 3.08253 60.8573 4.15971 60.9802C6.46457 61.2432 9.02773 63.2094 11.0868 63.8356C13.1069 64.45 15.6703 64.4572 19.1837 65.1063C24.2025 66.0334 27.6391 69.2142 29.5444 70.8904C32.0362 73.0826 33.9893 75.0828 35.5975 76C37.6709 77.1825 39.9708 78.7033 41.9285 79.2802C44.4538 80.0243 46.7781 80.2668 49.1762 81.1841C51.2369 81.9724 53.4983 83.1193 55.0447 83.8959C56.8488 84.8019 59.3674 85.6353 62.8058 85.5793C68.682 85.4835 73.1684 85.2653 76.7199 86.0578C81.9203 87.2183 84.6162 88.1448 87.7179 88.2099C89.0359 88.2376 89.9217 87.5462 90.4722 86.861C91.0366 86.1584 90.8216 84.7329 90.5911 83.4492C90.2448 81.5199 87.1361 81.5523 84.3607 79.9669C82.3467 78.8164 79.2026 77.3453 73.9299 75.7331C71.2522 74.9144 68.7401 75.1332 67.0627 74.9496C64.7716 74.6989 62.2556 73.7316 59.9412 72.7997C57.916 71.9842 55.0018 69.9247 52.3066 67.7784C48.2957 64.5845 44.7553 60.5045 38.8345 57.0731C34.8329 54.7539 26.998 51.0771 22.7158 48.8599C16.4653 45.6238 13.9462 44.1211 11.7952 42.481C9.22447 40.5207 7.06977 38.6496 5.43186 37.363C3.98275 36.2247 3.89265 32.7221 3.55092 30.2532C3.30579 28.4822 2.55923 26.4802 2.40943 24.7629C2.3249 23.7939 4.33244 23.4766 5.7019 23.1412C7.55803 22.6866 10.1522 24.8371 13.6057 26.2371C15.7798 27.1185 18.6358 28.2586 21.3867 30.7602C23.7464 32.9061 26.6354 34.3484 28.4401 35.6367C30.9172 37.4049 35.273 38.9501 38.9751 40.0968C43.131 41.3839 45.5626 41.2942 47.4011 42.2738C49.6633 43.4791 52.4366 46.0618 54.4367 48.7407C56.5632 51.5889 59.3207 56.4097 61.0823 57.6281C63.0401 58.9822 65.1437 58.84 70.338 58.9965C75.0101 59.1372 79.8037 62.3484 87.1197 62.5979C90.1139 62.7001 91.6738 63.0991 92.4354 62.7499C94.3161 61.8875 94.259 58.0198 93.8213 55.7845C93.488 54.082 90.7698 53.9446 88.9014 53.1702C87.1134 52.4291 85.2127 51.0557 83.8862 49.5389C82.5774 48.0423 79.6965 46.0151 76.9226 44.604C74.261 43.2502 69.3047 40.5247 65.9705 39.0924C61.9689 37.3734 57.6311 37.3285 55.2338 36.6749C53.2368 36.1304 51.124 32.2875 49.2161 30.2674C46.8982 27.8132 41.7642 24.6508 38.7769 23.7282C36.4448 23.008 34.6485 22.0057 32.8024 20.4881C31.1155 19.1015 30.196 17.5515 29.0781 16.0216C28.5142 15.2499 27.558 14.4634 26.7358 13.4572C26.0958 12.674 26.2805 10.804 26.4459 8.96885C26.594 7.32556 29.821 7.832 31.7349 7.4956C34.9185 6.93601 36.9826 8.1137 39.07 9.26641C42.52 11.1716 44.3628 11.4724 46.2164 12.6647C47.7408 13.6452 49.0705 14.8256 51.0356 15.3424C53.5303 15.9986 54.9878 18.1682 56.3648 19.489C58.1463 21.1978 60.5154 21.8053 63.0954 22.1777C65.7459 22.5604 67.4772 22.6414 69.4345 23.6024C71.7248 24.7268 73.2017 26.9165 75.4638 29.1118C79.0449 32.5872 80.6349 34.6545 83.9225 36.8255C85.7971 38.0634 88.1615 37.9173 91.2981 38.079C92.3666 38.1341 94.3123 37.8814 96.6757 37.6548C97.5257 37.5733 97.5589 36.9751 97.559 36.5292C97.5593 35.6562 97.4344 33.2835 97.2347 30.3949C97.1624 29.3496 94.9333 29.6303 92.2292 29.0079C90.3412 28.5733 88.6591 27.2548 86.7942 25.5574C83.1607 22.2502 81.9409 20.1274 79.7657 18.8402C77.9825 17.785 71.7833 15.894 66.8753 13.7205C64.2912 12.5761 61.7246 10.2762 59.649 8.76479C56.4566 6.44014 54.5267 5.41781 53.11 3.92065C52.7463 3.53631 52.5619 3.00099 52.6124 2.61795C52.8198 1.04757 55.4978 1.01472 57.2729 0.661842C60.4235 0.0354922 66.0558 1.35038 68.2109 2.48685C70.2051 3.53846 72.9154 4.42387 75.2255 5.1227C77.8332 5.91159 80.1863 6.8898 83.3078 8.79173C85.082 9.87276 86.5924 11.0618 88.7634 12.0396C90.8125 12.9623 93.9113 13.9005 96.036 14.9454C97.7306 15.7788 99.6943 16.4998 101.576 17.2188C103.731 18.0422 105.359 20.1228 107.532 21.8128C110.859 24.4 113.688 26.1572 115.526 27.7648C117.766 29.7241 120.957 31.0296 127.684 31.3941C131.558 31.6041 135.678 33.117 143.087 36.274C152.843 40.431 154.556 42.8964 156.601 43.9322C158.464 44.876 161.114 46.9352 162.685 48.6657C164.114 50.2392 165.066 51.969 167.049 53.4384C169.716 55.4137 171.764 55.8383 173.612 56.4738C176.385 57.4274 178.364 58.5466 181.274 58.6253C185.492 58.7393 188.401 57.6371 190.782 56.7196C193.648 55.6152 195.788 55.518 197.349 56.153C199.366 56.4193 203.986 56.3589 206.49 56.3555C206.559 56.1988 206.262 55.7905 205.769 55.2782" stroke="black" stroke-linecap="round"/>
<path d="M111.354 111.406C110.861 111.713 108.927 114.107 107.252 116.439C106.091 118.057 104.138 118.985 101.314 119.966C100.115 120.382 94.0946 120.326 85.6545 120.25C81.22 120.211 79.8925 118.775 78.202 117.554C76.1896 116.101 74.246 115.782 71.595 115.566C68.6028 115.323 66.7967 116.061 63.6499 117.022C61.2828 118.002 59.3509 118.844 58.3904 119.324C57.9523 119.558 57.6142 119.773 57.266 119.994" stroke="black" stroke-linecap="round"/>
</svg>
