<svg width="251" height="321" viewBox="0 0 251 321" fill="none" xmlns="http://www.w3.org/2000/svg">
<path d="M114.593 319.358C114.593 319.236 114.593 319.113 100.871 305.234C87.1487 291.354 59.7046 263.721 43.7091 246.924C23.38 225.577 17.4476 212.778 11.7191 192.521C8.00628 179.391 5.5086 159.752 3.58538 135.588C1.66216 111.423 1.11793 83.1437 1.75231 64.3803C3.06177 25.6497 10.1577 17.7874 14.4221 11.3625C20.3 2.50651 34.6776 1.61354 47.2248 1.50047C52.6706 1.45139 56.1273 5.26738 58.6163 7.73443C61.2951 10.3896 65.2164 17.0073 75.5465 40.7653C83.6525 59.4082 94.8091 92.5659 102.19 114.384C117.348 159.191 116.108 169.316 116.921 169.795C121.995 172.786 131.402 143.635 153.786 111.167C176.446 78.2977 197 62.0036 205.759 56.5486C214.864 50.8785 227.315 50.4524 237.749 50.4476C241.855 50.4457 243.54 50.9267 245.02 53.842C249.002 61.6879 249.3 80.0132 248.995 101.28C248.782 116.179 237.11 133.646 212.539 164.334C196.862 183.914 171.258 208.774 157.076 223.682C130.867 251.236 121.454 270.196 118.443 277.502C113.824 288.693 110.77 298.442 109.781 303.841C109.445 306.829 109.445 310.324 109.445 313.924" stroke="#E16D6D" stroke-width="3" stroke-linecap="round"/>
</svg>
