<svg width="183" height="157" viewBox="0 0 183 157" fill="none" xmlns="http://www.w3.org/2000/svg">
<path d="M5.50061 78.4471C6.27439 77.8662 9.67809 75.1999 11.6552 72.7087C13.9058 69.8729 15.5952 66.7833 17.0412 62.9464C18.9014 58.0103 20.211 55.4162 24.7792 49.4498C27.7974 45.5077 29.7501 43.0383 35.3508 36.0981C39.2871 31.2203 41.4741 29.5341 43.7438 28.0743C46.0296 26.6042 49.4163 26.9054 55.0011 26.3244C66.5595 25.1219 68.7355 27.2527 72.8164 28.274C80.5378 30.2063 84.3114 27.6767 88.489 27.1652C92.4154 26.6846 99.3732 25.0244 103.891 23.9857C106.357 23.4186 116.608 23.1924 124.094 24.1826C127.399 24.6198 130.377 28.2297 138.921 37.8727C143.383 42.9084 147.942 48.5817 152.695 54.5404C155.372 57.8969 156.96 60.0985 158.824 62.5254C162.324 67.0805 166.804 69.7077 169.303 71.6018C171.766 73.4686 174.738 74.5217 178.793 76.2698C179.946 76.7668 181.092 77.4721 181.776 78.1099C182.46 78.7477 182.621 79.3551 182.42 79.477C182.22 79.599 181.652 79.2171 181.077 78.8238C180.502 78.4306 179.937 78.0375 178.635 77.4739" stroke="black" stroke-linecap="round"/>
<path d="M8.82372 79.5001C8.30598 79.8677 5.96008 81.7796 3.61085 83.1853C2.49991 83.85 1.34034 84.533 0.674246 85.6749C0.364951 86.2051 0.501616 86.8174 0.827132 87.3726C3.17896 91.3841 9.61043 93.6441 10.8262 95.8646C12.6629 99.2194 14.9741 104.8 17.3819 108.009C19.1287 110.336 22.5238 114.087 26.833 118.992C29.6809 122.234 37.7262 130.408 43.2453 136.669C45.3763 139.086 48.4298 140.189 51.9032 141.193C57.4277 142.792 61.2976 143.246 66.3797 143.361C72.4701 143.5 78.1691 143.658 83.2084 143.164C86.5807 142.833 90.1642 141.138 97.0047 139.479C102.317 138.191 106.484 139.965 114.833 140.163C119.633 140.277 122.281 139.767 125.488 139.334C131.313 138.546 133.953 137.434 136.57 135.912C139.285 134.334 142.369 132.304 144.51 130.184C147.284 127.437 151.839 121.443 155.435 118.68C158.264 116.507 160.468 115.066 163.396 112.065C165.576 109.832 166.472 106.898 167.534 104.369C168.702 101.587 170.483 97.0361 172.327 93.5358C173.572 90.5889 174.932 88.2504 176.137 85.6274C176.56 84.3427 176.6 83.152 177.501 81.0543" stroke="black" stroke-linecap="round"/>
<path d="M13.5006 84.5001C14.312 84.1993 19.024 82.6319 24.1639 80.4441C27.8625 78.8699 32.3131 77.4401 36.2819 75.7122C40.181 74.0147 41.6366 70.1162 42.765 67.6542C44.0902 64.7629 46.9622 60.844 48.8909 58.3219C51.8435 54.4609 56.0794 51.4402 58.0779 50.3902C60.3366 49.2035 62.8339 47.9833 74.9014 48.0336C82.1873 48.0641 86.2877 49.6771 89.9046 49.6554C92.938 49.6372 96.9795 47.739 106.019 46.9192C109.423 46.6106 112.2 46.1084 115.081 47.0184C118.98 48.25 121.714 49.1938 124.801 51.6597C130.123 55.9103 133.06 57.8513 140.603 64.8295C144.101 68.0657 145.394 70.3711 150.409 74.6576C152.938 76.8188 155.624 76.6633 159.662 77.3364C163.514 77.6852 167.78 78.0903 170.359 78.7034C170.975 78.827 171.54 78.9078 171.498 78.991" stroke="black" stroke-linecap="round"/>
<path d="M16.5006 86.1886C17.6497 86.32 21.2536 86.6892 25.1653 87.1303C29.7421 87.6464 32.522 88.0273 38.734 90.9789C42.1866 92.6195 44.7521 94.9168 47.6182 98.6578C49.9141 101.655 51.8216 103.128 54.858 104.483C60.1812 106.858 63.3077 106.352 79.0694 106.496C85.7478 106.557 93.1082 105.898 100.439 105.52C111.149 104.968 120.915 104.923 126.011 104.287C129.547 103.846 133.063 101.485 135.42 99.6353C138.383 97.3097 139.56 95.2047 142.042 93.9158C144.339 92.7228 147.453 91.4333 150.128 90.1499C152.371 89.074 156.107 86.6052 159.113 84.3367C161.049 82.8759 161.891 80.5694 164.138 79.5753C164.874 79.4492 165.8 79.4492 166.565 79.8323C167.33 80.2154 167.907 80.9817 168.501 81.7711" stroke="black" stroke-linecap="round"/>
<path d="M67.5006 79.437C68.5457 79.5334 75.2189 79.632 81.9353 79.5048C85.6403 79.4346 87.8443 78.2386 90.0946 76.6953C90.7071 76.2753 91.2363 75.6597 91.7103 75.664C92.771 75.6735 93.288 77.2957 94.2651 77.9397C97.3051 79.9433 102.052 78.9372 104.529 79.1822C108.303 79.5554 113.144 79.2766 116.537 79.1396C117.641 79.095 119.015 79.0823 119.884 78.8528C121.215 78.5014 121.655 76.7787 122.39 75.076C123.344 72.8643 127.495 77.6378 129.745 79.0435C132.067 80.4947 135.309 80.1073 137.937 79.9154C140.678 79.7151 141.795 78.2235 142.446 77.508C143.777 76.0455 146.273 79.1769 148.372 80.1504C149.614 80.7265 151.539 80.4562 153.348 80.2845C154.11 80.1128 154.556 79.7693 154.785 79.3061C155.014 78.843 155.014 78.2705 155.501 77.2182" stroke="black" stroke-linecap="round"/>
<path d="M66.5006 79.0701C65.0773 78.3575 61.826 76.3829 60.6316 75.7019C58.7385 74.6227 57.4878 78.1618 55.8257 79.465C53.8132 81.0429 50.7513 80.0185 48.5611 79.3647C46.2691 78.6805 44.5951 79.3508 43.7084 79.8523C42.8308 80.3487 42.8576 81.807 42.3647 82.7934C41.1208 85.2827 35.0248 84.4821 32.0326 83.8912C30.4716 83.1373 29.0561 82.3927 27.9038 81.7588C27.2827 81.4093 26.5879 81.0031 25.5006 80.3384" stroke="black" stroke-linecap="round"/>
<path d="M73.5006 93.7955C73.5813 93.7955 74.1085 93.2923 75.1309 92.351C77.7486 89.9407 87.0683 91.141 91.8497 92.2951C92.7228 92.5059 93.6882 93.0174 94.4546 93.053C96.9382 93.1682 105.501 91.0113 111.069 91.637C113.318 91.8896 115.11 93.7827 117.21 94.6004C119.247 95.3933 121.454 92.6049 123.908 92.224C125.03 92.0499 125.907 91.1613 127.026 91.1156C129.231 91.0255 131.202 92.6482 134.175 94.3337C135.111 94.8638 136.205 95.4733 136.928 95.4983C139.726 95.5952 141.925 91.7119 144.275 90.7571C145.299 90.3412 146.049 89.4619 147.31 89.5014C147.925 89.5829 148.49 89.7889 149.182 90.0862C149.873 90.3836 150.675 90.7659 151.501 91.2825" stroke="black" stroke-linecap="round"/>
<path d="M74.5006 94.5672C74.0206 94.7313 72.8832 95.8754 72.3721 96.7458C71.3273 98.525 68.2888 96.7173 66.0465 95.8108C63.797 94.9014 62.103 93.9588 61.0561 93.8221C60.1594 93.7051 59.5135 95.0514 57.6163 95.1789C51.8798 95.5644 50.4941 93.0215 49.6131 92.5003C48.61 92.489 47.6174 92.9962 46.7399 93.814C46.31 94.2531 45.9113 94.7413 45.5006 95.3717" stroke="black" stroke-linecap="round"/>
<path d="M91.4058 71.5001C91.5009 70.746 91.694 67.3945 90.9463 64.6189C90.2673 62.0985 89.3342 59.826 89.1501 57.1836C88.3215 54.8924 86.7809 53.2768 84.6599 52.2353C84.082 52.046 83.4955 51.9149 81.5006 51.5001" stroke="black" stroke-linecap="round"/>
<path d="M90.5006 55.5001C90.5006 55.4144 90.8303 54.8218 91.6363 53.7764C92.1127 53.2795 92.7258 52.8509 93.3246 52.4801C93.9234 52.1093 94.4893 51.8092 95.5006 51.5001" stroke="black" stroke-linecap="round"/>
<path d="M63.5006 54.5001C63.3231 54.5001 62.6194 54.5001 61.5142 54.7219C59.1025 55.2057 59.4936 57.7336 59.2051 58.4912C58.3397 58.5642 57.124 58.1783 55.8498 57.7408C55.1969 57.5463 54.5313 57.4075 52.5006 57.2645" stroke="black" stroke-linecap="round"/>
<path d="M116.501 51.5001C118.183 51.8239 121.983 53.1854 123.828 55.1443C124.535 56.0726 125.144 56.9854 125.768 57.4971C126.112 57.5393 126.512 57.14 128.501 56.4874" stroke="black" stroke-linecap="round"/>
<path d="M142.501 69.5001C142.603 69.6532 143.133 70.2025 143.984 71.2008C144.358 71.7287 144.615 72.2998 144.85 72.8411C145.085 73.3823 145.29 73.8762 145.501 74.5001" stroke="black" stroke-linecap="round"/>
<path d="M56.5006 65.5001C56.5771 65.5001 56.6536 65.5001 57.1809 66.0991C57.7082 66.6981 58.684 67.896 60.5006 70.5001" stroke="black" stroke-linecap="round"/>
<path d="M41.5006 74.5001C41.5006 74.5377 41.5006 74.5753 41.6326 74.8778C41.7646 75.1804 42.0286 75.7467 42.2966 76.3026C42.5646 76.8584 42.8286 77.3865 43.5006 78.5001" stroke="black" stroke-linecap="round"/>
<path d="M71.5006 105.5C71.5667 105.376 71.6338 104.506 71.8969 103.534C72.1269 103.366 72.553 103.862 72.9719 104.24C73.3907 104.618 73.7894 104.863 74.5006 105.207" stroke="black" stroke-linecap="round"/>
<path d="M95.5006 104.979C95.5006 104.892 95.5591 103.336 95.7144 101.547C95.8112 101.27 95.9444 102.275 96.1594 103.069C96.3743 103.863 96.667 104.416 97.5006 105.5" stroke="black" stroke-linecap="round"/>
<path d="M120.501 105.5C120.501 105.264 120.501 105.029 120.567 104.601C120.633 104.173 120.766 103.56 121.501 101.5" stroke="black" stroke-linecap="round"/>
<path d="M57.5006 102.5C57.5739 102.686 57.6473 102.873 57.832 103.273C58.0168 103.673 58.3108 104.282 58.6661 104.772C59.0214 105.261 59.4292 105.613 60.5006 105.467" stroke="black" stroke-linecap="round"/>
<path d="M72.5006 6.66349C72.5006 8.1391 72.7437 11.874 74.7522 14.5838C76.6092 17.0892 79.421 17.2744 83.9343 17.4667C89.0318 17.684 92.5618 16.8121 93.1952 15.6869C94.4164 13.5176 94.6499 10.9431 94.4236 8.66187C93.3628 6.08562 92.5299 3.82741 92.0522 2.59548C91.8218 1.9958 91.6158 1.44786 91.2786 0.500122" stroke="black" stroke-linecap="round"/>
<path d="M75.5006 156.5C77.0645 155.988 81.3921 153.9 84.4145 151.977C88.4592 151.037 92.9009 151.601 104.858 152.668C107.801 153.014 109.756 153.483 112.501 153.967" stroke="black" stroke-linecap="round"/>
</svg>
