<svg width="177" height="79" viewBox="0 0 177 79" fill="none" xmlns="http://www.w3.org/2000/svg">
<mask id="path-1-inside-1_60_523" fill="white">
<path d="M177 0C177 20.9521 167.676 41.046 151.079 55.8614C134.482 70.6768 111.972 79 88.5001 79C65.0285 79 42.5181 70.6769 25.9211 55.8615C9.32416 41.0462 4.83129e-05 20.9522 1.87482e-10 0.000160217L17.9559 0.0001297C17.9559 16.7012 25.3882 32.7183 38.6178 44.5277C51.8474 56.3372 69.7906 62.9716 88.5001 62.9716C107.21 62.9716 125.153 56.3371 138.382 44.5276C151.612 32.7182 159.044 16.7011 159.044 0H177Z"/>
</mask>
<path d="M177 0C177 20.9521 167.676 41.046 151.079 55.8614C134.482 70.6768 111.972 79 88.5001 79C65.0285 79 42.5181 70.6769 25.9211 55.8615C9.32416 41.0462 4.83129e-05 20.9522 1.87482e-10 0.000160217L17.9559 0.0001297C17.9559 16.7012 25.3882 32.7183 38.6178 44.5277C51.8474 56.3372 69.7906 62.9716 88.5001 62.9716C107.21 62.9716 125.153 56.3371 138.382 44.5276C151.612 32.7182 159.044 16.7011 159.044 0H177Z" fill="url(#paint0_linear_60_523)" stroke="#4D4D4D" stroke-width="2" mask="url(#path-1-inside-1_60_523)"/>
<defs>
<linearGradient id="paint0_linear_60_523" x1="110" y1="-66.3787" x2="109.126" y2="178.568" gradientUnits="userSpaceOnUse">
<stop offset="0.240204" stop-color="#D9D9D9"/>
<stop offset="0.375" stop-color="#737373"/>
<stop offset="0.564924" stop-color="#F4F4F4"/>
</linearGradient>
</defs>
</svg>
