<svg width="96" height="64" viewBox="0 0 96 64" fill="none" xmlns="http://www.w3.org/2000/svg">
<path d="M10.5161 1.14973C10.6874 1.1896 10.8777 1.2392 11.087 1.29853C11.3061 1.33887 11.5346 1.38408 11.7726 1.43415C12.1913 1.55281 12.4911 1.62258 12.6722 1.64346C12.863 1.64536 13.0582 1.68547 13.2578 1.76378C13.4861 1.83284 13.6667 1.90142 13.7996 1.96953C13.9612 2.02838 14.1749 2.12592 14.4407 2.26214C14.4207 2.34781 14.4054 2.44784 14.3947 2.56222C14.4128 2.66735 14.3975 2.76738 14.3488 2.86231C14.3241 3.42498 14.3921 3.78345 14.5528 3.9377C14.7135 4.09196 14.8989 4.15105 15.1092 4.11497C15.3195 4.0789 15.5158 3.99976 15.6983 3.87754C15.8998 3.76505 16.0195 3.71854 16.0575 3.738L18.3927 4.93477L20.0085 7.95627C20.1117 8.12903 20.2098 8.33514 20.3029 8.57459C20.3959 8.81404 20.4933 9.0917 20.5951 9.40757C20.7797 10.0296 20.9434 10.3651 21.086 10.4143L20.2146 11.6936C20.2049 11.7126 20.2236 11.7462 20.2708 11.7944C20.3181 11.8425 20.3458 11.9287 20.3541 12.0528C20.3912 12.1677 20.3849 12.3203 20.3353 12.5106C20.3047 12.7106 20.1877 12.9623 19.9843 13.2656C19.5868 13.9009 19.2851 14.4894 19.0794 15.0312C18.8736 15.573 18.6881 16.0053 18.5227 16.3281C18.5129 16.347 18.2601 16.3493 17.7641 16.3348C17.2876 16.2824 16.9423 16.465 16.7282 16.8827C16.643 16.815 16.3818 16.6932 15.9447 16.5171C15.5363 16.3317 15.0746 16.227 14.5596 16.2028L13.0869 16.0593L11.3498 15.169C10.9891 14.9842 10.6515 14.8711 10.337 14.8298C10.0323 14.7695 9.77022 14.7431 9.5507 14.7504C9.33119 14.7578 9.14964 14.7846 9.00607 14.8309C8.87222 14.8582 8.64392 14.7891 8.32117 14.6237C8.25211 14.852 8.21711 15.0138 8.21616 15.1092C8.07164 15.2509 7.87431 15.4255 7.62418 15.6329C7.40276 15.831 7.26773 15.9776 7.21908 16.0725C7.1607 16.1864 7.078 16.3478 6.97097 16.5566C6.88293 16.7752 6.7657 17.0507 6.61927 17.3832C6.46312 17.7347 6.24123 17.9805 5.95361 18.1208C5.67571 18.242 5.50271 18.3691 5.4346 18.502C5.36507 18.778 5.27145 19.0776 5.15374 19.4009C5.06475 19.7148 4.97575 20.0288 4.88676 20.3428L4.03634 20.9497C3.98864 20.9492 3.94581 20.9393 3.90784 20.9198C3.88885 20.9101 3.85551 20.905 3.80781 20.9045C3.32202 20.8233 2.96522 20.7244 2.7374 20.6076C2.69943 20.5882 2.62348 20.5492 2.50957 20.4909C2.42438 20.4232 2.32019 20.3459 2.19703 20.2588C2.07386 20.1717 1.95532 20.0989 1.84141 20.0406C1.73723 19.9632 1.66615 19.9148 1.62818 19.8953C1.59021 19.8759 1.48045 19.8795 1.29891 19.9064C1.13634 19.9429 0.959663 19.9602 0.768861 19.9583L0.231339 19.3233C0.349046 19.0001 0.505199 18.6486 0.699796 18.2689C0.913379 17.8989 1.06929 17.5713 1.16754 17.286C1.26342 17.2393 1.4172 17.1263 1.62888 16.9472C1.8503 16.749 2.04905 16.4313 2.22513 15.9942C2.41095 15.5381 2.60045 15.1917 2.79362 14.9551C2.98679 14.7185 3.1223 14.5243 3.20014 14.3724C3.22933 14.3154 3.27869 14.149 3.34822 13.873C3.44647 13.5877 3.54401 13.374 3.64083 13.2318C3.689 13.1846 3.77539 13.133 3.89998 13.077C4.02457 13.021 4.12578 12.917 4.20362 12.7652C4.49599 12.1479 4.73461 11.6589 4.91948 11.2982C5.10435 10.9375 5.25611 10.5478 5.37476 10.1292C5.3947 10.0435 5.44311 9.97243 5.52 9.91595C5.62561 9.85021 5.71733 9.7414 5.79517 9.58952C5.87301 9.43764 6.10996 9.1156 6.50604 8.62341C6.93083 8.12196 7.34412 7.33894 7.74589 6.27434C8.15691 5.23845 8.47503 4.43063 8.70024 3.85087C8.92545 3.2711 9.07674 2.92913 9.15411 2.82495C9.29911 2.63557 9.3913 2.47906 9.4307 2.35542C9.47009 2.23178 9.54817 2.05605 9.66492 1.82822L10.5161 1.14973ZM13.7224 14.0477C13.771 13.9528 14.0825 13.8128 14.6568 13.6277C15.2403 13.4713 15.5662 13.3266 15.6343 13.1937L16.5922 10.4125L16.8168 9.41292L15.7688 5.42389L14.6867 4.86928L14.1755 4.46348L13.8893 4.46063C13.7929 4.55508 13.4383 5.20034 12.8253 6.39642C12.2021 7.65917 11.8372 8.37112 11.7307 8.53226C11.2439 8.5465 10.9111 8.91529 10.7322 9.63863C10.5819 10.3527 10.3195 10.8415 9.94475 11.1049C9.85861 11.1327 9.78635 11.2035 9.72797 11.3174C9.59175 11.5832 9.48958 11.7825 9.42148 11.9154C9.38208 12.0391 9.28015 12.2146 9.1157 12.4419C9.10597 12.4609 9.08627 12.5227 9.05661 12.6274C9.04593 12.7418 9.00143 12.8988 8.92312 13.0983L10.1943 13.3543C10.097 13.5441 10.5159 13.6389 11.4509 13.6387C11.9376 13.6245 12.3097 13.6234 12.5672 13.6355C12.8247 13.6476 12.9724 13.6634 13.0104 13.6828L13.7224 14.0477ZM17.3106 26.9257C17.3782 26.8405 17.4315 26.7599 17.4704 26.6839C17.538 26.5988 17.6057 26.5136 17.6733 26.4284C18.1959 25.6894 18.5301 25.1775 18.6761 24.8927C18.7053 24.8357 18.7349 24.7311 18.7651 24.5787C18.8142 24.4361 18.8439 24.3314 18.8541 24.2648L22.365 18.0455C22.3382 17.864 22.4068 17.6834 22.5707 17.5037C22.7445 17.3051 22.9029 17.2065 23.046 17.2079C23.2581 16.981 23.5182 16.7308 23.8263 16.4572C24.1533 16.1933 24.4097 15.8333 24.5955 15.3771C24.6836 15.1586 24.7901 14.9974 24.9152 14.8937C25.05 14.771 25.1461 14.7004 25.2035 14.6819L25.5481 14.5709C25.7778 14.4968 25.9314 14.4077 26.0087 14.3035C26.0958 14.1804 26.1401 14.0472 26.1415 13.9041C26.1429 13.761 26.1108 13.6367 26.045 13.5311C26.008 13.4162 25.9613 13.3203 25.9048 13.2434C25.877 13.1573 25.868 13.1047 25.8777 13.0857C25.9741 12.9913 26.0417 12.9061 26.0806 12.8301C26.1195 12.7542 26.1064 12.6396 26.0411 12.4863L26.4483 11.832C26.6114 11.7478 26.8163 11.7689 27.0631 11.8954C27.3386 12.0126 27.5523 12.1101 27.7042 12.188C27.7612 12.2172 27.8561 12.2658 27.989 12.3339C28.1316 12.383 28.2884 12.4514 28.4592 12.539L28.9864 12.7732C29.0911 12.8028 29.1719 12.8323 29.2289 12.8615C29.3048 12.9004 29.3712 12.9344 29.4282 12.9636L29.8144 12.9818C29.9862 12.9739 30.1101 12.9895 30.1861 13.0284C30.243 13.0576 30.3328 13.1396 30.4555 13.2744C30.607 13.3999 30.7484 13.5683 30.8799 13.7795L29.3218 16.4689L27.7964 18.7436C27.7575 18.8195 27.6274 18.9566 27.4059 19.1547C27.1943 19.3339 27.002 19.4751 26.8293 19.5783C26.7718 19.5968 26.7139 19.6631 26.6556 19.777C26.6069 19.8719 26.5485 19.9858 26.4804 20.1187C26.441 20.2423 26.3921 20.3611 26.3338 20.475C26.2944 20.5987 26.2506 20.6841 26.2024 20.7313L24.9376 22.7081C24.9182 22.746 24.8797 22.7743 24.8223 22.7928C24.7936 22.802 24.7311 22.8539 24.6347 22.9483C24.5671 23.0335 24.4656 23.1613 24.3303 23.3317C24.1951 23.5021 24.0304 23.7533 23.8363 24.0853C23.4286 24.7873 23.1327 25.271 22.9488 25.5363C22.7649 25.8016 22.6632 25.9532 22.6438 25.9912C22.5465 26.1811 22.5353 26.3431 22.6103 26.4775C22.7043 26.6215 22.7123 26.7695 22.6345 26.9214C22.5196 26.9584 22.4657 27.1105 22.4725 27.3777C22.4984 27.6547 22.6581 27.9043 22.9517 28.1267C23.2452 28.3491 23.6157 28.5149 24.063 28.6243C24.5201 28.7148 24.9957 28.8626 25.4898 29.0679C25.6606 29.1554 25.7553 29.2279 25.7738 29.2854C25.8113 29.3525 25.8345 29.4243 25.8433 29.5007C25.8808 29.5679 25.9419 29.6591 26.0266 29.7745C26.14 29.8806 26.3627 30.0307 26.6947 30.2248C26.7707 30.2637 26.9423 30.2797 27.2095 30.2728C27.4957 30.2757 27.683 30.144 27.7716 29.8777C27.9234 29.9555 28.1279 30.0244 28.3849 30.0842C28.6609 30.1537 28.932 30.2327 29.1983 30.3212C29.4646 30.4098 29.6829 30.5217 29.8533 30.6569C30.0334 30.7732 30.1082 30.9314 30.0776 31.1314L29.9726 31.617C29.9341 31.6452 29.9003 31.6878 29.8711 31.7448C29.8516 31.7827 29.8178 31.8253 29.7696 31.8726C29.702 31.9578 29.6054 32.0761 29.4799 32.2275C29.3641 32.3599 29.2337 32.5208 29.0887 32.7102C28.6705 32.5438 28.4473 32.4414 28.4191 32.403C28.3908 32.3645 28.3577 32.3356 28.3198 32.3161C28.2628 32.2869 28.1484 32.2763 27.9766 32.2841C27.8335 32.2827 27.7143 32.2815 27.6189 32.2805C27.4952 32.2411 27.2908 32.1723 27.0055 32.0741C26.7392 31.9855 26.4065 31.863 26.0074 31.7063C25.7791 31.6373 25.5841 31.5733 25.4225 31.5145C25.2896 31.4464 25.1708 31.3975 25.0662 31.3678C24.9805 31.3479 24.8807 31.3087 24.7668 31.2503C24.7478 31.2406 24.6765 31.2161 24.5529 31.1767C24.4389 31.1183 24.306 31.0502 24.1542 30.9723L23.2998 30.5345C22.9396 30.3019 22.6789 30.1324 22.5178 30.0258C22.3756 29.929 22.2522 29.8657 22.1475 29.8361C22.0716 29.7972 21.9811 29.7867 21.8759 29.8048C21.7995 29.8135 21.6277 29.8214 21.3605 29.8282C21.2748 29.8083 21.1276 29.7448 20.9187 29.6378L19.6942 29.0102C19.552 28.9134 19.4335 28.8407 19.3386 28.792C19.2723 28.7341 19.1966 28.6713 19.1114 28.6037L17.8257 28.3762C17.5793 28.2021 17.4289 27.9811 17.3743 27.7134C17.3197 27.4457 17.2985 27.1831 17.3106 26.9257ZM53.099 24.5195L53.6277 24.6106L54.471 24.7192L55.8315 26.0637L55.7528 26.7785C55.0687 27.4586 54.4178 28.1439 53.8003 28.8343C53.1828 29.5246 52.7022 30.369 52.3583 31.3674C52.2814 31.4238 52.1658 31.5324 52.0116 31.6931C51.8763 31.8635 51.7457 32.0482 51.6196 32.2473C51.5223 32.4372 51.444 32.6368 51.3847 32.8461C51.3541 33.0461 51.4001 33.2136 51.5228 33.3484L49.5041 36.3051L47.2305 38.9873L44.5173 41.2645C44.3348 41.3867 44.0055 41.3978 43.5295 41.2976C43.0724 41.2072 42.4827 41.0248 41.7603 40.7505C41.0666 40.4669 40.2688 40.106 39.3667 39.6676C38.4837 39.2391 37.5249 38.7477 36.4904 38.1936L35.8294 37.0278L34.8896 36.5461C34.6618 36.4294 34.3674 35.811 34.0065 34.6912C33.9139 34.404 33.8352 34.1599 33.7704 33.9589C33.7154 33.7389 33.6647 33.5571 33.6184 33.4136C33.6004 33.3084 33.5636 33.1697 33.5081 32.9974C33.5567 32.9025 33.6253 32.7219 33.7138 32.4556C33.8311 32.1801 33.9444 31.8187 34.0538 31.3713C34.1914 30.9625 34.2327 30.648 34.1777 30.428C34.1323 30.189 34.1245 30.0172 34.1542 29.9126C34.1741 29.8269 34.2422 29.694 34.3585 29.5139C34.5035 29.3245 34.6246 29.1349 34.7219 28.945C34.848 28.7459 34.9309 28.5607 34.9708 28.3894C35.0296 28.2277 34.9926 28.1129 34.8597 28.0448L35.8917 26.4521C36.1228 26.235 36.379 25.8988 36.6602 25.4437C36.9701 24.9792 37.247 24.4859 37.4907 23.9635C37.7247 23.4602 37.9095 23.0995 38.0453 22.8814C38.181 22.6633 38.3693 22.4362 38.6102 22.2L39.2321 21.5479C39.4803 21.5313 39.6718 21.4616 39.8066 21.3389C39.9701 21.207 40.0813 21.0602 40.1402 20.8986C40.2277 20.7277 40.2628 20.5659 40.2452 20.413C40.2374 20.2412 40.1957 20.112 40.1202 20.0254C39.9878 19.9096 39.9654 19.7662 40.053 19.5954C40.1692 19.4152 40.2464 19.3349 40.2843 19.3544C40.4293 19.165 40.512 19.0036 40.5325 18.8703C40.5329 18.8226 40.6986 18.476 41.0294 17.8305L41.7873 17.8952C42.0151 18.012 42.2767 18.0862 42.5722 18.1177C42.8676 18.1493 43.1529 18.2475 43.4279 18.4125C43.5798 18.4903 43.7694 18.6114 43.9968 18.7759C44.2241 18.9404 44.4466 19.1143 44.6642 19.2978C44.9106 19.4719 45.1284 19.6315 45.3178 19.7765C45.5262 19.9313 45.6824 20.0473 45.7866 20.1247L45.9817 20.6562C45.8177 20.8358 45.6922 20.9872 45.6051 21.1104C45.518 21.2335 45.4501 21.3426 45.4015 21.4375C45.3625 21.5135 45.3329 21.6181 45.3125 21.7515L44.6091 23.4046C44.6091 23.4046 44.5609 23.4519 44.4646 23.5463C44.3974 23.5838 44.3205 23.6403 44.2339 23.7157C44.157 23.7722 44.0704 23.8477 43.974 23.9421C43.7623 24.1213 43.5699 24.2864 43.3966 24.4373C43.2521 24.579 43.1266 24.7304 43.02 24.8915C42.9524 24.9767 42.8407 25.1712 42.685 25.475C42.5581 25.7695 42.4015 26.1686 42.2152 26.6725C42.1174 26.91 42.015 27.1332 41.908 27.3421C41.8297 27.5416 41.7516 27.7174 41.6737 27.8693L41.4256 28.3534C41.1297 28.3695 40.9037 28.5533 40.7475 28.9048C40.5913 29.2562 40.4442 29.6603 40.3061 30.1169C40.2862 30.2025 40.2088 30.3067 40.074 30.4294C39.9679 30.5429 39.8329 30.6894 39.6689 30.869C39.5049 31.0487 39.3358 31.2617 39.1616 31.508C38.9875 31.7544 38.8318 32.0581 38.6946 32.4193C38.5574 32.7805 38.4254 33.1084 38.2984 33.4029C38.1812 33.6784 38.0785 33.9254 37.9905 34.144C37.9511 34.2676 37.9022 34.3864 37.8438 34.5003C37.7855 34.6142 37.732 34.7187 37.6833 34.8136L38.6743 35.8968L41.9269 38.3908L43.4156 38.3626C43.5957 38.4789 43.8249 38.4526 44.1033 38.2836C44.4006 38.1244 44.6505 37.9408 44.853 37.7329L47.7666 34.0123L48.2888 31.8707L52.0895 25.2966L53.099 24.5195ZM52.3525 43.0507L55.8471 44.2304L59.4183 44.9099L60.7717 44.0933L61.086 42.7082L60.8126 41.4174C60.6719 41.1775 60.5168 40.9422 60.3473 40.7115C60.2066 40.4716 60.0369 40.2648 59.8383 40.0911C59.6684 39.9081 59.4646 39.7677 59.2271 39.67C59.0183 39.5629 58.7754 39.5224 58.4984 39.5482L57.5238 39.696L55.7293 37.3739L55.9988 34.7433L58.6219 31.4491L60.8222 30.3833C60.811 30.5454 60.9006 30.6513 61.0909 30.7009C61.2813 30.7505 61.491 30.7621 61.7203 30.7357C61.9495 30.7094 62.16 30.6495 62.3518 30.556C62.5533 30.4435 62.6596 30.3062 62.6707 30.1441C63.0421 30.2146 63.461 30.3094 63.9273 30.4285C64.4034 30.5287 64.8468 30.5522 65.2576 30.499L69.3253 31.6128L69.9525 31.8624L70.1586 32.7231L69.0754 33.7141L67.8758 33.4589L66.4359 32.9008L63.817 32.889L62.2066 33.6458C61.7569 33.7749 61.4444 34.0103 61.2693 34.3521C61.1229 34.6846 61.0283 35.0796 60.9856 35.5371C60.9706 36.0808 60.9766 36.4434 61.0034 36.625C61.0589 36.7973 61.1478 36.9746 61.27 37.1571L62.6583 38.5878C62.7703 38.837 62.878 39.0479 62.9812 39.2207C63.1131 39.3842 63.2787 39.529 63.4778 39.655C63.6769 39.781 63.9614 39.9508 64.3314 40.1644C64.7204 40.3877 65.2089 40.674 65.7969 41.0234C65.8024 41.4337 65.8558 41.8206 65.9571 42.1842C66.0682 42.5288 66.1308 42.9444 66.1451 43.4312L66.0579 45.0046L63.7441 47.4145L62.6811 47.8047L60.2495 49.1114L59.5375 48.7466C59.2907 48.6201 58.9821 48.4739 58.6116 48.308C58.2699 48.1329 57.8617 47.9237 57.3871 47.6804C56.9125 47.4372 56.4705 47.2706 56.0611 47.1807C55.6517 47.0907 55.2755 47.0297 54.9323 46.9977C54.5989 46.9467 54.3083 46.9056 54.0605 46.8745C53.8128 46.8434 53.6083 46.7746 53.4472 46.6681L52.5825 45.8294L50.7279 45.2385L50.7574 43.7074L51.2932 43.0831L52.3525 43.0507ZM77.3125 48.7229L77.8318 46.8676L78.2195 46.7426L79.7003 47.5015C79.8332 47.5697 79.9851 47.6475 80.156 47.7351C80.3458 47.8324 80.5593 47.9537 80.7964 48.0992L83.49 49.228C83.7558 49.3642 84.0075 49.4812 84.2451 49.579C84.4826 49.6768 84.7206 49.7268 84.9591 49.7292C85.0263 49.6917 85.1076 49.6734 85.203 49.6744C85.3081 49.6564 85.4714 49.5483 85.6928 49.3501L86.3175 48.4117C86.431 48.5178 86.5331 48.3185 86.624 47.8137C86.6551 47.566 86.6904 47.3803 86.7297 47.2566C86.7979 47.1237 86.8984 47.0913 87.0313 47.1594C87.1568 47.008 87.3305 46.8094 87.5524 46.5635C87.784 46.2987 88.0254 46.0149 88.2764 45.712C88.5562 45.4 88.8265 45.083 89.0874 44.7612C89.3579 44.4204 89.6043 44.1033 89.8267 43.8097L91.9857 44.0172C92.2043 44.1053 92.4467 44.1936 92.7129 44.2821C92.9792 44.3706 93.255 44.464 93.5402 44.5622C93.8065 44.6507 94.0299 44.7293 94.2105 44.7979C94.4198 44.8572 94.6102 44.9068 94.7815 44.9467L95.1022 45.7942L94.3579 47.2466C93.9656 47.3572 93.6016 47.5062 93.2658 47.6937C92.9397 47.8622 92.6798 48.0886 92.4862 48.3729L92.1089 48.8987C91.9055 49.202 91.6734 49.5145 91.4126 49.8363C91.1708 50.1679 90.9683 50.3758 90.8053 50.46L90.6031 50.644L90.4974 51.2011C90.4677 51.3058 90.4816 51.3489 90.539 51.3304C90.5677 51.3211 90.5962 51.3357 90.6245 51.3741C90.4994 51.4778 90.3551 51.5957 90.1916 51.7276C90.0281 51.8596 89.8405 52.0151 89.6288 52.1943C89.4176 52.3258 89.2828 52.4485 89.2244 52.5624C89.1758 52.6573 89.2276 52.7198 89.38 52.75C89.3605 52.788 89.1956 53.063 88.8852 53.5751C88.5938 54.097 88.1233 54.8747 87.4738 55.9082C87.1634 56.4203 86.9211 56.7995 86.7469 57.0459C86.6014 57.283 86.49 57.4536 86.4126 57.5578C86.364 57.6527 86.3253 57.7048 86.2966 57.714C86.2868 57.733 86.2674 57.771 86.2382 57.828C85.9593 58.0446 85.7187 58.2569 85.5163 58.4648C85.3328 58.6824 85.2168 58.8387 85.1681 58.9336C85.12 58.9808 85.0954 59.0521 85.0945 59.1475C85.1125 59.2527 85.121 59.3529 85.1201 59.4483C85.1376 59.6012 85.1603 59.7207 85.1881 59.8068L84.8204 60.805L83.7289 61.1805L79.7342 59.9243L79.7057 59.9097L79.301 58.8753C79.3492 58.828 79.4119 58.7523 79.4893 58.6481C79.5667 58.544 79.6538 58.4208 79.7506 58.2786C79.9248 58.0323 80.0362 57.8617 80.0848 57.7667C80.1525 57.6816 80.2303 57.5297 80.3183 57.3111C80.3577 57.1875 80.5419 56.8983 80.8708 56.4436C81.2095 55.9699 81.6116 55.349 82.0772 54.5808C82.9792 53.1014 83.3543 52.3227 83.2024 52.2449C83.1075 52.1962 83.1809 52.0061 83.4228 51.6746C83.3089 51.6162 83.1711 51.5576 83.0095 51.4988C82.8576 51.4209 82.7578 51.3818 82.7101 51.3813C82.2428 51.3576 81.8189 51.2961 81.4382 51.1969C81.0863 51.0884 80.8154 50.9856 80.6255 50.8883C80.4926 50.8202 80.2796 50.6511 79.9866 50.381C79.7032 50.092 79.2529 49.8013 78.6356 49.5089L77.5243 49.0112L77.3125 48.7229ZM71.141 54.8012L69.9588 54.2313L68.7912 53.6329L68.5203 53.53L67.4022 52.2738C67.5185 52.0936 67.6445 51.8945 67.7802 51.6764C67.916 51.4584 68.0712 51.2023 68.2458 50.9083C68.5757 50.3582 68.8234 49.9217 68.9888 49.599C69.1829 49.267 69.3091 49.044 69.3675 48.9301L69.82 48.0473C69.9951 47.7056 70.0162 47.5006 69.8833 47.4325L70.9 45.9399C71.4391 45.4492 71.9707 44.7627 72.4947 43.8806C72.7954 43.3875 73.1345 42.8661 73.5121 42.3165C73.9184 41.7576 74.2755 41.3413 74.5836 41.0677L75.4418 39.6737C75.565 39.7608 75.6623 39.5709 75.7337 39.1041C75.8436 38.6091 76.0219 38.4248 76.2687 38.5513C76.4235 38.343 76.5541 38.1582 76.6607 37.9971C76.7959 37.8267 76.9025 37.6655 76.9803 37.5137C77.0781 37.2761 77.3012 36.911 77.6495 36.4183L78.1073 36.4372C78.3055 36.6586 78.6178 36.9145 79.0442 37.205C79.4897 37.5052 79.8972 37.786 80.2667 38.0472C80.494 38.2117 80.6977 38.3521 80.8779 38.4684C81.0677 38.5657 81.2242 38.6579 81.3474 38.745L81.4688 39.4904L80.8579 40.4718C80.2575 41.3627 80.0143 41.8373 80.1282 41.8957C79.6576 42.2058 79.2583 42.5406 78.9304 42.8999C78.6214 43.2689 78.3319 43.6 78.0618 43.8931C77.8399 44.1389 77.5198 44.67 77.1014 45.4864C76.9943 45.6952 76.945 45.8617 76.9533 45.9858C76.9713 46.091 77.0181 46.1868 77.0935 46.2734C77.188 46.3698 77.2876 46.4328 77.3922 46.4625C77.2199 46.518 77.0328 46.6259 76.8308 46.786C76.6386 46.9273 76.4221 47.1159 76.1812 47.352C75.95 47.5692 75.7187 47.8102 75.487 48.075C75.2841 48.3306 75.0907 48.5911 74.9068 48.8564C74.7326 49.1027 74.611 49.34 74.5419 49.5683C74.4636 49.7679 74.3751 50.0342 74.2764 50.3672C74.1777 50.7001 74.0644 51.0615 73.9364 51.4514C73.8085 51.8414 73.6614 52.2454 73.495 52.6635C73.3287 53.0817 73.1531 53.4711 72.9682 53.8318C72.6528 53.886 72.4499 54.1415 72.3595 54.5986L72.3588 54.6702L71.141 54.8012Z" fill="black"/>
</svg>
