<svg width="534" height="735" viewBox="0 0 534 735" fill="none" xmlns="http://www.w3.org/2000/svg">
<path d="M69.341 636C75.5077 623.333 127.941 601.8 148.341 617C173.841 636 150.841 690 176.341 696C201.841 702 239.341 736.5 264.841 733.5C290.341 730.5 350.341 728 359.841 696C369.341 664 382.341 617 397.841 617C410.241 617 438.674 629.667 451.341 636L435.341 667.5M397.841 696C451.341 696 495.841 667.5 508.341 667.5C518.341 667.5 529.174 616.833 533.341 591.5C533.341 581 533.341 555.6 533.341 538C533.341 520.4 478.674 478 451.341 459C414.508 361.167 363.641 169.3 378.841 108.5C397.841 32.5 416.841 -5 435.341 -24M69.341 696C59.2061 696 4.72289 624.379 0.5 598.683M0.5 555C0.5 537.148 55.9043 483.559 83.6064 464.287C148.959 376.102 148.715 45.5436 113.341 -24" stroke="black"/>
</svg>
