<svg width="65" height="56" viewBox="0 0 65 56" fill="none" xmlns="http://www.w3.org/2000/svg">
<path d="M23.9835 7.98177C24.5257 8.39435 24.8417 9.02289 24.9316 9.86739C24.9327 10.0364 24.9337 10.2054 24.9348 10.3744C24.9488 10.5238 24.9303 10.68 24.8793 10.8428C24.8036 11.2138 24.566 11.6606 24.1663 12.1832C23.7665 12.7058 23.4998 13.1755 23.3659 13.5924C23.2449 13.9897 23.1304 14.3772 23.0223 14.7549C22.838 15.4191 22.2474 16.0827 21.2505 16.7456C20.4031 17.3945 19.7124 17.6557 19.1786 17.5291L18.534 17.3577C17.9089 17.1991 17.4232 16.9779 17.0769 16.6941C16.763 16.4036 16.589 16.1349 16.5549 15.8881C16.4981 15.1214 16.7864 14.4695 17.4201 13.9325C17.5494 13.8211 17.691 13.6057 17.845 13.2862C17.999 12.9667 17.9549 12.6712 17.7126 12.3997C17.5817 12.2576 17.5191 12.1182 17.5247 11.9817C17.5499 11.858 17.5622 11.7539 17.5617 11.6694C17.5936 11.5782 17.5964 11.5099 17.5702 11.4646C17.5763 11.4125 17.4624 11.3937 17.2285 11.4082C16.9946 11.4227 16.8614 11.4333 16.8289 11.44C16.8094 11.4272 16.7537 11.3625 16.6619 11.2461C16.5898 11.1425 16.4854 11.0879 16.3489 11.0823C16.2123 11.0767 16.0436 11.12 15.8427 11.2123C15.091 11.5876 14.3722 12.5315 13.6862 14.044C13.4942 14.5067 13.3214 14.9401 13.168 15.3441C12.7452 16.3284 12.4274 16.961 12.2147 17.2418C12.0216 17.5356 11.7568 17.8103 11.4204 18.0659C11.1164 18.3149 10.8223 18.5703 10.5379 18.8321C9.77499 19.4805 9.35369 20.1853 9.27402 20.9463C9.16297 21.8831 9.11777 22.4424 9.13843 22.6243C9.19879 22.9165 9.3627 23.1364 9.63016 23.2843C9.9105 23.4125 10.19 23.414 10.4688 23.2887C10.7604 23.1438 11.0486 22.9827 11.3335 22.8054C11.6313 22.6085 11.926 22.4376 12.2176 22.2927C12.5092 22.1479 12.756 22.1138 12.958 22.1905C13.1796 22.2801 13.4244 22.4411 13.6924 22.6734C13.9732 22.8861 14.1626 23.0247 14.2605 23.089C14.378 23.1663 14.4701 23.325 14.5366 23.5651C14.616 23.7856 14.5076 24.1211 14.2115 24.5715C13.9478 25.0152 13.7356 25.3806 13.5749 25.6676C13.4271 25.9351 13.204 26.125 12.9057 26.2374C12.6203 26.3302 12.3902 26.4455 12.2156 26.5831C12.0734 26.714 11.941 26.8513 11.8184 26.9951C11.5284 27.3935 11.2505 27.6456 10.9847 27.7513C10.7384 27.8698 10.5115 27.959 10.3038 28.0189C10.1286 28.072 9.80605 27.944 9.33605 27.635C8.88563 27.3388 8.33273 27.2838 7.67736 27.47C7.022 27.6562 6.54717 27.6105 6.25288 27.3328C5.94571 27.0747 5.83948 26.7244 5.93417 26.2817C6.00311 25.8783 5.80902 25.5122 5.35189 25.1836C5.22768 25.0739 5.11971 24.9608 5.02796 24.8444C4.94909 24.7084 4.83776 24.5791 4.69397 24.4565C4.56305 24.3143 4.45145 24.1427 4.35917 23.9418C4.10914 23.4689 4.01135 22.9137 4.0658 22.2763C4.10229 21.8795 4.10657 21.5317 4.07867 21.2329C4.07035 20.9469 4.07518 20.6836 4.09315 20.443C4.0961 19.8839 4.24283 19.4474 4.53336 19.1336C5.26894 18.2708 5.54726 17.5702 5.36832 17.0318C5.24304 16.7531 5.20615 16.5746 5.25765 16.4963C5.30916 16.4179 5.37944 16.2257 5.4685 15.9196C5.58278 15.4899 5.85319 15.0786 6.27973 14.6859C6.72585 14.306 7.0259 13.9563 7.17988 13.6368C7.34674 13.2977 7.51024 12.9424 7.67039 12.5708C8.11946 11.6319 8.48309 11.0576 8.76128 10.8478C9.03947 10.638 9.31658 10.2592 9.59262 9.7114C9.88824 9.17647 10.1391 8.75234 10.3451 8.43901C10.564 8.10609 10.8179 7.65594 11.1068 7.08856C11.4153 6.53405 11.7887 5.96613 12.2271 5.3848C13.3685 3.94743 14.5764 3.24094 15.8506 3.26534C17.7298 3.3509 18.8426 3.53559 19.1889 3.81941C19.3064 3.89667 19.4306 4.00639 19.5616 4.14857C19.7249 4.28404 19.8978 4.3837 20.0802 4.44755C20.2627 4.51139 20.4384 4.54278 20.6074 4.5417C20.7764 4.54063 20.9518 4.52976 21.1337 4.5091C21.887 4.3873 22.3402 4.61519 22.4934 5.19276C22.5755 5.83579 22.6694 6.29023 22.7751 6.55608C22.9406 7.02957 23.3434 7.5048 23.9835 7.98177ZM29.9902 12.6045C30.3343 12.5503 30.6556 12.467 30.9539 12.3546C31.2651 12.2226 31.6123 12.1424 31.9957 12.1139C33.0545 11.9967 33.8494 12.2809 34.3803 12.9666C35.0164 13.8336 35.6612 14.5381 36.3147 15.0799C36.9682 15.6218 37.3614 16.1329 37.4945 16.6131C37.6471 17.1061 37.738 17.5866 37.7669 18.0545C37.8455 19.172 37.6539 20.2101 37.1919 21.1686C36.9926 21.5144 36.8968 21.788 36.9046 21.9895C36.8759 22.5877 36.5744 23.2169 36.0001 23.8772C35.4453 24.5502 35.0811 25.0401 34.9076 25.3467C34.7665 25.6466 34.6802 25.8845 34.6488 26.0602C34.637 26.2488 34.6154 26.4309 34.584 26.6066C34.4961 27.0817 34.3297 27.5053 34.0851 27.8774C33.776 28.3474 33.3103 28.7144 32.688 28.9784C32.435 29.0645 32.1607 29.375 31.8651 29.9099C31.5695 30.4449 31.264 30.9733 30.9488 31.4954C30.1314 32.7812 29.5414 33.5292 29.1787 33.7396C28.8289 33.9303 28.5955 34.0293 28.4785 34.0365C28.3812 34.0567 28.2902 34.067 28.2057 34.0675C27.8218 34.0115 27.287 34.2489 26.6014 34.7798C25.9481 35.304 25.2938 35.6592 24.6385 35.8453C23.996 36.0119 23.379 36.0971 22.7875 36.1009C22.2284 36.0979 21.7863 36.0878 21.4612 36.0703C21.1427 36.0853 20.8895 36.1292 20.7014 36.2019C20.5134 36.2746 20.3253 36.3473 20.1373 36.42C19.6767 36.566 19.2505 36.5102 18.8589 36.2526C18.193 35.8148 17.8064 35.3362 17.6991 34.8169C17.6779 34.5505 17.6985 34.1993 17.7607 33.7634C17.8146 33.0415 17.7062 32.3531 17.4355 31.6983C17.1319 30.9657 17.1659 30.1887 17.5377 29.3672C17.6464 29.074 17.7942 28.8065 17.9812 28.5648C18.1877 28.336 18.3904 28.0064 18.5892 27.5761C18.8075 27.1587 18.961 26.7547 19.0495 26.3641C19.138 25.9735 19.2626 25.6347 19.4233 25.3477C19.8662 24.4608 19.8818 23.8399 19.47 23.485C19.1628 23.2269 19.2953 22.5988 19.8675 21.6005C20.1699 21.0981 20.492 20.6507 20.8341 20.2585C21.189 19.8467 21.5184 19.5164 21.8224 19.2674C22.3524 18.8025 22.8328 18.1787 23.2633 17.3959C23.7068 16.5935 24.151 15.9178 24.596 15.369C25.4151 14.3367 26.2359 13.6001 27.0587 13.1594C27.4281 12.9815 27.8758 12.8552 28.4019 12.7803C28.9475 12.7183 29.477 12.6597 29.9902 12.6045ZM26.3168 22.2226C26.1952 22.5354 26.1451 22.825 26.1663 23.0914C26.2199 23.351 26.1602 23.6764 25.9872 24.0676C25.8338 24.4716 25.6056 24.8826 25.3027 25.3005C25.0128 25.6989 24.739 26.0939 24.4815 26.4856C24.2368 26.8577 24.0311 27.2133 23.8642 27.5524C23.7102 27.8719 23.5887 28.1847 23.4996 28.4907C23.3159 29.2395 23.4198 29.7426 23.8115 30.0001C24.4186 30.3993 25.6122 29.5011 27.3924 27.3057C27.8957 26.7109 28.4757 25.9142 29.1324 24.9154C29.8019 23.8971 30.2183 22.9226 30.3814 21.992C30.5573 21.0418 30.4201 20.4186 29.9697 20.1224C29.5389 19.8392 28.8317 20.0614 27.8483 20.7892C26.9684 21.4449 26.4579 21.9227 26.3168 22.2226ZM40.0833 41.9194C40.0911 42.1209 40.0144 42.3229 39.8532 42.5254C39.7244 42.7212 39.5696 42.914 39.3888 43.1037C39.2276 43.3062 39.0764 43.5574 38.9353 43.8574C38.8071 44.1377 38.6691 44.4116 38.5213 44.6791C38.4059 44.9398 38.2774 45.1779 38.1358 45.3933C37.9941 45.6087 37.8033 45.7497 37.5632 45.8162C37.3555 45.8761 37.0922 45.8712 36.7733 45.8018C36.4543 45.7323 36.1253 45.6141 35.7862 45.4473C35.023 45.0296 34.4671 44.5098 34.1186 43.888C33.7964 43.3115 33.3779 42.9241 32.8631 42.7259C32.3679 42.5405 31.9608 42.4131 31.6419 42.3436C31.3553 42.2674 31.0199 42.159 30.6355 42.0185C30.2706 41.8908 29.938 41.7141 29.6375 41.4885C29.3242 41.2825 29.1692 40.9422 29.1727 40.4676C29.1891 39.9735 29.3356 39.4948 29.6121 39.0315C29.8887 38.5682 30.2599 38.153 30.7256 37.7861C31.1913 37.4191 31.5977 36.9289 31.9448 36.3157C32.3048 35.6828 32.6004 35.1479 32.8317 34.7109C33.0758 34.2543 33.3204 33.8822 33.5656 33.5947C34.1529 32.9149 34.406 32.338 34.3249 31.8639C34.2769 31.4677 34.3624 31.1031 34.5813 30.7702C34.813 30.4177 35.0095 30.1402 35.1708 29.9377C35.332 29.7351 35.5229 29.5941 35.7434 29.5147C35.9639 29.4353 36.1161 29.3531 36.2001 29.2681C36.3165 29.1763 36.4453 28.9805 36.5864 28.6806C37.1637 27.4613 37.6715 26.561 38.1098 25.9797C38.5678 25.4112 38.8992 24.8858 39.1042 24.4035C39.3416 23.9144 39.57 23.5457 39.7894 23.2973C40.0217 23.0293 40.1631 22.7716 40.2135 22.5243C40.264 22.2769 40.3247 22.1205 40.3958 22.0551C40.4994 21.9829 40.5831 21.8556 40.6469 21.6732C40.7236 21.4712 40.8068 21.2594 40.8964 21.0378C41.1652 20.373 41.39 19.9458 41.5708 19.7562C41.7712 19.5794 42.0301 19.399 42.3474 19.2149C42.6972 19.0242 42.9992 18.9703 43.2532 19.0532C43.5073 19.136 43.6668 19.1708 43.7317 19.1574C43.7966 19.144 43.9267 19.1594 44.122 19.2036C44.6105 19.3565 44.9205 19.5463 45.0519 19.773C45.1834 19.9997 45.321 20.1743 45.4648 20.2969C45.6215 20.4 45.7781 20.503 45.9348 20.606C46.1239 20.7023 46.3097 20.7824 46.4921 20.8462L46.8833 21.0192C47.3718 21.1721 47.6722 21.3977 47.7846 21.6961C47.8316 21.9233 47.8587 22.0954 47.8659 22.2123C47.8732 22.3293 47.8057 22.4532 47.6635 22.5841C47.5213 22.7151 47.4572 22.8552 47.4712 23.0047C47.4851 23.1541 47.4179 23.3203 47.2696 23.5032C47.1341 23.6666 47.0342 23.7972 46.9698 23.8952C46.9379 23.9864 46.8995 24.0874 46.8547 24.1982C46.7651 24.4198 46.591 24.6419 46.3324 24.8645C46.0738 25.0872 45.9025 25.2411 45.8186 25.3261C45.7475 25.3916 45.6862 25.4635 45.6347 25.5418C45.4673 25.7964 45.2671 26.0154 45.0343 26.1989C44.8339 26.3757 44.6724 26.536 44.5498 26.6798C44.4597 26.8169 44.3502 26.9833 44.2215 27.1792L43.7965 27.8254C43.642 28.0604 43.4293 28.3413 43.1583 28.668C42.907 29.0077 42.6008 29.4094 42.2397 29.8732C41.9111 30.3303 41.576 30.7973 41.2345 31.274C40.3063 32.515 39.6676 33.2731 39.3183 33.5483C38.8891 33.5186 38.5697 33.8976 38.3602 34.6855L38.1602 35.4376C37.9698 36.1539 37.6878 36.796 37.3144 37.3639C36.941 37.9318 36.5315 38.4479 36.0859 38.9123C36.4478 39.5991 36.7398 40.0295 36.9619 40.2036C37.4783 40.6554 38.039 40.9118 38.644 40.973C39.2685 41.047 39.6658 41.168 39.8359 41.3359C40.0255 41.5167 40.108 41.7112 40.0833 41.9194ZM42.561 49.7335C41.3785 49.8256 40.513 49.6913 39.9647 49.3308C39.7101 49.1634 39.4875 48.9048 39.2967 48.5549C39.1256 48.218 39.0618 47.9096 39.1056 47.6298C39.1689 47.3629 39.2842 47.1021 39.4516 46.8476C39.6319 46.5734 39.825 46.2796 40.0311 45.9663C40.3983 45.4504 40.6355 44.9191 40.7425 44.3724C40.8495 43.8257 40.938 43.4351 41.0081 43.2006C41.1806 42.725 41.5439 42.1084 42.0981 41.3508C42.5169 40.7566 42.7355 40.3814 42.754 40.2253C42.7854 40.0496 42.8397 39.903 42.917 39.7855C42.9943 39.668 43.3038 39.2825 43.8457 38.629C45.1685 37.0864 45.6372 36.1604 45.2517 35.8508C45.062 35.67 44.9865 35.5502 45.0251 35.4915C45.0833 35.4456 45.1181 35.2861 45.1293 35.013C45.1535 34.7203 45.1846 34.5024 45.2227 34.3591C45.2804 34.2287 45.3929 34.0363 45.5603 33.7817C45.7277 33.5271 45.9116 33.3114 46.112 33.1346C46.3124 32.9578 46.5226 32.7875 46.7425 32.6236C48.2695 31.4958 49.2894 30.3712 49.8023 29.2498C50.3209 27.9919 50.7576 27.1571 51.1125 26.7453C51.4999 26.3268 51.8265 26.0647 52.0923 25.959C52.3778 25.8662 52.6699 25.8058 52.9688 25.7779C53.2805 25.7304 53.6056 25.7479 53.9442 25.8302C54.6604 26.0207 55.1374 26.4044 55.3751 26.9815C55.6324 27.5714 55.9213 28.0278 56.2419 28.3508C56.5625 28.6738 56.8828 28.9546 57.2028 29.193C58.0259 29.8184 58.4838 30.2737 58.5766 30.5592C58.6694 30.8446 58.7718 31.0942 58.8836 31.308C59.028 31.5151 59.1494 31.6931 59.2478 31.842C59.5107 32.2954 59.6234 32.6359 59.5858 32.8637C59.5483 33.0914 59.5465 33.3287 59.5806 33.5755C59.6276 33.8027 59.6714 34.056 59.7122 34.3352C59.7685 35.0174 59.6783 35.6453 59.4414 36.2189C59.2813 36.5904 59.1371 36.9164 59.0088 37.1967C58.8806 37.477 58.7686 37.754 58.6728 38.0277C58.3469 38.9073 58.1083 39.7181 57.957 40.4601C57.6415 41.9638 57.1538 42.9615 56.4939 43.4532L56.3579 43.5321C56.257 44.0267 55.9998 44.4607 55.5861 44.8338C55.2049 45.2003 54.9206 45.4621 54.733 45.6193C54.578 45.7698 54.384 45.9368 54.1512 46.1203C53.9183 46.3038 53.6306 46.5494 53.288 46.8571C52.9584 47.1452 52.6544 47.3942 52.3762 47.604C52.1109 47.7942 51.8487 47.9583 51.5895 48.0965C51.0713 48.3728 49.9877 48.6982 48.339 49.0727C47.8196 49.1801 47.3884 49.3453 47.0453 49.5685C46.7218 49.8046 46.3845 49.9335 46.0337 49.9552C45.334 50.3367 44.8314 50.5252 44.5259 50.5206C43.8761 50.5702 43.2212 50.3079 42.561 49.7335ZM50.6675 36.5087L49.6547 38.241C49.3849 38.7368 49.0658 39.1581 48.6974 39.5049C48.342 39.8322 48.0456 40.2404 47.8081 40.7294C47.5903 41.2314 47.3588 41.6261 47.1136 41.9137C46.8684 42.2013 46.7206 42.4687 46.6702 42.7161C46.6198 42.9634 46.5041 43.1819 46.3233 43.3716C46.175 43.5546 46.0266 43.7375 45.8783 43.9205C45.5043 44.4039 45.422 44.7424 45.6312 44.9361C45.775 45.0587 45.967 45.0867 46.207 45.0202C46.46 44.9341 46.7192 44.7959 46.9845 44.6057C47.4311 44.3104 47.9321 43.8684 48.4874 43.2798C48.7069 43.0314 48.9979 42.802 49.3606 42.5917C50.0211 42.1845 50.435 41.8536 50.6024 41.599C50.7827 41.3248 50.9019 41.1648 50.9601 41.1189C51.0312 41.0535 51.1023 40.988 51.1734 40.9226C51.2641 40.87 51.3612 40.8076 51.4647 40.7354C51.5683 40.6633 51.7233 40.5128 51.9299 40.284C52.1493 40.0355 52.3291 39.6769 52.4691 39.2079C52.6416 38.7323 52.6549 38.2642 52.5089 37.8036C52.3826 37.3558 52.3186 37.0052 52.317 36.7517C52.3154 36.4982 52.3107 36.2707 52.3029 36.0692C52.2873 35.6663 52.1528 35.4656 51.8993 35.4673C51.5159 35.4957 51.1053 35.8428 50.6675 36.5087Z" fill="black"/>
</svg>
