<svg width="330" height="127" viewBox="0 0 330 127" fill="none" xmlns="http://www.w3.org/2000/svg">
<path d="M22.2532 4.00031C17.3806 7.74881 7.8165 14.6303 4.86732 20.5365C2.27455 25.729 6.16401 30.7539 7.84146 32.787C11.0215 36.6415 17.9715 34.3349 27.2896 32.3538C37.4224 30.1996 40.3283 22.4213 43.3217 16.1326C44.9161 12.783 44.0989 9.25982 42.8239 6.88843C42.2124 5.75112 40.8337 5.33706 39.3896 5.15905C32.5191 4.31211 26.1179 9.02165 21.3823 14.1165C13.055 23.0755 12.9239 30.0448 12.3313 36.4908C11.9553 40.5819 14.0484 43.8491 16.387 46.0994C22.9939 52.4566 33.2261 51.4567 45.9732 49.7273C63.7355 47.3176 78.3553 29.8211 82.4876 21.846C83.5239 19.846 83.5629 17.4587 83.6531 15.698C83.7433 13.9373 83.5091 12.7107 82.1114 11.8679C75.0678 7.62117 67.7729 10.0633 61.5061 11.398C51.5926 13.5094 44.1775 23.4373 40.1468 29.637C35.8706 36.2143 34.0718 45.979 33.3965 53.6477C32.9813 58.3617 35.3606 62.4197 37.4087 64.8793C41.1138 69.3287 50.9738 71.4865 73.7939 72.599C86.6253 73.2246 99.2258 68.1146 111.717 63.2573C135.135 54.1514 144.062 42.8318 148.225 33.4164C150.235 28.8704 149.493 24.71 148.827 22.2231C147.584 17.5842 132.36 19.4248 123.067 20.147C117.95 20.5445 111.512 24.3422 91.2966 34.4019C79.4828 40.2809 74.8928 54.8631 73.1585 64.595C71.7318 72.6008 80.803 81.0094 87.0021 85.825C98.266 94.5753 112.227 91.2544 123.939 90.6344C137.624 89.9099 151.856 85.0313 163.753 79.9146C188.597 69.2293 201.774 54.7385 206.49 49.2264C210.931 44.0344 210.455 35.6733 209.245 29.7537C207.863 22.9917 192.801 25.1255 174.394 28.8249C160.484 31.6202 150.65 42.9255 140.549 55.2485C128.836 69.5397 125.236 79.7141 123.675 88.0823C123.073 91.3085 124.766 93.8912 126.757 96.0581C131.377 101.086 143.5 103.31 170.714 102.879C189.551 102.58 203.246 96.1585 218.462 86.6034C230.134 79.2733 249.055 65.659 259.979 57.714C273.348 47.9906 277.09 42.9268 279.929 38.5197C281.922 35.4252 281.242 31.9294 280.914 28.9369C280.755 27.4808 280.346 26.1857 277.401 25.3383C269.148 22.9636 260.976 24.1038 256.833 24.9564C253.294 25.6847 249.362 29.2949 241.426 37.6127C227.246 52.4751 216.668 68.1534 211.607 80.6116C200.849 107.095 206.318 116.725 207.817 119.094C211.309 124.612 222.797 121.143 230.795 120.78C235.683 120.558 246.663 116.653 260.879 110.854C271.019 106.717 279.56 100.925 290.102 94.8702C309.899 80.3189 317.058 71.7748 321.939 60.7923C323.138 58.1695 324.064 56.5274 325.129 53.9256" stroke="#EFED56" stroke-width="8" stroke-linecap="round"/>
</svg>
