<svg width="200" height="105" viewBox="0 0 200 105" fill="none" xmlns="http://www.w3.org/2000/svg">
<path d="M89.5447 7.65631C37.1722 13.5227 16.6237 56.2203 12.896 76.8358L11.2333 78.5406C10.1716 80.3176 7.52482 83.3463 5.89111 87.5443C3.84898 92.7918 10.474 92.6076 12.0338 89.4946C13.5936 86.3816 22.646 87.9694 25.4941 88.511C28.3423 89.0526 106.24 99.8548 138.254 94.2165C163.865 89.7058 188.928 73.7192 198.257 66.2898C183.842 44.301 141.917 1.78994 89.5447 7.65631Z" stroke="black"/>
<path d="M96.0447 7.63657C120.742 7.63657 140.743 27.1542 140.743 51.2039C140.743 75.2539 120.743 94.7723 96.0447 94.7723C71.3471 94.7721 51.3475 75.2538 51.3475 51.2039C51.3477 27.1543 71.3472 7.63682 96.0447 7.63657Z" stroke="black"/>
<ellipse cx="96.0452" cy="51.7694" rx="7.90961" ry="7.34463" fill="#D9D9D9"/>
</svg>
