<svg width="272" height="627" viewBox="0 0 272 627" fill="none" xmlns="http://www.w3.org/2000/svg">
<path d="M135.695 319.358C135.695 319.236 135.695 319.113 121.973 305.234C108.251 291.354 80.8071 263.721 64.8117 246.924C44.4826 225.577 38.5501 212.778 32.8216 192.521C29.1088 179.391 26.6111 159.752 24.6879 135.588C22.7647 111.423 22.2205 83.1437 22.8549 64.3803C24.1643 25.6497 31.2602 17.7874 35.5246 11.3625C41.4025 2.50651 55.7801 1.61354 68.3273 1.50047C73.7732 1.45139 77.2299 5.26738 79.7188 7.73443C82.3976 10.3896 86.3189 17.0073 96.6491 40.7653C104.755 59.4082 115.912 92.5659 123.293 114.384C138.45 159.191 137.211 169.316 138.024 169.795C143.098 172.786 152.504 143.635 174.888 111.167C197.548 78.2977 218.102 62.0036 226.862 56.5486C235.966 50.8785 248.418 50.4524 258.852 50.4476C262.958 50.4457 264.643 50.9267 266.122 53.842C270.104 61.6879 270.402 80.0132 270.098 101.28C269.885 116.179 258.212 133.646 233.642 164.334C217.964 183.914 192.36 208.774 178.179 223.682C151.97 251.236 142.556 270.196 139.545 277.502C134.926 288.693 131.872 298.442 130.883 303.841C130.547 306.829 130.547 310.324 130.547 313.924" stroke="#E16D6D" stroke-width="3" stroke-linecap="round"/>
<path d="M135.593 465.515C135.593 465.392 135.593 465.27 121.871 451.39C108.149 437.511 80.7046 409.878 64.7091 393.081C44.38 371.734 38.4476 358.935 32.7191 338.677C29.0063 325.548 26.5086 305.909 24.5854 281.744C22.6622 257.58 22.1179 229.3 22.7523 210.537C24.0618 171.806 31.1577 163.944 35.4221 157.519C41.3 148.663 55.6776 147.77 68.2248 147.657C73.6706 147.608 77.1273 151.424 79.6163 153.891C82.2951 156.546 86.2164 163.164 96.5465 186.922C104.653 205.565 115.809 238.723 123.19 260.541C138.348 305.348 137.108 315.473 137.921 315.952C142.995 318.943 152.402 289.791 174.786 257.323C197.446 224.454 218 208.16 226.759 202.705C235.864 197.035 248.315 196.609 258.749 196.604C262.855 196.602 264.54 197.083 266.02 199.999C270.002 207.845 270.3 226.17 269.995 247.437C269.782 262.335 258.11 279.803 233.539 310.49C217.862 330.071 192.258 354.93 178.076 369.839C151.867 397.392 142.454 416.353 139.443 423.659C134.824 434.85 131.77 444.599 130.781 449.997C130.445 452.986 130.445 456.48 130.445 460.08" stroke="#92E16D" stroke-width="3" stroke-linecap="round"/>
<path d="M114.593 624.515C114.593 624.392 114.593 624.27 100.871 610.39C87.1487 596.511 59.7046 568.878 43.7091 552.081C23.38 530.734 17.4476 517.935 11.7191 497.677C8.00628 484.548 5.5086 464.909 3.58538 440.744C1.66216 416.58 1.11793 388.3 1.75231 369.537C3.06177 330.806 10.1577 322.944 14.4221 316.519C20.3 307.663 34.6776 306.77 47.2248 306.657C52.6706 306.608 56.1273 310.424 58.6163 312.891C61.2951 315.546 65.2164 322.164 75.5465 345.922C83.6525 364.565 94.8091 397.723 102.19 419.541C117.348 464.348 116.108 474.473 116.921 474.952C121.995 477.943 131.402 448.791 153.786 416.323C176.446 383.454 197 367.16 205.759 361.705C214.864 356.035 227.315 355.609 237.749 355.604C241.855 355.602 243.54 356.083 245.02 358.999C249.002 366.845 249.3 385.17 248.995 406.437C248.782 421.335 237.11 438.803 212.539 469.49C196.862 489.071 171.258 513.93 157.076 528.839C130.867 556.392 121.454 575.353 118.443 582.659C113.824 593.85 110.77 603.599 109.781 608.997C109.445 611.986 109.445 615.48 109.445 619.08" stroke="#966DE1" stroke-width="3" stroke-linecap="round"/>
</svg>
