<svg width="122" height="172" viewBox="0 0 122 172" fill="none" xmlns="http://www.w3.org/2000/svg">
<path d="M16.0053 149.302C17.3943 146.444 29.204 141.584 33.7988 145.014C39.5423 149.302 34.3619 161.489 40.1053 162.844C45.8488 164.198 54.2951 171.984 60.0385 171.307C65.782 170.63 79.296 170.066 81.4357 162.844C83.5754 155.622 86.5035 145.014 89.9946 145.014C92.7875 145.014 99.1916 147.873 102.045 149.302L98.4409 156.411M89.9946 162.844C102.045 162.844 112.067 156.411 114.883 156.411C117.135 156.411 119.575 144.977 120.514 139.259C120.514 136.889 120.514 131.157 120.514 127.185C120.514 123.213 108.201 113.644 102.045 109.356C93.7485 87.2758 82.2916 43.9739 85.7152 30.2521C89.9946 13.0998 94.274 4.63651 98.4409 0.34845M16.0053 162.844C13.7226 162.844 1.45114 146.679 0.5 140.88M0.5 131.022C0.5 126.993 12.9789 114.898 19.2184 110.549C33.938 90.6465 33.883 16.0436 25.9156 0.34845" stroke="black"/>
</svg>
