<svg width="63" height="90" viewBox="0 0 63 90" fill="none" xmlns="http://www.w3.org/2000/svg">
<path d="M11.9212 48.5234C31.9638 43.0767 24.5245 15.4121 18.178 2.05288C15.7595 -1.14153 16.0013 -1.54083 36.3174 22.4173C47.7234 35.8679 56.202 40.3776 60.1098 41.6985C63.1646 42.7311 63.4262 41.8152 60.1098 41.6985C58.2228 41.6321 55.1774 41.8245 50.829 42.7817C33.4151 46.615 37.9298 75.5244 42.3639 89.5C40.7515 86.7049 35.3501 76.8022 26.6431 59.5524C23.0388 52.4117 17.1799 49.475 11.9212 48.5234C11.5955 48.6119 11.2626 48.6946 10.9223 48.7712C-6.87175 52.7772 1.3006 46.6017 11.9212 48.5234Z" fill="#D9D9D9"/>
<path d="M18.178 2.05288C24.6276 15.6291 32.2059 43.9796 10.9223 48.7712C-15.6823 54.7607 15.7595 37.9901 26.6431 59.5524C35.3501 76.8022 40.7515 86.7049 42.3639 89.5C37.9298 75.5244 33.4151 46.615 50.829 42.7817C72.5963 37.9901 61.7126 52.3649 36.3174 22.4173C16.0013 -1.54083 15.7595 -1.14153 18.178 2.05288Z" stroke="black"/>
</svg>
