<svg width="101" height="73" viewBox="0 0 101 73" fill="none" xmlns="http://www.w3.org/2000/svg">
<path d="M9.65859 23.0705C8.69719 22.5387 7.95165 21.9252 7.42197 21.23C6.90678 20.5306 6.55683 19.819 6.3721 19.0951C6.20186 18.3671 6.1488 17.6917 6.2129 17.069C6.28634 16.4513 6.42632 15.9558 6.63283 15.5825C6.81353 15.2558 7.01002 15.0658 7.22231 15.0126C7.44909 14.9552 7.68849 14.9962 7.94051 15.1356C8.19253 15.275 8.34258 15.4555 8.39065 15.6771C8.44805 15.9039 8.44599 16.1831 8.38444 16.5148C8.283 17.1169 8.27996 17.7064 8.37532 18.2833C8.48001 18.8654 8.71517 19.4099 9.0808 19.9168C9.45577 20.429 9.99328 20.8787 10.6933 21.2659C11.5801 21.7563 12.4201 21.9345 13.2135 21.8004C14.0213 21.6621 14.6292 21.2243 15.037 20.4869C15.3829 19.8616 15.4958 19.2718 15.3756 18.7178C15.2606 18.1544 14.9995 17.6016 14.5924 17.0595C14.1997 16.5132 13.7382 15.9593 13.2077 15.3977C12.6866 14.8413 12.1789 14.2496 11.6845 13.6227C11.1995 13.0009 10.8051 12.3257 10.5012 11.5969C10.2067 10.8732 10.0871 10.0757 10.1424 9.20428C10.1978 8.33287 10.5171 7.36979 11.1005 6.31505C11.7768 5.09229 12.5947 4.1977 13.554 3.63126C14.5134 3.06483 15.5692 2.8199 16.7214 2.89649C17.8788 2.96374 19.0828 3.34327 20.3336 4.03508C21.4443 4.64945 22.3076 5.30365 22.9232 5.99768C23.5389 6.69171 23.9592 7.37523 24.1843 8.04824C24.4238 8.71707 24.5249 9.32763 24.4876 9.87991C24.4503 10.4322 24.3413 10.8717 24.1607 11.1984C23.9387 11.5997 23.6687 11.8344 23.3507 11.9023C23.038 11.9609 22.7416 11.9128 22.4616 11.7579C22.1722 11.5978 21.9816 11.3584 21.8899 11.0394C21.8033 10.7112 21.7228 10.3497 21.6485 9.95515C21.5836 9.56572 21.4352 9.17282 21.2034 8.77645C20.9768 8.37074 20.5741 8.00785 19.9954 7.68775C19.314 7.31087 18.6715 7.20536 18.0678 7.37122C17.4734 7.54224 17.0007 7.94511 16.6496 8.57982C16.3399 9.13986 16.1788 9.6846 16.1663 10.214C16.1631 10.7486 16.2506 11.2846 16.4288 11.822C16.6215 12.3552 16.8499 12.8899 17.114 13.4261C17.3927 13.9581 17.6564 14.5062 17.905 15.0703C18.163 15.6397 18.3579 16.235 18.4896 16.8564C18.6358 17.4736 18.6639 18.1169 18.574 18.7864C18.4934 19.461 18.244 20.1763 17.8258 20.9324C17.3973 21.7071 16.8888 22.3401 16.3002 22.8312C15.7209 23.3275 15.0787 23.6732 14.3735 23.8683C13.6684 24.0633 12.9173 24.0989 12.1204 23.975C11.3286 23.8418 10.508 23.5403 9.65859 23.0705ZM13.1236 12.773C13.8143 13.1551 14.3197 13.0568 14.6398 12.4781C14.8101 12.17 14.8645 11.8954 14.803 11.6541C14.7465 11.4035 14.5783 11.2007 14.2983 11.0458C13.9529 10.8548 13.6617 10.7973 13.4246 10.8734C13.1968 10.9547 13.0003 11.1446 12.8351 11.4433C12.6906 11.7047 12.6465 11.9606 12.7029 12.2113C12.7593 12.4619 12.8995 12.6491 13.1236 12.773ZM12.838 9.65303C13.202 9.85438 13.5269 9.90609 13.8127 9.80817C14.1129 9.70607 14.3431 9.51035 14.5031 9.221C14.7045 8.85697 14.7629 8.5419 14.6785 8.2758C14.5993 8.00036 14.373 7.75939 13.9996 7.55288C13.6543 7.36186 13.3511 7.30389 13.0902 7.37897C12.8437 7.44988 12.6147 7.67668 12.403 8.05938C12.2171 8.3954 12.1685 8.70371 12.2571 8.98431C12.355 9.27008 12.5486 9.49298 12.838 9.65303ZM14.6227 6.69076C14.9774 6.88695 15.2827 6.95217 15.5384 6.88642C15.7994 6.81133 16.015 6.61978 16.1854 6.31176C16.3661 5.98507 16.4205 5.71042 16.3486 5.4878C16.2819 5.25586 16.0525 5.03146 15.6604 4.81463C15.4364 4.69072 15.1991 4.65698 14.9485 4.71339C14.703 4.76047 14.49 4.94736 14.3093 5.27405C14.1544 5.55407 14.1026 5.82405 14.1538 6.084C14.2144 6.34912 14.3707 6.55137 14.6227 6.69076ZM22.6415 11.5649C22.4174 11.4409 22.2737 11.2822 22.2101 11.0886C22.1517 10.8856 22.1922 10.6581 22.3316 10.4061C22.4658 10.1634 22.6412 10.0227 22.8576 9.98397C23.0834 9.95039 23.313 9.99814 23.5463 10.1272C23.761 10.246 23.8831 10.411 23.9125 10.6223C23.9564 10.8294 23.919 11.0403 23.8002 11.255C23.6763 11.479 23.5129 11.6202 23.3099 11.6786C23.107 11.737 22.8841 11.6991 22.6415 11.5649ZM14.0935 22.854L15.6466 22.36C16.1636 23.4748 16.5195 24.3299 16.7144 24.9253C16.9144 25.5113 16.9877 25.9298 16.9343 26.1806C16.8954 26.4272 16.7641 26.5984 16.5405 26.6941C16.2683 26.8117 16.0185 26.7894 15.7913 26.6272C15.5786 26.4608 15.3365 26.0831 15.065 25.4941C14.808 24.9009 14.4842 24.0209 14.0935 22.854ZM11.3023 22.8095L13.3291 22.9797C13.2263 24.5319 13.1156 25.7018 12.9969 26.4894C12.873 27.2864 12.715 27.8145 12.5227 28.0739C12.3399 28.3384 12.094 28.4523 11.7852 28.4156C11.4526 28.3779 11.2238 28.1965 11.0989 27.8714C10.9781 27.5608 10.9367 27.0077 10.9745 26.2119C11.0218 25.4213 11.131 24.2872 11.3023 22.8095ZM8.61175 21.7235L10.2049 22.6779C9.57028 24.0456 9.06453 25.0701 8.68765 25.7515C8.3201 26.4381 8.00388 26.8665 7.73897 27.0369C7.4689 27.2167 7.16535 27.2255 6.82834 27.0635C6.55249 26.9231 6.40234 26.6877 6.3779 26.3573C6.34829 26.0361 6.50375 25.5127 6.84429 24.7868C7.189 24.0754 7.77815 23.0543 8.61175 21.7235ZM6.77787 20.0144C6.85552 19.9842 6.93316 19.954 7.01081 19.9238C7.09779 19.8988 7.17027 19.8779 7.22826 19.8613C7.4747 19.7903 7.67935 19.806 7.8422 19.9083C8.00505 20.0105 8.11875 20.1466 8.1833 20.3164C8.29035 20.4975 8.32025 20.6969 8.273 20.9145C8.24025 21.128 8.12915 21.2738 7.9397 21.3518C7.89104 21.3737 7.83256 21.4023 7.76425 21.4376C7.7011 21.4636 7.64262 21.4922 7.5888 21.5234C6.55775 21.9771 5.7797 22.2598 5.25463 22.3716C4.72441 22.4928 4.35146 22.5059 4.13578 22.411C3.92944 22.3213 3.794 22.1915 3.72945 22.0217C3.67423 21.8571 3.68891 21.6763 3.7735 21.4793C3.86742 21.2874 4.13431 21.0694 4.57417 20.8251C5.02337 20.5859 5.75793 20.3157 6.77787 20.0144ZM7.71424 17.1314L7.40632 18.6798C6.42509 18.6247 5.66141 18.5619 5.11529 18.4914C4.58366 18.4168 4.21358 18.3035 4.00505 18.1516C3.80586 18.0048 3.71946 17.7864 3.74585 17.4963C3.78873 17.1543 3.93905 16.9266 4.19681 16.8132C4.46907 16.6956 4.88551 16.67 5.44613 16.7363C6.01609 16.8077 6.77212 16.9394 7.71424 17.1314ZM22.748 30.347C22.6267 30.2799 22.5229 30.192 22.4367 30.0834C22.3506 29.9748 22.2819 29.8454 22.2309 29.6953C22.1975 29.5793 22.1838 29.4498 22.1898 29.3068C22.1957 29.1639 22.2295 28.9815 22.2913 28.7596C22.3675 28.5336 22.4898 28.2355 22.6579 27.8654C22.8261 27.4952 23.0537 27.0177 23.3406 26.4328C23.4603 26.1943 23.5749 25.9651 23.6843 25.7453C23.7937 25.5254 23.9006 25.3102 24.0048 25.0997C24.0936 24.9172 24.1797 24.7394 24.2633 24.5662C24.3614 24.3888 24.4523 24.2136 24.5359 24.0404C24.6608 23.7926 24.7805 23.5541 24.8951 23.3249C25.019 23.1009 25.131 22.8763 25.231 22.6513C25.2775 22.5673 25.3193 22.4807 25.3564 22.3916C25.4029 22.3076 25.4494 22.2236 25.4958 22.1396C25.5475 22.0462 25.5893 21.9596 25.6212 21.8798C25.6729 21.7865 25.7172 21.6952 25.7544 21.606C25.806 21.5127 25.8504 21.4214 25.8875 21.3323C25.9391 21.2389 25.9835 21.1477 26.0206 21.0585C26.2601 20.5815 26.5001 20.0925 26.7405 19.5917C26.9955 19.0867 27.2587 18.5557 27.5301 17.9988C27.8171 17.414 27.9295 16.8911 27.8675 16.4302C27.8149 15.9744 27.6628 15.5551 27.4114 15.1722C27.1651 14.78 26.8826 14.3983 26.5639 14.0269C26.2544 13.6607 25.9838 13.2795 25.752 12.8831C25.5203 12.4867 25.3905 12.0492 25.3626 11.5706C25.3493 11.0879 25.5104 10.5431 25.846 9.93642C26.13 9.42305 26.4416 9.04691 26.781 8.80798C27.1255 8.55972 27.5144 8.45177 27.9475 8.48411C28.3899 8.52162 28.9052 8.703 29.4932 9.02825C28.8671 9.96186 28.526 10.6447 28.4698 11.0769C28.4282 11.5048 28.5473 11.7962 28.8273 11.9511C29.1354 12.1215 29.4565 12.0919 29.7907 11.8623C30.1301 11.6234 30.5858 10.9978 31.1579 9.98555C31.4099 10.1249 31.6712 10.2695 31.9419 10.4192C32.2126 10.5689 32.474 10.7135 32.726 10.8529C32.2385 11.6681 31.8848 12.3075 31.665 12.771C31.4597 13.2304 31.3713 13.5776 31.3997 13.8127C31.4281 14.0479 31.5543 14.2274 31.7783 14.3513C31.9743 14.4597 32.1862 14.4733 32.414 14.3921C32.6563 14.3067 32.9361 14.0653 33.2534 13.6679C33.5707 13.2705 33.9591 12.6564 34.4186 11.8257C35.6694 12.5175 36.6697 13.0891 37.4196 13.5404C38.1747 13.9824 38.7276 14.3492 39.0783 14.6407C39.4435 14.928 39.6476 15.1872 39.6905 15.4181C39.7479 15.6449 39.7017 15.8937 39.552 16.1643C39.392 16.4537 39.1493 16.6059 38.824 16.621C38.5132 16.632 38.1458 16.569 37.7218 16.432C37.3123 16.2908 36.8748 16.1341 36.4093 15.962C35.9583 15.7857 35.5032 15.6498 35.0441 15.5543C34.5995 15.4546 34.1793 15.4538 33.7838 15.552C33.3975 15.6552 33.0665 15.9232 32.7907 16.3557C31.2442 18.755 29.9545 20.7782 28.9215 22.4253C27.8937 24.0631 27.0503 25.4007 26.3912 26.438C25.7467 27.4711 25.2384 28.2687 24.8665 28.831C24.4946 29.3932 24.2011 29.7916 23.986 30.0261C23.7761 30.2513 23.5915 30.3869 23.432 30.4328C23.3399 30.4671 23.2249 30.4767 23.087 30.4614C22.9637 30.4419 22.8507 30.4038 22.748 30.347ZM33.7477 20.3774C33.3463 20.1554 33.0618 19.8213 32.8942 19.375C32.7359 18.934 32.7961 18.4614 33.0749 17.9574C33.3641 17.4347 33.7364 17.0921 34.1919 16.9296C34.6475 16.7672 35.174 16.8511 35.7713 17.1816C36.238 17.4397 36.5309 17.8028 36.6499 18.2709C36.774 18.7296 36.7199 19.169 36.4876 19.589C36.1469 20.2051 35.7544 20.5731 35.3101 20.693C34.8752 20.8182 34.3544 20.713 33.7477 20.3774ZM25.0023 27.4616L26.0334 25.399C27.17 25.9667 28.0344 26.4204 28.6266 26.7601C29.2188 27.0999 29.5908 27.3971 29.7425 27.6516C29.9036 27.9114 29.8989 28.1953 29.7285 28.5033C29.522 28.8767 29.2629 29.0807 28.9511 29.1155C28.6538 29.1461 28.1983 29.0221 27.5844 28.7435C26.985 28.4608 26.1243 28.0335 25.0023 27.4616ZM28.095 19.2255L26.8899 21.3382C25.691 20.6628 24.7751 20.1258 24.1424 19.7271C23.5097 19.3283 23.1065 18.9774 22.9329 18.6741C22.7738 18.3667 22.7975 18.0263 23.0041 17.653C23.2157 17.2703 23.505 17.089 23.8718 17.109C24.2531 17.1249 24.7797 17.3186 25.4518 17.6904C26.129 18.0528 27.0101 18.5645 28.095 19.2255ZM41.128 32.0658C41.0626 32.0297 40.9973 31.9935 40.932 31.9574C40.876 31.9264 40.8106 31.8903 40.7359 31.849C40.4839 31.7096 40.3313 31.5337 40.2781 31.3214C40.2342 31.1143 40.2535 30.9361 40.3361 30.7867C40.4239 30.6281 40.562 30.5216 40.7505 30.4674C40.9534 30.409 41.1716 30.4443 41.4049 30.5734C41.4889 30.6198 41.5776 30.6689 41.6709 30.7205C41.7643 30.7722 41.8529 30.8212 41.937 30.8677C42.161 30.9916 42.2933 31.1379 42.3341 31.3067C42.3799 31.4662 42.359 31.6253 42.2712 31.7839C42.1783 31.9519 42.0252 32.0745 41.8119 32.1515C41.5986 32.2286 41.3707 32.2 41.128 32.0658ZM42.713 27.0184C42.657 26.9874 42.601 26.9564 42.545 26.9254C42.489 26.8945 42.433 26.8635 42.377 26.8325C42.0596 26.657 41.8987 26.4521 41.8941 26.218C41.8947 25.9745 41.9595 25.7361 42.0886 25.5028C42.1918 25.3161 42.3407 25.179 42.5354 25.0917C42.73 25.0043 42.9299 25.0174 43.1353 25.1309C43.2193 25.1774 43.308 25.2265 43.4013 25.2781C43.4947 25.3297 43.5833 25.3788 43.6673 25.4252C43.8913 25.5491 44.0295 25.7291 44.0817 25.9653C44.1391 26.192 44.093 26.4408 43.9432 26.7115C43.8039 26.9635 43.6513 27.129 43.4857 27.2081C43.3346 27.2829 43.077 27.2197 42.713 27.0184ZM40.2092 21.099C40.6573 21.3468 40.9262 21.654 41.016 22.0206C41.1109 22.3778 41.0164 22.8131 40.7325 23.3265C40.5156 23.7185 40.2431 23.9578 39.9148 24.0445C39.5865 24.1311 39.2171 24.0608 38.8064 23.8336C38.3303 23.5703 38.0412 23.2336 37.9389 22.8235C37.8511 22.4093 37.9388 21.9642 38.2021 21.4881C38.4189 21.0961 38.705 20.8764 39.0603 20.8291C39.4249 20.787 39.8079 20.877 40.2092 21.099ZM30.4727 33.4129C30.6534 33.0862 30.8644 32.8921 31.1057 32.8305C31.3615 32.7647 31.693 32.7714 32.1004 32.8504C32.3563 32.8944 32.6139 32.9577 32.8731 33.0401C33.1467 33.1183 33.4375 33.1877 33.7453 33.2482C34.2428 33.3406 34.6339 33.3497 34.9187 33.2756C35.2034 33.2015 35.474 33.0098 35.7304 32.7006C35.7955 32.6269 35.8534 32.5553 35.904 32.4858C35.964 32.4215 36.0219 32.3499 36.0777 32.271C37.0188 33.0598 37.7148 33.4874 38.1656 33.5539C38.6216 33.6111 38.9502 33.4576 39.1516 33.0936C39.3106 32.8281 39.2655 32.535 39.0163 32.2143C38.7764 31.8987 38.1989 31.4331 37.284 30.8173C37.4949 30.5683 37.7032 30.3239 37.9089 30.0842C38.124 29.8496 38.3229 29.6001 38.5058 29.3356C39.1106 29.7188 39.6053 29.9924 39.9899 30.1564C40.3798 30.3111 40.6829 30.3691 40.8994 30.3303C41.1252 30.2968 41.3 30.168 41.4239 29.944C41.584 29.6546 41.5466 29.3475 41.3119 29.0226C41.0916 28.6936 40.5894 28.2573 39.8051 27.7138C40.54 26.8038 41.2682 25.884 41.9896 24.9544C42.7162 24.0154 43.4309 23.0759 44.1336 22.136C44.4219 21.7469 44.5364 21.4628 44.477 21.2837C44.4176 21.1046 44.2122 20.9361 43.8607 20.7782C43.3608 20.5139 42.9419 20.3127 42.6039 20.1745C42.2752 20.0414 41.8791 19.865 41.4156 19.6452C40.897 19.3706 40.508 19.0823 40.2484 18.7802C40.0033 18.474 40.0047 18.0969 40.2525 17.6489C40.4642 17.2662 40.7782 17.062 41.1947 17.0364C41.6205 17.0159 42.1921 17.1614 42.9096 17.473C43.9745 17.9279 45.2219 18.4715 46.6517 19.1039C48.0868 19.727 49.4317 20.3368 50.6864 20.9333C51.3189 21.2222 51.737 21.5022 51.9405 21.7733C52.1586 22.0401 52.1592 22.3696 51.9424 22.7616C51.7565 23.0977 51.488 23.2966 51.1369 23.3583C50.7858 23.4201 50.373 23.4173 49.8983 23.3498C49.5232 23.3008 49.1299 23.2295 48.7184 23.136C48.3163 23.0476 47.8328 22.9631 47.268 22.8823C46.8649 22.8177 46.5655 22.8411 46.3699 22.9523C46.1888 23.0594 46.0348 23.2607 45.9079 23.5562C44.9608 25.6652 44.0463 27.7924 43.1645 29.9376C42.2827 32.0828 41.4242 34.2409 40.5891 36.412C40.4654 36.7458 40.425 37.0282 40.4679 37.2591C40.5253 37.4859 40.6733 37.7141 40.9121 37.9437C41.1238 38.1339 41.3152 38.2946 41.4864 38.4259C41.6576 38.5572 41.8397 38.7127 42.0328 38.8926C42.2725 39.0984 42.4635 39.3259 42.6059 39.5754C42.7628 39.8206 42.7509 40.1066 42.5702 40.4333C42.4102 40.7226 42.2142 40.9007 41.9822 40.9674C41.7555 41.0248 41.4985 41.0046 41.2113 40.9067C40.9242 40.8088 40.6126 40.6669 40.2765 40.4811C40.1552 40.414 39.9592 40.3055 39.6885 40.1558C39.4323 40.0019 39.1341 39.8248 38.7939 39.6244C38.6912 39.5677 38.5865 39.5036 38.4796 39.4323C38.3728 39.361 38.2587 39.2918 38.1374 39.2247C38.0253 39.1628 37.9087 39.0982 37.7873 39.0311C37.666 38.964 37.5353 38.8917 37.3953 38.8143C37.2698 38.7327 37.1417 38.6557 37.011 38.5835C36.8855 38.5018 36.7527 38.4223 36.6127 38.3449C36.3939 38.2116 36.1678 38.0805 35.9344 37.9514C35.7104 37.8275 35.489 37.6989 35.2701 37.5657C35.1259 37.4737 34.9745 37.3839 34.8158 37.2961C34.6716 37.2042 34.5249 37.1169 34.3755 37.0343C34.2407 36.9475 34.0986 36.8629 33.9493 36.7802C33.8466 36.7235 33.7392 36.6641 33.6272 36.6021C33.5297 36.536 33.4296 36.4745 33.327 36.4178C33.2294 36.3516 33.134 36.2928 33.0407 36.2411C32.7243 36.0418 32.438 35.8651 32.1818 35.7112C31.935 35.5625 31.7395 35.4422 31.5953 35.3502C31.1067 35.0435 30.7446 34.7395 30.5089 34.4385C30.2783 34.1281 30.2662 33.7862 30.4727 33.4129ZM50.2338 47.0125C48.8057 46.2226 47.746 45.1854 47.0546 43.901C46.3684 42.6072 46.1112 41.0997 46.2831 39.3786C46.4643 37.6625 47.1357 35.7544 48.2973 33.6543C49.5261 31.4328 50.9863 29.7294 52.678 28.5441C54.3749 27.3495 56.1359 26.678 57.9612 26.5295C59.7915 26.3717 61.5188 26.742 63.1429 27.6403C63.899 28.0585 64.5303 28.5479 65.037 29.1085C65.5488 29.6597 65.8524 30.2787 65.948 30.9654C66.0581 31.648 65.8911 32.3906 65.4471 33.1933C64.9928 34.0147 64.4303 34.6239 63.7597 35.0209C63.0891 35.418 62.4364 35.4409 61.8017 35.0899C61.6617 35.0124 61.531 34.9402 61.4097 34.873C61.3028 34.8018 61.1918 34.716 61.0766 34.6157C61.9533 33.6257 62.5746 32.8661 62.9403 32.3371C63.3061 31.808 63.4872 31.4145 63.4836 31.1565C63.4894 30.9037 63.3973 30.7065 63.2074 30.5649C63.0176 30.4234 62.7875 30.3875 62.5172 30.4574C62.2563 30.5325 61.9009 30.8114 61.4512 31.294C61.0065 31.7672 60.4231 32.5355 59.7009 33.5988C59.5111 33.4572 59.2652 33.2847 58.9633 33.0811C58.6708 32.8827 58.4146 32.7289 58.1948 32.6194C58.7329 31.7347 59.1025 31.0554 59.3037 30.5816C59.5141 30.1129 59.5928 29.7724 59.5395 29.5601C59.4863 29.3478 59.3404 29.1818 59.1019 29.0621C58.8914 28.9578 58.6723 28.9463 58.4445 29.0275C58.2219 29.0994 57.9587 29.3439 57.6548 29.761C57.3655 30.1739 57.0041 30.8273 56.5707 31.7211C55.9995 31.5637 55.3613 31.5825 54.6562 31.7775C53.9655 31.9684 53.2689 32.3572 52.5666 32.9439C51.8787 33.5264 51.2534 34.3263 50.6906 35.3438C49.8801 36.8092 49.403 38.1787 49.2593 39.4523C49.1156 40.7258 49.2461 41.8341 49.6509 42.7772C50.0608 43.711 50.6858 44.4101 51.5259 44.8748C51.6192 44.9264 51.7079 44.9755 51.7919 45.0219C51.8904 45.0642 51.9842 45.1039 52.0734 45.1411C52.1771 45.174 52.2735 45.2091 52.3627 45.2462C52.4663 45.2792 52.5653 45.3095 52.6597 45.3373C52.8058 45.3816 52.9572 45.4166 53.1136 45.4422C53.2795 45.4729 53.4406 45.5011 53.5971 45.5267C53.6924 45.5307 53.7852 45.5393 53.8753 45.5526C53.9707 45.5566 54.0613 45.558 54.1473 45.5568C54.2188 45.5598 54.2882 45.5555 54.3555 45.544C54.4322 45.5376 54.5016 45.5333 54.5638 45.5311C54.6352 45.5341 54.7021 45.5345 54.7642 45.5323C54.8274 45.5063 54.8875 45.4969 54.9444 45.504C55.0066 45.5018 55.0667 45.4924 55.1247 45.4757C55.1971 45.4549 55.2815 45.4345 55.3779 45.4146C55.8997 45.2645 56.3166 45.172 56.6284 45.1372C56.9495 45.1076 57.2407 45.1651 57.5021 45.3096C57.7447 45.4439 57.8871 45.6384 57.929 45.8932C57.9802 46.1531 57.9361 46.4091 57.7968 46.6611C57.5386 47.1278 57.1394 47.486 56.599 47.7357C56.0638 47.976 55.4399 48.1124 54.7272 48.1448C54.0196 48.1679 53.2735 48.0843 52.4888 47.8941C51.7135 47.709 50.9619 47.4152 50.2338 47.0125ZM58.8504 27.5333C58.8578 27.5862 58.862 27.6556 58.8632 27.7416C58.8738 27.8327 58.877 27.9259 58.8731 28.0213C58.86 28.2212 58.7126 28.3774 58.431 28.4899C58.1546 28.593 57.8538 28.652 57.5285 28.6672C57.2177 28.6781 56.9876 28.6423 56.8383 28.5597C56.7916 28.5339 56.7449 28.508 56.6983 28.4822C56.6567 28.4471 56.6276 28.4005 56.611 28.3425C56.5984 28.299 56.5797 28.2338 56.5547 28.1468C56.5348 28.0505 56.5212 27.9759 56.5138 27.9231C56.48 27.5875 56.5604 27.3211 56.7548 27.1239C56.9492 26.9267 57.1997 26.8153 57.5063 26.7899C57.8181 26.7551 58.1047 26.81 58.366 26.9546C58.4967 27.0269 58.6005 27.1147 58.6773 27.2182C58.7687 27.3175 58.8264 27.4225 58.8504 27.5333ZM46.2937 36.7149C46.9361 36.7655 47.7205 36.8459 48.647 36.956C49.5734 37.0662 50.5107 37.2007 51.459 37.3595C51.8435 37.4137 52.1343 37.538 52.3315 37.7324C52.5287 37.9268 52.6193 38.1597 52.6032 38.4312C52.609 38.7513 52.4935 39.0043 52.2566 39.1902C52.0341 39.372 51.708 39.4658 51.278 39.4718C50.3238 39.456 49.3701 39.4282 48.4168 39.3886C47.4729 39.3541 46.63 39.3023 45.8881 39.2332C45.2788 39.1888 44.8237 39.0529 44.5229 38.8255C44.2365 38.594 44.1188 38.2668 44.1698 37.844C44.225 37.4357 44.4192 37.1287 44.7524 36.9229C45.095 36.7223 45.6087 36.653 46.2937 36.7149ZM54.8768 40.0727C54.4848 39.8559 54.2371 39.5543 54.1338 39.1681C54.0305 38.7818 54.1183 38.3367 54.3971 37.8326C54.6294 37.4126 54.9558 37.1421 55.3762 37.0212C55.8017 36.8908 56.2852 36.9754 56.8266 37.2749C57.2466 37.5072 57.5036 37.8139 57.5976 38.195C57.706 38.5719 57.6441 38.9704 57.4117 39.3904C57.102 39.9504 56.7467 40.2842 56.346 40.3916C55.9546 40.5043 55.4648 40.398 54.8768 40.0727ZM55.33 46.3938C55.3498 46.4901 55.3573 46.5978 55.3523 46.717C55.3619 46.832 55.36 46.9345 55.3467 47.0247C55.3225 47.377 55.1302 47.5814 54.7697 47.6381C54.4186 47.6999 54.1077 47.6559 53.837 47.5062C53.7064 47.4339 53.6031 47.3341 53.5272 47.2068C53.4607 47.0847 53.4206 46.9589 53.4068 46.8294C53.4047 46.7672 53.4025 46.7051 53.4003 46.6429C53.4126 46.5766 53.4197 46.5196 53.4217 46.4719L55.33 46.3938ZM52.5251 47.3656C52.321 47.911 52.1076 48.4512 51.8848 48.9862C51.6568 49.5305 51.4144 50.079 51.1575 50.6317C50.9541 51.0434 50.7122 51.2935 50.4316 51.3821C50.1458 51.4801 49.8022 51.418 49.4009 51.196C49.0928 51.0256 48.909 50.796 48.8494 50.507C48.7992 50.2233 48.8695 49.8538 49.0603 49.3986C49.2708 48.9299 49.4941 48.4379 49.7304 47.9226C49.9667 47.4072 50.2253 46.8737 50.506 46.322C50.6609 46.042 50.8823 45.8841 51.1703 45.8483C51.4582 45.8125 51.7189 45.8592 51.9522 45.9883C52.1949 46.1225 52.3781 46.3092 52.5019 46.5482C52.6256 46.7873 52.6334 47.0598 52.5251 47.3656ZM58.7343 51.7873C60.0817 48.7782 61.4943 45.6954 62.972 42.539C64.4549 39.3732 65.9328 36.3265 67.4057 33.399C67.734 32.7395 68.1113 32.2778 68.5376 32.0138C68.9785 31.7457 69.5069 31.782 70.123 32.1227C70.739 32.4635 71.0439 32.882 71.0375 33.3783C71.0405 33.8797 70.8867 34.4223 70.5759 35.0062C70.1393 35.8618 69.6436 36.7578 69.089 37.6944C68.5396 38.6217 68.0078 39.5831 67.4937 40.5786C67.2956 40.981 67.2739 41.2737 67.4286 41.4568C67.5926 41.645 67.8916 41.6885 68.3255 41.5872C70.5044 41.0858 72.7039 40.5471 74.9241 39.9711C77.1443 39.395 79.1751 38.8971 81.0164 38.4771C81.3778 38.3967 81.6994 38.3552 81.9812 38.3526C82.2682 38.3406 82.5003 38.3837 82.6777 38.4818C82.8083 38.5541 82.9163 38.6564 83.0015 38.7889C83.0867 38.9213 83.1356 39.0642 83.1484 39.2175C83.1611 39.3708 83.1287 39.5175 83.0513 39.6575C82.9429 39.8535 82.7634 40.0347 82.513 40.2009C82.272 40.3723 81.9889 40.5205 81.6638 40.6454C80.4981 41.1221 79.162 41.6203 77.6556 42.1401C76.1584 42.6651 74.6163 43.2383 73.0292 43.8598C72.7383 43.967 72.5143 44.1296 72.3572 44.3475C72.2095 44.5705 72.1525 44.8498 72.1863 45.1854C72.494 47.4279 72.7389 49.2881 72.9209 50.7662C73.1174 52.2401 73.2616 53.423 73.3534 54.3149C73.4597 55.2026 73.5221 55.8831 73.5406 56.3566C73.559 56.83 73.5447 57.1756 73.4974 57.3932C73.4647 57.6067 73.4096 57.7834 73.3321 57.9235C73.1463 58.2595 72.882 58.4729 72.5392 58.5637C72.2058 58.6596 71.8757 58.6172 71.549 58.4365C71.3623 58.3333 71.1688 58.1653 70.9684 57.9325C70.7629 57.7091 70.4855 57.318 70.1364 56.7592C69.7965 56.2056 69.3195 55.3932 68.7052 54.322C68.1002 53.256 67.2931 51.8283 66.2837 50.0389C66.0217 49.5649 65.7952 49.2141 65.6042 48.9865C65.4276 48.7548 65.218 48.5718 64.9753 48.4375C64.6393 48.2517 64.3253 48.2243 64.0334 48.3554C63.7466 48.4771 63.4778 48.7429 63.2268 49.1526C62.8116 49.8371 62.4104 50.5294 62.0232 51.2295C61.6453 51.9347 61.336 52.4828 61.0953 52.8739C60.7421 53.4464 60.404 53.8262 60.0811 54.0133C59.7531 54.2098 59.3977 54.2021 59.015 53.9905C58.6696 53.7994 58.4811 53.5123 58.4493 53.129C58.4175 52.7457 58.5125 52.2985 58.7343 51.7873ZM75.3149 49.5123C74.8109 49.2335 74.4984 48.8839 74.3774 48.4635C74.2565 48.0431 74.3457 47.5622 74.6451 47.0208C74.8775 46.6008 75.1924 46.3179 75.59 46.1721C76.002 46.0221 76.4461 46.0788 76.9221 46.3421C77.4262 46.6209 77.7625 46.9715 77.9311 47.3939C78.1049 47.8069 78.0756 48.2235 77.8433 48.6435C77.5284 49.2129 77.1343 49.5617 76.6611 49.69C76.193 49.809 75.7443 49.7498 75.3149 49.5123ZM78.0014 37.614C78.404 38.495 78.7766 39.4081 79.1192 40.3533C79.4764 41.2944 79.8143 42.2371 80.1331 43.1814C80.3341 43.7436 80.408 44.205 80.3548 44.5656C80.311 44.9314 80.0804 45.194 79.6632 45.3533C79.2211 45.5354 78.8553 45.4915 78.5658 45.2217C78.2762 44.9518 78.0232 44.5498 77.8067 44.0156C77.4174 43.0445 77.0349 42.0833 76.6591 41.1318C76.2978 40.1762 75.9686 39.1957 75.6714 38.1903C75.5244 37.7067 75.4957 37.3069 75.5852 36.9907C75.6841 36.6797 75.9101 36.4695 76.2632 36.3601C76.6121 36.2361 76.9318 36.2972 77.2224 36.5432C77.5181 36.7799 77.7778 37.1368 78.0014 37.614ZM75.7559 40.9797L73.6123 41.5494C73.5166 41.3257 73.5286 41.0947 73.6483 40.8562C73.7732 40.6083 74.0407 40.4333 74.4508 40.331C74.8432 40.1945 75.1432 40.2141 75.3507 40.3899C75.5583 40.5656 75.6933 40.7622 75.7559 40.9797ZM61.0582 49.6353C61.166 49.6827 61.2594 49.7344 61.3382 49.7902C61.4316 49.8418 61.5249 49.8934 61.6183 49.945C61.8609 50.0793 62.0042 50.25 62.0481 50.4571C62.0972 50.6549 62.0365 50.9078 61.8662 51.2158C61.6803 51.5518 61.4854 51.761 61.2815 51.8432C61.0775 51.9254 60.8542 51.8994 60.6115 51.7652C60.5275 51.7187 60.4482 51.6748 60.3735 51.6335C60.2988 51.5922 60.2195 51.5483 60.1355 51.5019C59.8741 51.3573 59.6935 51.166 59.5936 50.9279C59.4989 50.6804 59.547 50.3841 59.738 50.0387C59.9187 49.712 60.122 49.5319 60.3478 49.4983C60.588 49.4605 60.8249 49.5062 61.0582 49.6353ZM68.5098 35.4359C68.2858 35.312 68.1441 35.1605 68.0847 34.9813C68.0253 34.8022 68.0421 34.6287 68.135 34.4606C68.2538 34.246 68.3929 34.1157 68.5523 34.0698C68.717 34.0146 68.9393 34.0644 69.2193 34.2193C69.3593 34.2967 69.4476 34.4126 69.4841 34.5669C69.53 34.7264 69.5013 34.8994 69.3981 35.0861C69.2897 35.2821 69.1552 35.415 68.9948 35.4847C68.8395 35.5451 68.6778 35.5288 68.5098 35.4359ZM69.1298 51.1743C69.3818 51.3136 69.6579 51.3323 69.9582 51.2302C70.2729 51.1239 70.5258 50.8981 70.7169 50.5528C70.8717 50.2728 70.9147 49.9857 70.8458 49.6916C70.7769 49.3975 70.6117 49.1781 70.3504 49.0336C69.9023 48.7858 69.5334 48.7036 69.2434 48.787C68.9535 48.8704 68.7104 49.0895 68.5142 49.4442C68.3387 49.7615 68.2901 50.0699 68.3683 50.3691C68.4559 50.6736 68.7097 50.9419 69.1298 51.1743ZM67.512 47.0248C67.876 47.2262 68.2496 47.256 68.6327 47.1144C69.0251 46.978 69.309 46.7511 69.4846 46.4337C69.7479 45.9577 69.8071 45.509 69.6623 45.0876C69.5227 44.6568 69.2288 44.3176 68.7808 44.0697C68.4448 43.8839 68.0811 43.8473 67.6897 43.9599C67.3034 44.0632 66.9993 44.3155 66.7773 44.7169C66.545 45.1369 66.4727 45.554 66.5605 45.9683C66.6535 46.3732 66.9706 46.7254 67.512 47.0248ZM84.1215 42.9373C84.1426 42.5467 84.1767 42.2425 84.224 42.0249C84.2764 41.7979 84.3439 41.6097 84.4265 41.4604C84.5452 41.2457 84.6972 41.0921 84.8825 40.9995C85.073 40.8976 85.2682 40.8532 85.4682 40.8663C85.6733 40.8701 85.8599 40.9184 86.0279 41.0114C86.2706 41.1456 86.4497 41.3727 86.5653 41.6926C86.6861 42.0032 86.751 42.3926 86.7602 42.8609C86.7972 43.8078 86.7923 44.7863 86.7455 45.7965C86.6987 46.8068 86.6897 47.8257 86.7186 48.8534C86.7265 49.2357 86.7769 49.5744 86.8696 49.8695C86.9624 50.1646 87.1301 50.3793 87.3728 50.5135C87.5968 50.6374 87.8766 50.6825 88.2123 50.6487C88.553 50.6056 88.9367 50.5069 89.3633 50.3528C90.6284 49.8946 91.8775 49.4214 93.1106 48.9332C94.3487 48.4356 95.5714 47.9661 96.7786 47.5245C97.2735 47.3351 97.7116 47.2483 98.0929 47.2641C98.4887 47.2758 98.8219 47.3565 99.0926 47.5062C99.3726 47.6611 99.5812 47.8679 99.7185 48.1267C99.8702 48.3813 99.9422 48.6588 99.9345 48.9593C99.9413 49.2556 99.862 49.5531 99.6968 49.8517C99.5471 50.1224 99.3404 50.386 99.0767 50.6424C98.8223 50.9039 98.5332 51.1402 98.2093 51.3511C97.7384 51.6514 97.2604 51.9538 96.775 52.2582C96.2949 52.5534 95.7443 52.8766 95.1233 53.2279C94.5186 52.2718 94.0289 51.6474 93.6543 51.3549C93.2891 51.0676 92.9322 51.0408 92.5834 51.2746C92.3723 51.4138 92.2427 51.6041 92.1944 51.8456C92.1607 52.0829 92.2286 52.4009 92.3983 52.7994C92.5824 53.1938 92.8978 53.7035 93.3444 54.3284C93.1095 54.4667 92.8673 54.607 92.6179 54.7494C92.383 54.8876 92.1553 55.0238 91.9349 55.1578C91.7734 55.2514 91.6167 55.3475 91.4645 55.4462C91.3269 55.5407 91.1846 55.6327 91.0377 55.7221C90.8711 55.8249 90.7045 55.9278 90.5379 56.0307C90.3764 56.1242 90.215 56.2178 90.0535 56.3113C89.8673 56.4277 89.6836 56.5394 89.5025 56.6465C89.3358 56.7494 89.1667 56.8569 88.9949 56.9691C88.6223 57.2019 88.2545 57.4372 87.8913 57.6752C87.5374 57.9183 87.2089 58.1815 86.9059 58.4649C86.6029 58.7483 86.3486 59.0648 86.1431 59.4143C85.8033 60.0065 85.4968 60.6049 85.2233 61.2094C84.9551 61.8046 84.6485 62.403 84.3036 63.0045C83.938 63.6434 83.5529 64.0643 83.1482 64.267C82.7486 64.4605 82.3015 64.4204 81.8068 64.1468C81.3027 63.868 81.0316 63.4986 80.9935 63.0387C80.9647 62.5839 81.1128 62.0076 81.4378 61.3098C81.6731 60.8182 81.9287 60.3562 82.2045 59.9237C82.4803 59.4911 82.7359 59.0291 82.9712 58.5376C83.2065 58.046 83.3812 57.5759 83.4954 57.127C83.6189 56.6834 83.686 56.2756 83.6967 55.9036C83.7674 53.8583 83.8261 51.7028 83.8726 49.4368C83.9191 47.1709 84.0021 45.0044 84.1215 42.9373ZM86.5599 55.4212C87.0546 55.6948 87.493 55.7727 87.8751 55.6549C88.2716 55.533 88.6119 55.2153 88.8958 54.7019C89.0611 54.4033 89.0869 54.0701 88.9732 53.7025C88.869 53.3401 88.6255 53.0531 88.2428 52.8414C87.7574 52.5729 87.3123 52.4852 86.9073 52.5781C86.5024 52.6711 86.1761 52.9416 85.9282 53.3896C85.7217 53.763 85.682 54.1433 85.8092 54.5305C85.9363 54.9178 86.1865 55.2147 86.5599 55.4212ZM83.3032 61.5736C83.3032 61.5736 83.3058 61.5689 83.3109 61.5596C83.3058 61.5689 83.2985 61.571 83.2892 61.5658C83.2892 61.5658 83.2939 61.5684 83.3032 61.5736ZM94.9617 49.8839C94.9533 49.8549 94.931 49.8182 94.8946 49.7737C94.8728 49.725 94.8504 49.6883 94.8276 49.6635C94.7466 49.5455 94.7427 49.4093 94.816 49.2548C94.9037 49.0961 95.0728 48.9336 95.3232 48.7674C95.5881 48.597 95.7952 48.4982 95.9443 48.471C96.1028 48.4489 96.2272 48.4995 96.3176 48.6226C96.3581 48.6816 96.3965 48.7333 96.4328 48.7778C96.4692 48.8222 96.5076 48.874 96.5481 48.933C96.6115 49.0168 96.5848 49.1422 96.468 49.3092C96.3658 49.472 96.2386 49.6028 96.0865 49.7015C95.9282 49.8334 95.7258 49.9348 95.4794 50.0057C95.2381 50.0673 95.0655 50.0267 94.9617 49.8839ZM89.5767 52.281C89.5548 52.2323 89.533 52.1837 89.5111 52.135C89.4986 52.0915 89.4861 52.0481 89.4736 52.0046C89.4203 51.7923 89.4511 51.6265 89.5659 51.5071C89.6858 51.3784 89.8234 51.2839 89.9787 51.2235C90.1434 51.1683 90.3039 51.1535 90.4604 51.1791C90.6314 51.2005 90.7507 51.2604 90.8182 51.3587C90.8587 51.4177 90.8946 51.4741 90.9257 51.5279C90.9569 51.5817 90.9834 51.6329 91.0053 51.6816C91.0708 51.8275 91.0679 51.9539 90.9967 52.0608C90.9254 52.1676 90.765 52.2922 90.5156 52.4346C90.2424 52.5761 90.042 52.6298 89.9145 52.5958C89.7963 52.5671 89.6837 52.4621 89.5767 52.281ZM85.8535 49.1612C85.8204 49.155 85.7774 49.1556 85.7245 49.163C85.6769 49.161 85.6339 49.1616 85.5956 49.1648C85.5096 49.166 85.4354 49.1128 85.373 49.0051C85.32 48.9027 85.2839 48.7364 85.2649 48.5065C85.2281 48.2424 85.2267 48.0465 85.2607 47.919C85.2946 47.7916 85.3691 47.723 85.4841 47.7135C85.5131 47.7052 85.5467 47.6994 85.585 47.6962C85.6379 47.6889 85.6715 47.6831 85.686 47.6789C85.801 47.6694 85.8918 47.7257 85.9583 47.8478C86.03 47.9606 86.0691 48.1102 86.0757 48.2967C86.0866 48.6075 86.0751 48.8266 86.0412 48.9541C86.0166 49.0868 85.954 49.1558 85.8535 49.1612ZM87.4131 47.1349C86.7852 47.0801 86.1577 47.0134 85.5308 46.9348C84.909 46.8469 84.2919 46.7615 83.6794 46.6788C82.8866 46.5694 82.3171 46.4311 81.9707 46.2639C81.6389 46.0925 81.4959 45.8001 81.5417 45.3867C81.5979 44.9545 81.817 44.6796 82.1991 44.5618C82.5863 44.4347 83.1727 44.3994 83.9581 44.4559C84.6015 44.4827 85.2419 44.5261 85.8792 44.586C86.5216 44.6366 87.1516 44.6986 87.7692 44.7721C88.563 44.8576 89.1849 45.0004 89.6349 45.2006C90.0994 45.3966 90.3083 45.7132 90.2614 46.1505C90.2416 46.6271 89.9759 46.9312 89.4643 47.0627C88.9673 47.19 88.2835 47.2141 87.4131 47.1349Z" fill="black"/>
</svg>
