<svg width="97" height="32" viewBox="0 0 97 32" fill="none" xmlns="http://www.w3.org/2000/svg">
<path d="M19.616 15.36L16.16 12.032V4.16004L19.616 1.02404V15.36ZM0.128047 1.02404L3.58405 4.35204V12.224L0.128047 15.36V1.02404ZM10.592 23.552L10.432 22.112L13.216 22.4L19.648 28.352L20.096 31.104L17.312 30.88L10.88 24.928L10.592 23.552ZM19.68 16.48V26.912L16.224 23.808V19.744L19.68 16.48ZM0.192047 26.912V16.48L3.64805 19.584V23.648L0.192047 26.912ZM9.50405 23.552L9.21605 24.928L2.78405 30.88L4.69685e-05 31.104L0.448047 28.352L6.88005 22.4L9.66405 22.112L9.50405 23.552ZM27.5458 16.8L31.0018 20.128V27.968L27.5458 31.104V16.8ZM43.8338 31.104L40.3778 27.808V19.936L43.8338 16.8V31.104ZM31.2578 17.952C30.5111 17.3547 29.7538 16.768 28.9858 16.192L31.2578 14.496H39.9938L42.2338 16.192L39.9938 17.952H31.2578ZM28.4738 4.3869e-05H42.7778L39.6098 3.45604H31.7698L28.4738 4.3869e-05ZM27.4498 15.68V1.37604L30.9058 4.48004V12.416L27.4498 15.68ZM43.7378 1.37604V15.68L40.2818 12.576V4.67204L43.7378 1.37604ZM56.6275 20.896V27.968L53.1715 31.104V16.8L56.6275 20.896ZM63.7635 20.064L68.6915 25.248L68.3395 29.856C65.2889 26.656 63.7315 25.024 63.6675 24.96C63.6249 24.896 63.5609 24.832 63.4755 24.768C63.3902 24.704 63.3262 24.64 63.2835 24.576L58.4515 19.52L63.7635 20.064ZM53.1715 16.8L56.6275 20.128V27.968L53.1715 31.104V16.8ZM56.8515 17.952C56.1049 17.3334 55.3582 16.7467 54.6115 16.192L56.8515 14.496H65.6195L67.8595 16.192L65.6195 17.952H56.8515ZM54.0995 4.3869e-05H68.3715L65.2675 3.45604H57.3635L54.0995 4.3869e-05ZM53.0755 15.68V1.37604L56.5315 4.48004V12.416L53.0755 15.68ZM69.3955 1.37604V15.68L65.9395 12.576V4.67204L69.3955 1.37604ZM58.4515 19.52H63.2515C63.9555 20.2667 64.9582 21.3334 66.2595 22.72C67.5822 24.0854 68.3929 24.928 68.6915 25.248L68.3395 29.856C65.2889 26.656 63.7315 25.024 63.6675 24.96C63.6249 24.896 63.5609 24.832 63.4755 24.768C63.3902 24.704 63.3262 24.64 63.2835 24.576L58.4515 19.52ZM77.2613 16.8L80.7173 20.128V27.968L77.2613 31.104V16.8ZM96.7493 31.104L93.2933 27.808V19.936L96.7493 16.8V31.104ZM86.2853 8.60804L86.4453 10.016L83.6613 9.76004L77.2293 3.77604L76.7813 1.02404L79.5653 1.28004L85.9973 7.20004L86.2853 8.60804ZM77.1973 15.68V5.21604L80.6533 8.35204V12.416L77.1973 15.68ZM96.6853 5.21604V15.68L93.2293 12.576V8.51204L96.6853 5.21604ZM87.3733 8.60804L87.6613 7.20004L94.0933 1.28004L96.8773 1.02404L96.4293 3.77604L89.9973 9.76004L87.2133 10.016L87.3733 8.60804Z" fill="black"/>
</svg>
